<mxfile host="65bd71144e">
    <diagram id="xWpcag5Lll-tB9wrTvut" name="Page-3">
        <mxGraphModel dx="412" dy="312" grid="1" gridSize="10" guides="1" tooltips="1" connect="1" arrows="1" fold="1" page="1" pageScale="1" pageWidth="850" pageHeight="1100" background="#FFFFFF" math="0" shadow="0">
            <root>
                <mxCell id="0"/>
                <mxCell id="1" parent="0"/>
                <mxCell id="232" value="" style="rounded=0;whiteSpace=wrap;html=1;fillColor=none;strokeColor=#171717;strokeWidth=2;" vertex="1" parent="1">
                    <mxGeometry x="10" y="160" width="640" height="230" as="geometry"/>
                </mxCell>
                <mxCell id="236" value="" style="rounded=0;whiteSpace=wrap;html=1;fillColor=#e3c800;strokeColor=#B09500;strokeWidth=2;fontColor=#000000;opacity=20;" vertex="1" parent="1">
                    <mxGeometry x="652" y="160" width="120" height="420" as="geometry"/>
                </mxCell>
                <mxCell id="235" value="" style="rounded=0;whiteSpace=wrap;html=1;fillColor=#60a917;strokeColor=#2D7600;strokeWidth=2;fontColor=#ffffff;opacity=20;" vertex="1" parent="1">
                    <mxGeometry x="170" y="160" width="480" height="420" as="geometry"/>
                </mxCell>
                <mxCell id="234" value="" style="rounded=0;whiteSpace=wrap;html=1;fillColor=#1ba1e2;strokeColor=none;strokeWidth=2;fontColor=#ffffff;opacity=10;" vertex="1" parent="1">
                    <mxGeometry x="10" y="160" width="160" height="420" as="geometry"/>
                </mxCell>
                <mxCell id="244" style="edgeStyle=none;html=1;entryX=1;entryY=0.5;entryDx=0;entryDy=0;entryPerimeter=0;dashed=1;dashPattern=8 8;flowAnimation=1;strokeColor=#000000;" edge="1" parent="1" source="219" target="221">
                    <mxGeometry relative="1" as="geometry"/>
                </mxCell>
                <mxCell id="219" value="" style="verticalLabelPosition=bottom;html=1;verticalAlign=top;align=center;strokeColor=none;fillColor=#00BEF2;shape=mxgraph.azure.website_generic;pointerEvents=1;" vertex="1" parent="1">
                    <mxGeometry x="676" y="250" width="71.76" height="61" as="geometry"/>
                </mxCell>
                <mxCell id="220" value="" style="html=1;verticalLabelPosition=bottom;align=center;labelBackgroundColor=#ffffff;verticalAlign=top;strokeWidth=2;strokeColor=#0080F0;shadow=0;dashed=0;shape=mxgraph.ios7.icons.user;fillColor=#FFFFFF;" vertex="1" parent="1">
                    <mxGeometry x="696" y="210" width="30" height="30" as="geometry"/>
                </mxCell>
                <mxCell id="245" style="edgeStyle=none;html=1;entryX=1;entryY=0.5;entryDx=0;entryDy=0;dashed=1;dashPattern=8 8;flowAnimation=1;strokeColor=#000000;" edge="1" parent="1" source="221" target="224">
                    <mxGeometry relative="1" as="geometry"/>
                </mxCell>
                <mxCell id="221" value="" style="outlineConnect=0;dashed=0;verticalLabelPosition=bottom;verticalAlign=top;align=center;html=1;shape=mxgraph.aws3.ec2;fillColor=#F58534;gradientColor=none;" vertex="1" parent="1">
                    <mxGeometry x="522.89" y="240" width="66.22" height="80.5" as="geometry"/>
                </mxCell>
                <mxCell id="222" value="Web Server" style="text;html=1;strokeColor=none;fillColor=none;align=center;verticalAlign=middle;whiteSpace=wrap;rounded=0;fontColor=#000000;" vertex="1" parent="1">
                    <mxGeometry x="490" y="320.5" width="132" height="30" as="geometry"/>
                </mxCell>
                <mxCell id="223" value="User" style="text;html=1;strokeColor=none;fillColor=none;align=center;verticalAlign=middle;whiteSpace=wrap;rounded=0;fontColor=#000000;" vertex="1" parent="1">
                    <mxGeometry x="645" y="320.5" width="132" height="30" as="geometry"/>
                </mxCell>
                <mxCell id="246" style="edgeStyle=none;html=1;entryX=1;entryY=0.5;entryDx=0;entryDy=0;entryPerimeter=0;dashed=1;dashPattern=8 8;flowAnimation=1;strokeColor=#000000;" edge="1" parent="1" source="224" target="226">
                    <mxGeometry relative="1" as="geometry"/>
                </mxCell>
                <mxCell id="248" style="edgeStyle=elbowEdgeStyle;html=1;dashed=1;rounded=0;flowAnimation=1;dashPattern=8 8;fontColor=#000000;strokeColor=#000000;" edge="1" parent="1" source="224" target="252">
                    <mxGeometry relative="1" as="geometry">
                        <Array as="points">
                            <mxPoint x="310" y="380"/>
                        </Array>
                    </mxGeometry>
                </mxCell>
                <mxCell id="224" value="" style="shape=image;verticalLabelPosition=bottom;labelBackgroundColor=default;verticalAlign=top;aspect=fixed;imageAspect=0;image=data:image/webp,UklGRjarAABXRUJQVlA4TCqrAAAvlUFlABEHbttGEpRmMLOr9v8PPjJd7Aci+j8B/PACbm6uA/txbpwbIxZCJ7NgawY3ImpESQMWJM0XogtCalCw1BvQu7Is9A4kgDgVFYjY3MCouQN6IyuxWgfhItiKi6QtyHflkPuQIbPMeUjIhKxEhZCMDZk1VOCeIIHe2wRIOfnX+4U/mFCSbVu1FQ1sx8Z3CefEwm78Iv1vDUHJ3Z3MJ21wG0mSIqVwJH3U88ZJz/6b9ibIkW1btZUZfcO+u8wY11fn2+l/E35ELdxhhVjQ/wkAoIiI4CHCQYpAEQcwCIAgArIe4g4BVgAQAIchoQEQRHz2sJuVlXCQIlAcAqUBUOxmd1PNblbrldXtnYoKoAiUIlAINmxWgE3Ezschgh0PnARAAECgo91ax5p+IyIOAIH/UHH6RCUARUCCQCEMdhAkQsXZ/vtTfYXdEQQEGA0HZCcI8cT2Jzod3gLdCQkC60BpABQRMCERAYACAISku0D4Nj6vKZm6ETlFOJICUBrCk9/FJfunL7u/LunadfORUEBEDBEAgFKksDmOICAunyEM9kDYWa2saR8AAEHrIUGKQCEEgojY2VFZzWWJdUAYAg3Jq4dcdBdAR2H/CU5YWQGAOPZh+UqRvHp4odfdRQeFEAjitzE7qqeVp08CDPCa8WXf9bl/bdvmbUgQEABCIIjd7GY1Q8RwFBCAUiAIrAMlISGIiBCGg3AACEhpSBD2LrsEEXEQ60BCYB1YR0pCgoBA4/jd42m3/m2kExGRAIQDQLyxDQoBAUAgP0a7q47u8Q4SgPDadnpjW2zGpcN4+huUhoCAwPfu4+bq23hJEAGAAAkf4vTlZk3j2jaWQf7cxpd9EKTAVZdvI5srIIgEgACEDx3/uS2AxZvHWNMmv0OCgEABgWBACBAgw8FDY1kA8puEBAGAQAgkAEqAAAwDQEBCQ4IAACSEQTDYIRAAACAAAMJuqBYHbSNJUswfdvfM7j0AImIC+ml4yV7hygwWDzp6UvnAJbp1UrolyPnksv0ilXSJ7TlyIU5ho4IsTmalM9p1rVftr+xwI+6czJca66HbQ+/SP+SaAbdry7adtc+T98h7771jekrAe4u8y8Ub9KCo9w4qBdH3CXrvza3vW6O1v7Wx9t0H/1SxSbTBgUcKPa55Y9hw0kZVKSiufmDRGcOIq1J4l64HL10xjPz2/D6hRQveHCqlR3cKq+iBLcBSCkV3pTASkyLQTaHTvYM8dKdwJ30UbrZtx54Hf2zbtm1rAavSJqlSprKzgLp/hEzgpLL93g8U29aWLefgrsnav6je/iFgI4AR/BGSQyPSrZF0Pu7J3eGGLABAgsbibXdra4qAiChm9/70yP+v2pLlYHJWVnJmVVIxJ1U+qKoHRf2KHzNjgyVmZmamgkfFncXMDPkqszCpIAsysyqZL+SFE3H3f6299ton2/5ZgjGgLVOjQFOxQta2TzxPrO1qDJqCRpA9ApG53eUp4kxBDJYsuW8ECg3giHXdG/IYtiXFDQ2AJZ8ZcwwZIes8s93rtqk9gA65LE2HXspMmVfMcmmLJtAzafeZYqmau9NcMmsIikhfM2ANgKeQbmZEWylL2xX5NAJFVE9BzNKbwmmvKwekIWgK8lKMJuu66XrA9n990v//7vfHc2wwpWsiYDO626LDhJdgy9t4dZfd7dFxdPLmZTfYOcXWgxYBW0oaNmr5fNwtUNt2zJF0328lmU4fY2yjMbZt27bNVP2VXtu2baO13s3YTNrmdLTp+t6QRdtK3VrbpLdJUwVUNPhoPPfvHymZ4Rcs74w7hurfF2QpJL4wXjGdd2JNOHxBCITuSPG9LwSEQypUmBOmd6xA4QsAUETo5isiQaFUBsedhUdXONx2Kry+oEwFQSgaOFQUKH4Fv2AgDncC2e4obF0gV41LUwWpg6eDsnxHUReUBcpUwZvGIbOapH4XdJE4fGEK9FiQFMk9NWkL0VnTonPNYk2k0PTGONxiHy7S3hAK/SiNVwVLFnAqGsBBUBtznlcHuwVVewkSqgcnnqRPMrinhxT6wTd8Rb5RiArULVpV59pbMQgkozSRIHuaepTggxb1Q6AVEsfqa7fYMCa6N82n3Lkp0qvyRTElOQVaki6HqAigyBqHsQ8lJemR7gmjx3LQPg8GNTqGfPQ1m6iU0/u3CTlZH/T5r4wrPtfE4WDUixRHiZaJA2b6hmptYYo46gD5+IrDDcjmxIoSrKDEQdJXFUqQTJRUfga+KnFQKC6IL7D4Q6CunlvFhGJfp9qq8EJk5rbIGsBIHlI8RkzvNCBXUS3KR+aDHdBi06Rd8868hFIJd5wWGocbPXV4qg91lEp2Ab+hmGIwD3KnVRctmT1OGp8jHaBUBT64BLXmaxIHKWoXWf8ELcYduERcFCmEzjkUAYtx4aPUDhNuAV4EL48ShZ+Q+6dHXhR7+OkMcJBYJ9f0tB2sBDj0KkmLLhQ41JYNU7WNuQf9FcteB81H8tBQ5yolwAsBc74Q3dDKCy0d0Eo2Mw5JTC/URv1LFY8poZRIyWoU06eihoD2TlXYKEl6Dw4tdfGXpsVo41RTGIJjCnYOajpDEDWuieosmXROCjhXkLj4iPTwl4fdjwuPCa2g56NdanOttUsWB5w/4aDp4jvVQwOIwaILeESCViWdH+2GOTAx72lQnDZxPAap6BLgSxO7EQ6CFELdsCD9BdY3jcORrywKhxxHLFLGtKwXZElJ4uNTCzaigmEKh6FIa9J+l6987RyZ72+B2P0K+aBr7Z14Ol8UjiEUlELiTokQia1GtQQ44Hp58GQkZqHlqZab8RvXP9pKe5McmSwEj+JiFaBFl6aXKrM0fzIkcqIcXfNkdWmKoVnZa+/VClHkkJZws7XUAEU2qiWTgnlNsQG3pWyfQpe1jecbEbtDsv7HR0CRKDqMQd5EIyBrpBM0edaXEuDMD2Xahg9yh+BNUrCW6aN8kYUrQknjU0EsEkpUqi7RkYLqUVCl9JMogayFg+dJFagaCV7uADApFAzuY3pn4ReQLtjWZZuZ33eluRSswCUudk1CsrYFcknjkBbbhVrWAJMQaAFCaZOIOTe1JIYbNL3K1l4sxA7DDBOFrvsDVH6NQ9oNXB5Li0oNTarYAq3N2Ict5dI4LsYhbOcoHkscyj4XBnFoPQDFr2T3C1UOVFKZabaCAgK6rcrymc7/UaAAKvp1T6J33E+kuEwcSCo4pmbG9QSs2SFsryi8Ser1qfYVq+81Jb1MUF7FVdgIFnJ+VtW2zp+oNNNRHRjMt/E8SAcbmMLg1GQ21PsEV4nDIKN0mVnUhqg63rhrKNVRMjPtRyHjExEDV4gACI9DtR0wx4RNDmphjRM1XTAtZrw9sQTB0ryehWJcdKZT5UEv46KLOp7Zq6CElkAxUtjfre/yZWjPgoXEtuw/IVXL2NsCrN9UOOReaf2QLClEZqQAgJjqhmRpCN1PZ6Cq6Dw8sTaL5JoECoeadFCbpFwxH9Gj0UChBK+EwoCnwnfTU+628NGTdLLZKJagi9IsxeBBVXMqWimuioI0/V30dTaW1hnaFxAiFYluyPKNZw7ATF1+ZQ4OTYp6eSW8QIKzFUxPKNir6r7pGl8qAVkkTMRyVJA8BEQdthVk4pC1p+GLA49mO6To8cXBBwSiTFnfSbAdQc5KfZlqnNcXx7gogzMuAXCg6sr2VerQOKpDQ58eHH5CvP7CAnxxokCaedQ4WEBPPlI0UvniuIDEhfkDDIg1Z7C7gjwWxPvj1EpbiEgp3YTqIWlJqEORVFT3+uJk7QbcGwStxyPuwkLJUKQlVtqbYgnItJie/HCtSYHcRItbSBRKmGGh3l7ZXTUF+uJuUleNmDgk27YXokyHxOHKKFVmhUOTtUJk2vji7IbU5spUkvNmVWGtIkmpVrbliCqBg9Roxm9CbjDRgeO1ZrWhVLa9w88eIPGtYJkLS6REyHCCyZKq5BAGElnclxJIikIDDTlw+StX1O1nh2TWZY4pcTZQZCj4xXMRHQDaKnd9OZw6UVJMyqumsgHaU/riYjRsA8z2xZmZWi71oUnySkJwbHegVB3Aj5tsflJ5epAvrgr64mAVYU6YCgkFvjiBkKg6whdn+uW2Wh4t/5th5rxw7R7VxBra/7Ym8r9VKJMnuqNKYHbf6PjYDW+1X3EyVWoiSTARXJGg5jyHz0B9ukH9A6H4UpWzfXGOX8EJjonYJojfAIxMp0QokNsg3CQ8xekpUhUfeaPiA9BeDGB87okKSJoOjuRzv0hkOobU+pHpyw/B24bwaYXoPxA2b4BOSkosazIEqd+wzoIfLk1QI0ikiLRryuUvZdqtPotv2YwXAPcsXdKSpiABDsUogS40CuW3RJ3uRdWlVX2iMso/pMsvV24lKQGt3WIAfTEmiipsVI2tDlU3U6nurlg7aeYdnJCe2tc0itI9swo3SETVxnVDZaFGbkM4ZFMOoiQ9HnWRjfL6RDoyBVaab4ChLT6vzxuY/mbr1RLkkZwI7WKR1QKIWJTH6zNEbgV9ltX8Xh+WwxcX0lOstBct6xeM1EI6C7SkmD7SNSy6rXHzkFZVmzpyOxK8xOSJUkzq7ccJkrRASIAQZy2Cd+Bi+eIs8GkMBwBm+eDyVFEzQDQtkodFC4oKWgGXYG10QVY/igqifVJw5tLKBEHaGdBLQFt80JivYzggDqlYGIyz7OwB75VRIyjZXWQpFAAtIFUUEtUVb5iAT8NQlEiANS18n78xiqfb0lJIFtmhsqJqCgqqDYBDAnSuGvm2bIUpUaEfyoPWBhzOUEo3UZkIKQ7IDDKV9TIOSMiDtN1xouCPZbcnW1LA5Xa7jbJ/vIl7XxxyfE3vhCHT1621qeg5HTWJA00PaWu3G8cgG/pM9y0FPtvWtg18NnewWjKsZLu/NCCmAgd9LtYJOPm+S9EvngfyxZ2ZKulXlKMrnBsk/qMaTxFdqidpfJJWLlOpQ/eZOlH3mb0ocIjS7zRI3a18augL5LWSFWV6oUMb3z6NVVNmavvilL5rONkyLVGOOdryWI7CrOfcA34I4Itr0pxOOVgt+SZwQL5qUqpLZcwqX5wqYDGAdBdRpj8hfwP64vjpDHCQ3XjplvWoJiWOfQVKQVofsusEuZAgm/LQVolb6VrreJmissXkuKyG0HIe2+SpoAcaGuKBKB5akwSrP+Bg9T0cEMMmeKtqjNb9MREgFWmn0hcyMxVwUxCg/Bzcb7px/TC5WQJ0lzwU16BoJrVlkXEsZ4GBbHkBnZeGMn3dZZELP07Fo/K1Mghrw6e7vp5oNJBUyRo4JCJRFA9WldH2KhxwXRz661yOpJ1sUnSZnRW8GEo/ahxQtVXWu6ByoWpR0ihNyYGDXZ/rnZ+2Lbp3n3GEzmgLsqajvvI7Qxyx91rKkvq6kLpiw744kBx06yhMBB4laRGT0v2sKKTUsscXt/HCuBhS6uB3k1RNYQRXwvK7RGMQzjiZ+XY2e4ChxPw0NrsJKyKWJAuZW0U5WK2Qm5BUXRykHKxmBLUdTJ0f2yJtdOyL05I7jK60JRlR/M7XIFRAzSPqEFttEwLT++1tuX5lKyk1zP0WvMhMXc/ck4o8SfmylRKQRuJnAlkdQ9euDdAGTvbcoHg0j/GcopsaFYLyOJ8mi18xgSKzLGnpgpZop+8hQG+pGDdM+Q2ryjLKX3JwEaFFwZ7hMj61VoC/JuNTF7X1170QBHkcDVbh929mJd+5gymnN1xdGlXqaUiIOER+DpQEeEcAFY6gYenu9NMEUKZDSBD0y1GbXtIMs31xKbED3GAFgMCC5vHFBas32+uDVU8pVWHNT5M5LjzjNp6pafs6Dc1UbTKnZ+aDpqz1yfFVAsIAWbipBJA6SKZ1XRTQFgsU8Y7tQJ+4IHfrWdKzPilT5X+bkl5sDykivULikNX/EhokDsBb2u6QS+sSbmKOAAY0Zu+HCugh1aAHYemeEzZVPAuMIf3jNImv69ctWMq5UNLLPQQpYBGaMclDz3lFHhUlMY5ZHFAEG99ixwKcvOo7sRi8yF9N6keMA9JZFceCqF+HMOWGwE7wxJxbW1BOcuc2Kkg51+oA5ilwXoJM9wS/kti0MX1xrcQDsVtXEH3w/g3XCaGoqGqf6sgomdzbfSBenQ7TFzex4VZS43S6lAflZ8LbuiePYpXr1MbUqRnaARznDtjCpnUCGlRQNauixLlngQPmBUuXNRUS2gYQnqghWo4S1VYnnxNgUggVApiVkpyKeOeFhzks+jw0WmVohyhR/LWH0CHWsKjiZ+tgWPRREfYgtaOqjMHqKKN3rWvijxNCnllnppU29peSFMPABEAb2uIGkOzN0KvzAjhKQRc1q6QyhQEcSnCKoKhHOp1xu8pHqkPgiyOpivYdAs/sDkCKXuuL0B5q1qDZjtz2GAJiIkkptXgjtdbZXlHUZE6FFvSGKQH1BXB4BEPWYnuwevPW15ihIS92pUYKQii/UhmyIlPR0dZDLEWCeukO4NhKV/UGFVtfu2BDgF9ByxcnuURdQNHvQpkmeYQRwJG0AjiiJnY7SFuq2STbYCF5lPA0PIm9fT354iYaFUi2Qrb7jvE3mrkcxvy0PalwoLRvfL/+SGtCZR4pZk6w8OJcykt8+Qx3EIrwI+AADs1mS4ulROgI/VWyqWThOEbBsdvRJOZIZYURwDEgma/NEcAxGAUNUUEKdwBHB6T4pLUldKrWMbimK7FB1I/TvrgZARxQMGpmAIcIDXmueOCURG6TGWYFcLh8cXdg7ZwRwNG6bCimEjySjkx/ba9H7IvjBeLgD+CoXgCHXgoHwe/CIwhG/Rn64Cx5XGxI1UulXo7HG9nHIKN6NV8AB8AhLYuozKYvbV8cOOIxKuHcdYdZXsSHMmxxTSgooNC0OopDVRTZ/kB3aVJgKg1RjYNCF/Znb8vzjZTaZVvqXJoUEtOxc9B62L44gaAO4GCTLb3ti2Mr/XKRCCt6sVWuSkscRjK43S/N8MXhi7vuCRmOZCNqXgCHkPU68BLOV4X9tR3xxBjUp2kceACPApkaB5g0DOA4Oh1OhQlTdwCHwgF5V3NNSWZDHD2+ODOAw1Zcx8SkZx1JIHG58PwJ2SJ34imu4I3nt0+472YHcIA5gj6VMDuAg0uittABPEBa741aPt3Ovdg4MxY9LWwuLRbot0zJ+iao9So8YIxCdktOgpKn1tFnBnCIt4+CtH2iK4BjaY4AjjugHBya3S8u8W4LZS9OdgUrLtE+aY1Q9VhfK5JkMaDCAJluKIDDfM4J4LBeUhMRH5sxDpFUXQBWLnXgeM7EKme2YXEXcwwLXAO5L1J3Tkx4AZI+hgTIrolAxwqwkg2crTewM65xwNmLAoYibUkyI7TEfFT9w7JHBnc9rxNJANLZj2vW1O8PnUZDvo26EYlA+4IzPTEXhO61fHEOn4IpIYUnx+/otWZCpLHwMCGHCcmv2KBK75Q6ri8tc9pCJMTV0BD1srGg2KinZNiIApxRSR7CQVCwTJpLrgCOM7Wh/FiMizSEQXL+AI5jUQEcrBA4JAXWx9IIJzokJi2yiESYaVJBRX2gK9MpgANYPi3q4jcBkiZxeNCVKUfyNFBdAr5YWi9hwt7F91R7/r2uFA9WufDgw8kAjhX54mTx5wVw1ERkAv+b6HOQaKKtJ4DjRqECKUF57i06mwEc/aLmpy0NB3BodNEol7QWtBSfh9IkS1NkK2Hna8+1EVQipBPPMBx4SD/JBw/g4Ny2tg4NzEewhKCr446vzIlvndVOwNwP2VTSDW2OTE2W4olqBCYcVDwrpTNOHk5kKemzrJY4gAOrZWhgTSiW9A4rFLMBc3A8gC+uGCUKXQLrcgdwvGsElVLpbpWj4j6cN5jLAZOcH8CBcZB1R5moUa5TiTA6yn3S+CyBgAO3WO89tdxQmnPa5aQx1ju7BuYg9UyoQ+AwKPksccMGcDXYJT2EHS9oKnxxvQTWh8QwLF9cWyxfHAt+t+gL4GDOCOCoKBAdCBraUtVWWD7I/4Ysszre8PVbR6ZIcJL+AA42M1gsgzMDOB4RyiPCgFNXR06u8QJVvc6kgP9Gpndg3qImnpkvis6CFl0rS1QmV6ZM1Efssk/CBw/guEocUi9q4vDFQXyVMAu3qVYepbvlWYBA3+YBFZfSGMgX9/k7mrSAUiKUlDuAA12seVqakOLefnxFTqhydgeBFajgAI4bNTG66mlXF1CASI1W90VZBwuq7edPlMch33YtauIK4JjgLMzsF9oBHLL7rF4q/5umWvkCOBp5nQoYTSHHCW5ANC8xFUT/1pkkj0ABHFTyA1uY9Gh2Mh0HueuQkOiHjwxnRKCQ5hbr4+6acnMZs9tlvNdoxkAPND4leQhwIEsgiXNMlnaCKVnRmgmPutT2rqVzURNZOh3AATCyfhRj8OBiB3Bc9aIm+h1QUKIeg8AxdPq5JqkPSNdBHqjMrkVNsj1IAEdjxpScUhYvygJyXa3olDovftBVYwwSPWIDOLoskuGL01VkaSqfB13URGra2YuabBLr5OcXTGaFQ2kp6Z4AjqV52pHJbjdW1yhOme60zizzAaQy22ItamJn6hi8LQNgYcXDgth7JJDvvuC4yjKh0jkdWHAvanIIe9nqLk211VrUJAFCyZLtxCMRoRWo3g3oEWox+hCs+0ylFaJgZQd0hiDqTBPuZCk+50HEbuXUBQ5yrc2BajgQz1uJhlCOzTtPf/M+i2jsRmsrkOwV4JCmPjGWY2SALn48CepwyS3Welcptzxgdp00pNDem8DBpCaK+dAoTBZQ6doXR+PHojrgeRZw6uYmjL0QhlLdbOmZhHDdzC9NPC+iHkpBdpcgBUjmSi2nQn66VDG3AJN/gV+uHl9RLhuY9Az8bxloWLS3Hx8ggEMUO4VBcjhnvOqj83P4sYSLrsbo1DouyW9V6xW4Z2JjZEOeYXnQ5YvrawcWr2tRE07OoSZrGZOaIGuQ5W07pEYwaZGrsvCw/62oQAhOCK/ojQwFulsoIpzTlWQxCowhX5wBHIAkmjy5nEHCZoTNA31WvzrcdilyXAXvOE8NfBuYwJCsFwigRIVYDF8cgihyJjXJZXIO26rrYVgSomQtTOeiJqg+zFzUBENKMSW7KkSdOQj0isKheJtUbDkempB97b5FTa5twQpTKyqDeiSoR2GvO+yek0gHV21w0uf8+rNbFbSQIoEMKao6B8ywGYuaAOQukpNPaIRwWTJ+YDepiTjqcxY1UehSFlUvaiI0ZCj5RPNcJBWWpi2fJptmnQ+9vjgNb2kFcEwQuDv5QVPPTp6pbpUxXsgaSBtXY2TqVy/LL3+VkRINNA9ixamge1ETBw7V9fw0m0lN/DxDQzFFlORZW1yKolDELWLJcPwox1NEy+Nb1ESC7Eq3hbr7jNltosjrK3AlYSSBkA6VX6vlXFoypNx5DjeWNYWwkjDHK8IhNTRpgGidEnQPlo8CkFYuGFuZ494wXw0RxfIAwXLkmVgQ8g1wuCiNJRbAACRRtHUtahKAO4AjMKx6C72YP6mJEcAxZ1GTXri+IlUg9OS5UsGiZu/tWRJNYIg3wPOKA+BwjCj01ShroKdEMBbwxRHSw0rGI350Q57EK6SfqzZyx0cmqJhVIwyVRUBFkYyDIWgi4mY1Z4EZJvUUtHgpMcoQWxxijYB6aQLrBIg3hfVszlZsTaUHBOv0UI89LCr4YWiKqOk9zG74pahhTNjCwxwH8sXVjWv3nQ6Sdy9qgsfIfEKOxn5Y7UaJ9HTVWu+tysuPZlV3sDf8gaAtDiXbhOLC7kYaGijNBZQAEA5CXqBiAzi6dGCV6Yvjd3N9cVnYF4e6RvZctrEzhVJvQofgicAVP0bfLx3M6dB5ZQuklG5gfppRNU1Fsjn4HKiQzm7cvbzlLguaDYioDDPRr2Sjb6xa1Zq2uBc14XQC9E0+m4fTSU22AjWPYiqFM4DjKuwKpOg0u0codk+IFNQeqi6GqMtl++gPsUqK/VsobvnrFoyLrA/qM4cKhW+5lkdjDmcgzV21ntufMfGhs2tkWG0VhSWyJBnluaXzSY2Rr1nSONmWa0I2AafuxRSHQ+ciBKhDXxzH7EVNiqENUd1eqkItgpcC7wkFlfyxwOQBI+sY8wM41qzDEbPJzezHdSKegxWWBPd97qvkskO8D1uJOwgXOBHSgUcTGglEg2da4Nnclgc9POwXTd8QOzpYIqVEQomZKW6d0Z9Sq3f2O+8t4G4VNTp5gRZTzFrUhLmPBwvgSGmcNMDuxmvsECooM0UQg1TgzBQNdLRXnDyqGOSspWZKwb25IxDIQB16Fc97gMdiracQbUG3T1SoOWVlo1Kj0kMTdNogFZehxQhynEEbkUYnBUNmu3Uy9vxUtDpmr/cWWt0jtcW13gEJMS30qyC0L45zQAVw2B5SEk8hEIoyKNQsGMNpA2gTxfqalOobgNcvDO9Kqa8UW0kk03UWdG/gidSQE5EzKM+kehUJoC9zR1bbnlGCuGxvuHhv/T/wHlK9kB0YhEMxCr2N4vENwGusRpmsfecp7phBO0sFOZpW7NgTTivRIjSGi5r0UqQFUztI7SPFqlshqspMrboLeT35yoD9uCJMPoUwgxwn2rQREuM7cVYAhzk/7YWmmB5E9e1RSMF5vOsOQAF+vamusDkxQsjtBNx9868vbP2Hp9cUrM9QxS9VXXDy0miVNZeJ2wRLE20eu+qsLSN3KZXigKOKNq/dHJ+fU6SXHqzuBYLwRrAtOvnmCBUYlkMsSrFbjnY4IQuBy0M6VXrwjKIHsklIWvCHhLU/D+pyonAu8NZiVw0AcAyo6AzuLSm90TaIi9s/2736P39+V6CMCiqmCg3Cr8kpUwTKK2axTfI+ey48xSlLVRrPmtusVMtgvw06ACxq8iAA2C2MOzT8dFjOVHlS8KDUIcoK1Fqng8qYIlN7sHoqc5EFKUHmT7T8t9aP/Jn5Q5CCK8RyM8JT6ZqS0IexE2N7liWoW/ivrh/+ueE1SYyulRXTmjUIvmShgE7O4w7YdUknxTjnPKmxp7wxO04Ts2D/nmMXY9X4m4UUFYcWRdF8ShgsjcMQnGXTneGJv45IAlbCfhIlPCX03RoBHLwHWp8yhpDY4Gv2rnrjxkJXV5+xI+RE3+yOlade/2aVbhD8hmHKqnP8IaFtf15Z8U/N7f1yoItbrZdv+4w3I1Ca3u83xNBkhucCNaU+i6CQ5LaK33PI3COkMGUGxixW9ZMhhWFBa4IwZMxa1GQATcEhy/8i9KRnURNAc0AVNtmnVh0Eh2eBR+5luBZMHJY1oYHeXqsGnsh/7QHz3TUpIQMpXq548cebK3pYUTA8w+r/+wbU/xXt439YbHcbM1zYdkobddnadxuNB3hY6mfFJjUBZphiCZXtI/85qUzeIYurjlZ27mt8v/qeRTwCEKx9AC9qonCI6uD1TF/c5PGnxBq0ORVMrS3ZyxCRYltA4nr+AipglArgkDgoU++vsZ0uaUsfn7g+5Ah3es2SM25+p8ow7HQARy8ndlaW7YZQKlE2+o8YBYWYpkoFFCAzaIgPjuecuCY0GunQ0brfpvMkspVrL0enGJkwk4mDOA4C3wzg0JwFj3kBHEpEsF9Mc3/sWpFkVOjvjyAFDn2dv6iJNkwqAOjwWNMA+IeucOsIIAVVvYMjd3xFcVMuIwr7611tGOybOykzkYrXftdaAxqrjMJGLBWd1ATUlGApPwL0gXsuk8rXOz8Ux4hSmFEQFVPmDGdKOdeiJr0ZtU9+3buoyWfpIALJ2H47M4AjCMOwnk7xwRPAoZUBt+EaysB0c+WFx5Ql2SgjYQDHaouCtlL2i2ts4UyZGRKjq8QsEGnr+tgSp1JihXhitW16DYD9t1wkWQmoxQZpAF8hk8kAB3CIdkmKtyB/9/jisrxXFHqB1G4srF6ZYtQUeEhrEuFPj5QVvfhY6CXQQw0+IZGloREwZVL2+83BY5UnWpEBHJJ66aivvRzYxTu3HoS0sm0jLDFwStcK0cjTkY8oVAT4j/j9eMh2/6raAKAtF4badfEcIQBldWT3lC6lpGvcOvlCBUqJDuz1YYX2xQH3uuZH3eg75Pi5DE107m7Tx4OnblJqeuf0/RHwrC0AkrWZZC1MN2t29smdvbIgkSPDVnlqIieaCaWriJboAANH7dbBcYwLzUmVOpAvokAxj4dCbTupSXH2oiaa3R14faiNcA1gKXDXqKnAAUYSFH3w9jU70e8yWvMx5m89aQ2DwmpyBWuBP8IZA0jMrN3ANJiUSXO/NdO3DHunzHzEKbhFAYQGcAj/m0G7dlaj9ph/Mlxw8zUg3GjC5ct5d/RPEmYsaiLqbVTiAA64qIkhOXZvqrNsX5yuKCXnzLkCOHi/IFMfaP8An7weQDLsyjCuTqM9s4kpV3t4LNt18n+3inm1reWQY6ykij/24gYzgEM1CLCo3qFHroYr7pbCgmhV9D3XRwH3tBc1YUnWizZMHYpfM3xx3Iud5qmHoV8H9xFSmG8TiImGaJpQxueuv4W8C6B9RgpP2OPAICEZnrMBHHtap3JE2G3Qqp3SenbJ+G+xgNPaC7HxqFWIo6pXAK+P5gWS9W1Tp8IdVGmZ3giQgfacTWpyyLK94CRaeadCmQBrtc6Uaxr+t8LhpJXeAI4CFEz3wTzvki6INREe8dREYib4Hif3lkha+2+Y2j/qrVJpy2lJCVILm7WoiWDeikf+dRJccuNKMsUBgDjD3P8PEMBB2ouamOBf1OR0VEW/z49HICP4sAVH92pT23UtnQEcYxVLg0YbC/ZfU9shKV2Qq+CkJjYOPqxAWfY4rtuQFUNm/HPgyDfaWQ2JwWMv5/bV7rpidvElgE8bknUoXHPjy5MkAB24pc99U8xJMkrq6RfBqobmfk+Vd4BMJ87y0D+Q8Y6UrJh8IvpJoX0KpYe0KeCSVmIy0waVGNU/1MN20bYvrrzjH4Q8z8h09J/yyOZsqzkvfaEYfDvasi2K/6nYUuKVwO+3+JTvNPkg93DDq2IxElpi0/XhJioLXtQkidWhI4Cjg/lpXhQ5xIV1kf8ND5oforR9bgBHicCzT9tTqXSZujGpSWJZL+3g1HurGmYFcNi+uD+6vgD3UGtiXGlaB2v3T/MWNelmAIfnoCusq+OHuZCJGkGoOqvZBlOeDdST0hnYj0HRHraDMnPhDjz5k5rk2EG+sRbHKgaG0fQpyEnVeQQHgpx/y2EJLrqLb95DukDBRU0+fHNEAQEuUc6d3WSxfCBfnMD0a7HkUuBTdYdbIC+TbYrP4rMU6tHwxZnJFAs+eX8OiNA1kUb8SU2EbQoi3idsSC97iWAKY+4W1Epeh5P0Lmrys7/TOyWOB8cc9r5CK9VUaaJMZjvL+OzTiqc4wJTqnN6YEVuM1bbjAA6kqZuOpDXnpxWxAZE72adBWJbo082q1RNaeozHXtTk6fsfH/eLwCeud70GOcBPuOhmLmpikSU1t3nat9k139a7JTszjQqICqQmotCM4b8cBVEEV2/mthsYJGpxjwuayJ//1wPHJN2/oF5h9HOngBhOJzXpoOFxLWqiwRjDrG4qq2YKDvcU/jdh2oS5qAn54bUiQ+vQFA1k4KdcuzX3WBziCBaExkb8zN056vMg/6yxdEFEQ98bYJvxU0VR3szpc6vFXWGAwKrkmgdPnXn/dXtCFEkXGznsD91bAuoA11epvi1fnGhcEXRWg8qvsQI0IbJDrBxE6r06G/3gwSCjNr7OXgLiOkBOlNz9wLPm9ra3C5F3piSiHJlGmnqI1L4gfM2CWQEcEVo9Rnu1t+kUTbmnza6+rgGSwDoCMP4io3YpylDf/vBkV8GbsaiJdC9M5IyS4uJRhwlcCkkeVj+OxN5tyxeHldihWgKBdQEXF+4uFVJwyuS+e/KB52jnQfhBppRz+nxxPPqmtUPc3BKGj2sT5Oxs2v+mCR+AQTflFiXSmiCOTqyUtUNnCXEwE/P8PYLYRkkjeJOaqPlpwv+GPKTecC82yXo0ILsmgf7w++LkqqXSF1ehfHHAwTu9fM9FaYqJz4QMTHnmSenv+A4ueYBFTfa01OVpvz9SovHsLoxpzxv+t2ZEIA3Xqtn08NoSYhhzgGaS1JIoQDZ4IMADD1y+3gfF0NXO5kwGMxc16XMXNelA94HObRMszpm+OIUM8sWRuxjZPQmu8E6MvCxHCagTPXNO76Q7rG8UL4EWUlCvy0JHldNNmio5XfxFmF1b+cvyiiKxbvaiJsXCGkUrhcaD191rCzFsmpBrRPKzslIMstk4a1Kik+6FeG0kBqQY9PjiKE9T5qB9UfxWkMVY4Cvx110BHNIXBxEVnof3qX1xnyXs00o9IbUvJWKEd0iGnFh2eLpxjl7tM9SWr/tca9/oAQsQyC8lolWA2sx1ghjuK6C6F3LHH1A5AwpxcM3mEN4dTfR7nEBGgpeU3EO+OGcARxw8PclrWbxgX1wrY4La2GkMi8YSXARpyXiuR8eo0XPuj7233xDml6ExC9H8RM+iJujl0lzC+vPBnyvb1/3cF4XoMil7IzNZUbwECiYqoEzeLobJLzQerBQPTfK38pUykWg9RtYTkwhMzropNTM9OCgS68LjKRSKbM4lbrJ7Byy9pYFw0jNo56Jgbav4wN8/ucYp7n7mnU+sNWJIHg/9wPELo47p/Zc+YdPaxtzS44sbirzb+5whW03VAayRCvjiQphCZAqWmMvM28TwjxhODdPTTIchUKsLMbSXCRPunLGoyVTV5ixq0kjsiyPF4JD7wBPAUayGAjiO10rRUczc/r0jq5xh05jjUWPIIo5JqM7wIAjsE/QceHpI4Iz92LnNMPJ3cbT5dkziASqjSKOMXyprE0OdEYvl+veBCSwxWy4I5lUjhs5WSU7jhX4770T3oiYlVB8AxO0CCmey61Q+M3xxYsizi6Y5jhMbJQR2uwWvjjClgKmFIhv4jNL3nZ3GSpv6OJ1Aoh2T0AvAIDPyI9RJyhJZ/UGNfpMY2lqJACYwcQFWLAaWA9rbKYYqfRDKqsFFTaI8OybRARw7h1nxQIX8dmi+9AphOXp8cW1pxRG7wmEQ8Wos97CLsILXedr5cwf429flmAWyUURUVBJnRE/v/kVN/L645Xkqx2058cTdC6el6TIxn2+OC/euwFIi2pWmRjcihu7DUGTwl78eWK/hWS6b7eioGCp0sFM1R7XTDfni3jQWUZUsI3LvhZ9dvjgOO/mj6gXaIl5Pt4okUPK4LDuX1znr3XtLveelwS+DlbpjK1pWFUP81/UOTHCoLqp29TgZiWG0BFkWlI9bxGRDKD8aE+v1Q6JlZVZPQVVpBsSwRaix9V0QmUd+EKwPAqVEJ4HIZPEAOyZJGLUHgzZ1YgOxuy0apBDB8YdBAEUNg7uCjRUSsU9CRbihutdRR6PWaGQCg4CVlIFxBmARrWhRE5wHcOoCffsQ/4zGH4Lh6dQFdevF0CfINhb+ZlbDej7D9fB5IQa29HFAlobkPmQtHAzhzrEHqyWA5Pp6f1gAROkrgIUy9gS+uMSLmoSQgbNY3SjcPL4j38kFAJ51JggMwqylsALl8H3TGBTv4aAGYFvJ8j/gs2ncBpuPYzSU+TVrBOvXO0xw7LkMrFM+4c8AxmDHyTjv8lahD9qnGTsm0RaeK8mhngTrQlyiozowlOELfXFJFEmQclm1Y9630NvHB/MIlLEcUAyByASmEb6Db5nUORBdmpgIZ3pFGzIjj/l94t2CG4trzDd6WuFCQaJH/MwrYyrD6ZRkrHd45N/8YjGUd2NMjvPEJNXxjknMRU3Su2MShYJUdRvo070oI5jDZImlRYVgSd13HvfOqac6rcpGDx98wx/uf+6JLLE3MXdoR7Lb8sX5h0UXZN6fZg/tvCciM55dmWMZfJ7qgVJpTdBWfeyoJ2r0hsbQMkcppaaV9IiyducpfpkRNYrvv1YHXtQE4SCZ14EC0aRdNM8hRs13agUPIeZZWG+9o1DWp+nonb+OSOt3FwUXeuP9zmWG/w0mg9T4wSh4qp3MO8lnJ7yXRWai8/GYg2qlGt/kjHp63h0dHcYIUr6okTNnPVXRDnsH0hJFnRXbQhR35wJEgXPHJMkSFFIqQfnfMLsLhAoodpte9vGcqic7/L44+2pQsvbN7JRq6V1VPY+37pfA5PEu9OsjBfCQvnM9MC1w+l5f3G6zDh3x47HC7dKXLnry7nxCLA+C5UCpWceA0SdDGHNLJZWoCtVKmjhsy2jq+2ocHMw7LYUDgj1t2opJUe1UrSr3p7SMYHsuW3+6BJeVWcHgNzXDJN7fHmqCS9Sk1F+/92KYDnajvptvod+FOxDHts90h74Xa/Q0Qh2gc+REyYuePOKgv8ANhzfdcYPqHjahVGaXgR64Z+ceyqkQxrR8aw2JVgQPt2OSRxnyN3EBXUWIyp/2vFnHKuazAhwYvjjp6jF0F48AaujG5jcdup6LTjkpt79xY9gczErPAZbOBDUw3ZV+Q2pIkdmqroYn+2devRMuugm7LIawVAkyfwp5F5gluEzY7ZESU5DM+IDGgei28nCMz6Xmwm744ji1vZ+m9GNCZyU58/D1+qbVPBUbbdh1i57gYF4Ax+59pM5uw8OiDl+csujbMmrn9na4h1qdk68JBFgTLLzQ7xPK1Lw6rM/MmQliyqf5tpSA4VjUpLEJW72kIphPs48qCNRRmaVP9Ls7irg8yAQeN7SSwKB9D8WS2n7ru93D2M25nsSTgNk7JrkDCqJi8wJyJlY3E6mJKd3VushJzk1gc5pw516MEcvp3TLDqybhBz43viFrdb9tp62KhztMgdNe3k2us06JgzucsIPiV4eFatCyYRor9a7TLJWFa7hxjYhRiH+Z4CDw26KOqBDg2rjnw+yYZNX1T5EI4KCQLO/sz6JOPmtPLsv0evP2k5BLMpZD2gUT1nP9b/ZX/TsmSS5cTkKnz9AQIZwR4htnTWZnPoBpHJKlW7j2hwhIvT7LRUdJtHR7fdK1Y5LJU0zZ0MOqAKBBU+WBgIA1jZzN4kIKgQ8HyaaauIiLdfGrL232oSiHF4zC1gm2kesOqju9LTsZUYCFfmujE/afsAXGBljuHZNYQgD11qDwRU8oqgAOaxhsUMIqWBufglzF2zNfMkpn6gQP6jWHZJR2CzpeLOQ+s9ClxuIcMl/gUG+YQIfMCndw6aRqkyH8e1MYMWiyEz2AYe0J4GBNCMZhVc2NpNPcEsl32pmWUMmEARxxcDkEtjW/4pUiixdDlm9dfCN5/QVXAMecz9waEk0o4keYsch5bddBuoEp1+M+lcaiuohC6IlJuL0r3S89V8blAXZM4tAkhAZxYW1p4lBx1dyT/rdqC9dJ0ubAnhiH2YdTkwMkdN6OSZLLA6W4b17JsJ1LtREavf1xAZVNXDShyoYwvwxr/JBrd+2Y5AkMVvt3TPLpDHZM4rlufTaHSsko9LBGFshDXmtUBnDsg684fKDHm8XPQc+xPY2ugmqEwyjTnn5YWTtWCe7uEo2+IAB6+YaRjcVqT/VuhoCxsqayFLgCbgqCB1Mz8/kmhdwRwGFQ/DfAsChK9sqmk1VOISuAw1rU5GuyxalOrHL/0BGbO2gm3/M5nPCmF68hmkA4ooye7C7Ruc/rHZsXlq8fyfMude2GyWyO7lAEcbxZPyVj05kh1eJ2LVkEZn2IFDljxyTk/B2TZDQKBdxXEm98rimAvH9RARwvn/mixnggWkM2rvuaK/Pp4j7+5vKyXl70ZNdxmhbLeu8n7st0xjylzeREQvlYBC3ku0ub/yXC5pvqbWZuTpuPOrsgFavO8O9e+EkEVkZUyNJaPWEY8VEdgTuAI5sCgais3/AK7JbesgM41s6GvzQVhYBJuQsF64QL+QEpRVnH3sywRdz7HVYs61hdqGIruXE/dYdFKHygYN8AETAyY9L6/rNzgDfy8P/967Pn/8XZl6xiDbgNmphzWEahi2FsqqoNyOQyyl9Qo3/wafkXxTpQL4UvDuCQyOuz9l5stTjhxtfDwsX/Iwbn7OG2CdoVpfs9gKrQlFg274F+toEKm363T4FOajIkgeHJyML/8pV/aeL0v7v7q2DJbnUXmg8OGtUdONI1/DbNT7N9cSGSjanmBHr6fHGkgArQhsEfQ7v7F4FMRQVnqK7xkLFGCwJNh93iYTNr9S6L7y816DK/4RsE7iedwFs1oL+3+2WVbyAFC9T8C6OnHKpw/bUdhBcsdKXYO3DRONz62l0eUryoya5pcf3d4tA2B4HO39N6aC26MJb713tnzBgZfr/EkSVhjo2myufYacRO7kqb76K+LrEcqAYqtJYZ/rfT3t5MEM/jGUlBLpDMhnCRPNeAthYc9BPd+iHBj+setMYVJZ1Xh53k37VjktAvd7XQr2tRE0iB95ogV7fpFROaxaR56sHnyUGwfM2vhWLzRq6oAI5pXvtHba15IURVvzDtYUCF7Tu2+6Pqp7Xz60P44hYhY7PKQi4KrWfAjEQLDC6m3HOar/SgAB87rZQIOsS91Xn5jVZlNxnt8UprxyRSv49dj7NI5wE5M4CjlLv/rNsfEyCKwGUowOmLi13SvPVZbklWVV4SKC43yB2TQLGzzLq2TBgE1y8cFzG4q/49UPXnQ+7tThNxmoZhqQ4elU5Q3sMZ2Xe+Drpe85UcJHbumITsX8KOSYIN63RUqxHHAOtFAAc9i5pUg3PVZ4y2CQmNb+rXnxVZdm/vdfnUwJUwNFEMlb1Iwdj5Suk88TjxM8jUf6Zvdi9M2tt1MoxUSxijXvxknnqZ6K9kT/5YRue3/ieAzDoj0EtYv0vz7iJuZZ8UEPLFBW1fnKwIHuH84PDFdToCOPyLmvRLzKoldSOviBnNbxFMVHJ5MJMerc0DxGzOevcXE6Lv37jSZzr6TBQFlh5vbNlfTz5XzW5dKIbzzt05rQ6Ady2TpctPUqIjkS/lH1RJ+3dMEtM7eFETeR2ghncnYkqJRNHztkbiykWUeb2PbZzzVrwffK1/pzd48vuJlHjnFdyZ7SYw6KuqRhK+lcX/LH/vc53VGK06Pv7wUYPfF0cnNVkGeN4bxfCQFcXBA+vyvFDyVUjxYS2tt6a9YxIzgKMO36ImSwsRgbPBrompTdXKF/MCOGLiR8j6MOf3dGonyOe/fv/7x9dubPJE6d418fVJ9p9I2T84s+grxz+zsryE1DSc706ISbJQftVhdU6LzAg3qpMaxHkJEADLoZeTbaJ44Y3eDQFx2zmwL87E4XaalKV3xyTPN82gDVtBAAcYwCEUf4UZIPntVF2KsXPh13x2wmvm/dFpF3RWPIY15FleE6LI9/u4B3PHJOGudnmKYvt8Dyqf3Qvvn8dCnrgLB5Hn/HSlA1avZaKM8OYhgh+rdMHpgmyMsea8HZMw3AEci8Qh+AGK+kaPcwryvktW1cvnJwOtJWSmRb//bf/msopCPT1PC/3eqR/VR/ncn4SD4T6g29gxyZ2jokTEz4u79i1tF+3qlPyhknFjyJ8r1XESxJv79kab2i+UcAoL8IAxFqcWe5L7YKFdxLGgL67qEQZwzFnUJKrEDx+gUralWb64F50paCOUSLvhEu3CTeqNKuZnVFG2gwj1ApTS07MnYvtA4VNBHpz5D2NuPRPklEgCNtpbfcSEySUHpQsyLU7KQDtEDsSexrwH6zliwnhAdosfHxRsjvQV6CRBj7e66YtrS4xdEGTxwpkqgOP+8ULWbyISl2W010SQauXw+nit6p5s81/gFnrXxxXe1BK+JPuU5tV4B6NcOyZJzU9E3pa+AA7njkl+BiwfV7K7FcBxcMLXmmTcplSGnl7rTiHfD8Vxoy5qjvTXncVSQnm4dkwyp6tTuDbOSFSRLQk+8ZI5fRtxGfEX0ATg2xUtWbp8YjkEw/8WBZNeaQRweBY1Yd0oG/X3QEITuxhvAIdOOcbDjkg/NeCLNC4Gvb+Fm2dvlC9fT4L9VsKe+22C13zNZ7hjkqEc5DO9BLtohTSqnPfB89DFP1HzoRjHW9Khnwr8PA3T3Cx8OmASSpN3NSEvnWf44sbD7ZgkazMXNVFS3lG92aHXhyBNjYN2o5b61q5PJVfus7wKC9/xQDsmwb6PgVia8qNJOMGOSRYnvBO+uKZ29fN5QvfFLTZAi5Dt8yzPdfoUQkqAUQ6keGKJXFmqwZdpyFrr2zHJ2FMWQwVwBPpINjrYFwc6Bhq2d9kcvjhDo2yOJQH2oVb8mOt/a/y6KSmuG7/esBGMQTmk9NVh3cdScwUJtPFn8PDKj9A8mRSdRN9sFgkugtorRbBjEq8vjkch6jkDOPBCv/ewS4mRF+uxSXH93vDFsaGLVVSryTM9lskXpx7LwRDEmsr/xm+epnLK5mC5FXj5/OaAZS7FHkESd0dlz0WSYmdFngTNP8/QsYRES9f+QtPRd2b6Ajhmh15SJUPctCX1PHCZY1zgMnvy7ZmLmiSZKzg2lM+1AYWri/sifHGsAAdTXRlKd1S6raWEzj0p2PEBmga/0PUMKH4+wh2TnN1laaBQyWPWgdacrEPPI18ch3PCu4zvtqbSY9mfkWo0Ydurz/DFsbZ3yLw5IA02UKLQqHxs75zDohsViEVNcPGFa2ssUz6xj9XRqWMlgVYZbrv3RuRSP6SEzLCLgS+O8w886yjSnED1sV5v2NHcOd8EmaVak6LWpXVHry9uajaHY8ckcH7ae2vHJBpSUvSF79y+OAA6gMPVzsx4UhwgzpekQtmPN1rUHr/urRRa+4yaAngm2RIPtlRzHOwuSdxmwBwRD7loOOgtRRHEjzfxvASEguUrendMsvFT26GMo6QTZtSwsoK+uOJU8AXmw3duhryrti63ZcIATzypNpwqbN+0UuoVx/7JBMuB904oK/FB874dMWZqrwXwlwFyeTPRvM6ss7P3qqPQ0b97DJ44sUf2hwhTO1S6EocohINKvaxFIG/WQr+KKqQjHyFLDudUwpqhMq3Oz11Kzj5DxRVPRSUpVVFgHtCPZ7CLODk/zXM7Nt80Nz+adOAJH5j2xXkxZE11Fg2mqekjs++BF+icM6bO16K5UKpaou9KyVC+uKGsX6lkVQDHTF9c0gsbpBgAUXcxxAP4RWCxHDsmqY1r9+mwkpD7A7jXACn6DMTsqPiFAd5MJXojoaYjJQH79HRuCF6Yy4rMJYUFAjjB+lGMFN8rS4P41EonS9NByVzMVPx15r5aE0+mbG77G7Icj00fr5N4xgwey2rXVFPgB4+QpRlygdsnAD/qcaotTjo7C3VPUfp6iB2TpH1RI5GGa34a48gyjnMNzZBthnMKVAaYPFaqXji4lMAs5u2YBALqx8UMDxhz+gLW6f767HPOeDwkX3f9JB/+yZKjlWSJ80FWBg5RbJX7PVzC2no69MW9KzQ/TQZwOA4Fy0r5Bz2+uI1L08Oi8oAKdvH24oVTcVHNXbXCu4sa3t0T3KJQDQs37NNRLpIu0hc34xf12bPlD2TK2ABpZVkWImpfRKYsah42wZGL5piiM0P54i4+X1wx4EsVwPHDR+PU4oRaoVrgCRUYZLNauooxb/ED7ntI06ua4kVUxQE3bfj2h7f6u9TnblKL7+/ezWBxUzkuk025L8fXM5w81pEPLagRHpUrTnqWZfmxnEg+T6iK5gAMTgFf3J6F59m0QmVtJVo90cRtvtuxoc+jXjcFcghSAUp2sIFkN8lbSaEZFJSZFLmApuoA9mvV8Xbt2P9m7ZgkXDVPVzp1vpLL8Auj5tHwC9+DnOMhneOAF/UAKEsj2QxNWqUsZaZgxyQr+8wAjs/t/oXKTmuxD7AF+Y5IMrK5F/2Ltfpn9hmPlUMEcICFfokmAguVcl4Qe24nHubW0/2PxaqzzQsvyXoE6eh2rhOZQ/yiLz/qkS5pWEyZfgiJQrWpVsSsRU300JlOXBzP62QPQPRejOOoqXOTXcTcjt0LYzoqnqWtXcHSRRfVcIB6OcwmvqJm1HtDgTd+1f5le5zYA95RvKqmFY3MJzVGDSSusGFhXxw0BQebo95CZcCPUFtem08y1gIJjVyqxSItiNmvOZIdjQw7uUpA/UeCgH1JNiLeCFsNnsKAh5yx/mGUs5ZwzCMRh1i9BCHy6MQVGb1jEjV+2big0QQ4N1McdKldgf/tfizvA+nKtGtowwFirsacAI61SAmupbdH3Phq9cGcNxwBx8AEdvBp/ZTF26jOVi9oECODEpTOabrOIdDtxT4UxM11kzz89Lin4wWVkJRVIa9sHq21dg2hIAPkAM8f6nnozoP3d9Ju0vm8cHJrzhvrXxj2TAiODmEyrAn8jYYi5lqesvdb+OOSe/7yhmE3tBTIJSmAd2G0JL1E0N5S3zSzlGgoLwnwWOeEwxHl2jEJoDgnHNI1WH1iHXS0dPYEpjkBHAoekGtG8hV8M9Tj0H1DzxAX3sppjz1h6FFVanygNar3zgSGMytVo5V1C0zLTREz8Jo14K22uCJ6KQv8oZGdf2XvxIzRA8YwSr+7xB0ohQiGDL5xjAgXarh2ZsF5zyqAI2zrV7i28EdRNaGloI350KT5YL1NsLQEa4Ncd3t6/I0O5TftiSP9jlpUZzGEqUcjLERUhuZbcp+Y5FtuzLD1mvtTTJV4gOltx1NS+Cn2lgFyTp+YRBpiKoDDcZM8TapAr4e0RO0F2Sm9VcqsdwVwwBdQ6bmMFw5RHrp36BkS5HfH2bxoavn9lNUACUJSxDG9GhgazLdkvdlQxDG6GYNc2SdSGX3+uA200EvWzvnt6GqIDYJs4LcvXKCR3gAO6jdv0Gmqatxw+eJcARxNnFDuJ58P9Txs79DTJambex8y0ufoyra0yA1MiMZfZgKTUHMHQWPBrgyPeztwWIJy5qpmpU5tlEvSbrjLsal4yNuxqSz6b8eG266q5VMdkpKOtyvxuA74xLczVK0DSiC2ct396Yk3SZTi9BecaNtbUS+5QaABwvhcrbIxZlmNNXra+bSxymgapv+SVEwbbrwl6rRqNB4JtAnDLVU7UoyLsWMS7foh4WB1EARwFMMzP62Kj7uo1vbQG55t4NnmOViNFQ4eetC+kWdLluMd2VyUknNLYe+0qaQ2crRNASz7A13cNxpI67XMScnREvZ5HS8KChGrLrWFN70MzcEazwlux0agVZJaQ2LnC+DQjpb1C8CasLgTu5mewu/Gsn24Gj6PhqHDDts77HT5ggym3uAkl77KRowBuTSg3ycDOAh/RHP0tfeQOKSQ/6YcQK/nVHmiJQkVrf0tsKItYiJJfh8kL6fESrqI3mscgJ9F6IsrFMBhfP3UMqTpdS4U5oqUqTuAo0mT1LYV8kz+HpdkOeOpx8t7N5EAfY6RNDCMJLO6h73PGosc0uuoFHEyBvVGv7VcW5znL0FY2LQBQAuxoRVc462YeuUQ0LYZTVtyH0UjgOP8yQrggBwGiWNvXE1wK5iVlXhhMHkA625DuCfNO7LzohTnlmVgfMZzE/hrQvpVDOzvflHIIvyGsn832k14RyS/JHrMyXrHPUQlffkkWRqDIo0ADuml08KiEI7WeWHoemsmUcGfAf4vzcplGLk3REfAXVFOueopA+dXfI2AY14PGC/7RuUhudvLI3t06d8VNE8UjC5fgnDdwXn0hJTl2Ei3j8cXl8IX57kdG5lpJ8Veth7pgtz5M+9YdWFr5Jk0Mw1EOruAo6nvJ5AX3+jY2k1373xu1XZlciAN99S9Xa7baJRvUwIvWXuK59izPSTajKPl2BjpWEgczJVZNWdRkztxJVOo5eN0sJfzZEqZo85UF3aF2sHQXQakh1T/6EVJzC2XrXX6GJiY++e0unkikeAaceSc+z9WgLcOOSpotha25ODq7X8mP3Gl6o1viqWnGpc9yGMcTigevgCOpWm0eANGxElVelVrW338gR+tOTdGkmt/Hop5DAP3plonMH3kOvkyp41fXN4kTblbjODg89t1VSqV3JPyvl6u71fWcvqwjjGpM7a4JQaT7r06/tIzNJJbmKZ01pwdk1B/NXUUXtO3YxMLXNQkdzQ/rSKKdyJP+oZH6kiHA0HVY9397JYpAbeO2v1ZObelmWhnv+FVnlVNjzDdvHjBp+7vJJXUlJjHm31h+sMlKYBdjo2oAuqk5+tXBMZWPH310z/bliMToEyDw+WL63fCHaAngENLQCFRPiasV1WB5a4fJyn6BDur/FYTshSlCigBdhm3/6EbLktD6d6R6+jN7p9tN0/l0jn1Wt+54T+dX7WOsfEQZbWibXg/fyWgQtt/af5vptT22hWgyj4r0LSopfVAjhpFJCVJ8zqGFe3TVnrg8raO4iY3v4c9PcKEERIfIbdO5fB6orsxzKPzsUGdWPLdvbcXXjDy57MLVlpVLOPDEGzQk96+AvDbz75uKf/fjKbFZACHfVuMzKiwnVzyVbPOJbAG0xfAoXCIy0E9Phc/ngf3YR5EucaV5BbKbK1of3bi+LcB3pXXc1TLx2q6R9jhuwkRZSyS9rMOftvWyv/0+9UKz42AY9mGCkRwvKgM6gWZl1/a7djgDSQ1VYIK7YvrjkVN1IAXm+h2lXIErdoaY9PEVdb1GNSv/bmJ4yTH263vFo4r690n8cAuNmPSD5NveMFY5lXCSkLTHYxjeQB85aImQUVP+5JkGgd0dVgJFfdhkL6HFnv09KlEeuhF4UD9rBGE97UfQJ2mZ1GTm3hbiaPCTeIwuKZBg8g8ZfS4TjIhFTeXvH3xvWcW9Q4BAwdt/aTMYzvIN0sv3HPVi9Kd8xoA/JpoIdLHKyFKaSu25xmjyCeeeHy2Ln6lP2tMb/V7dCwJ8Ia+KIlbISYZOyZpVTDZ9LAYSAcPqmRZix41rbagPZCjUdOI6Z/2VumT5Mbb7R+XnHDqL4o+MUlf1ynPm3N6qUD6oLyOw7XWGZIzgAO8SU2+FdvsFInNmGipIjRO5jUXlgbYB1mZ1gP8NsdTGA9En5gEjFU7AzgKFrCsWxTUUkBgfkzkGVQopv7he0BDjD18OyERKydWLTw99+/Vxk28SU22V7LfhOxqS3pg8nXPTWDBJ8ExzreSAsEmv0rDa95gg2qaIBA+c3fBo3tRE1/EG96MZEI4E1zOuLQCOEr64jCKWfBOHNhypfR28wK32EBZ7yBzD9/REjGm8I3LVM+Va4dIey0noQ4cxuMnf6OTFe7jrotcPIk55WKFzdIODDupCSWpxlzEk2oVr4MQEutAQ7lRVB2VJPvavepSFDzwUq4SDmP/mkuzFzWBuItMmQLFg32tLn1xcSMiTzGUuB57+o6GNIxnnHJ+TpRjrIS8SOqp4IW/fu37uosFnziKW6sDWAE+OM0cnOQ/+4kqirnqH1BWJg7Hi56EVx2XgEuCDxtZBJjXURKHyRcH0rkHOz9GKV+ctdAvo4RSrygQgSNGTceu1a4X63rs5dspCdF4lqfT87WYjIhyxkapbzU0H5dWujngHu65wlkjo7w+SQAr1hez5NDyztYLIxeGTGmdc8BdsF6iCg4gczfu6T9RbikAouX5gvl1hi9OegVwAMfCFuXzxQ2VYzxbG0jicQ/XkIhWciUz7LZCDkYJ5QpuBUuS9ljVoLOa0JAERmPgYA+Z/LUutrpkb7hkMnMrQLNqSLGg1nMbbwsJHcAh7jX6mfHMixdCLmrC42ulPoLlOrWJSu/hc68Av13JDYm87M8oX9xUgk0yLyWf/QEc2vKOkpVWDmnvV00Jie6T7MkKOCpXiWwbCVJwo2TTWfRcHQRHPB58Vqq8r3d34oW/fL2NDPmYXeGrlVWNVhiTNDC/2M9oeZ43ymD6/czTU80JGlgVaYOc2H3QyBRlJmdKux660LsGzROtVVU27IuzcSCKeSKLh3dRk5qU6TOvNL0NonxRatTUwuZ9dI46ZBzm6fhMLYIQYgM4vKAxMNAbkEe/gR6c8bXuDkjFqnvuxunjqqoOmP5pgVcwnMs4Azh4TRusuAP15P/xdoJlIsXuvh0bXGEd9bW7WkZCFucfsoHMoGEidAhKBjS9FneGRKct/CB/VBzLVaCUElvgi0PysY7Q6RSZa4ErsFUFQWWUJYqEtWEoJAYBT7MXUhADBnPQpK9JxG3nuOQ35n+U9k9TKzih+uQaZcg5ZQmOvXEsQax0wpFsiJeCScjpAxID54qqoz9Y3/pS45gRIleWY6MsBQOH215JwG1YftkjPMSBEcPq+ViaOMN1yPmsVYvw60GtXJWTMAc89k+wvqiqFUmY9srjw6vqngBCdqhAk9AnACuX05o1PWacLamn+Ok5SMIekoGDrM4f9UK/n198/rfb7L/1COkP4FjarEVNmiSPQKVJ/9FFOIVEWzj73//97y9+/iulr6/+Ia++RU3uiVfNVqZzu9Z8khONo3I/PkuzwjlW3p03fFrU2sXqJMRSiK0tuUivOfZ6Oi9med90oWEnERznXOChD2p7kEzzQMDRlpwMyx7XwxMhqc9DL2rCQdF1QhCTIfpuI2CVSpeH9nIXo42Zbc5VBfHvjb//zy8BSPwuNkwjvKhJgPYW0fT2pYdf/MjR1z43U73cISYcGrx09oYFn1psvGmsXekWHyve8nXW6+nF/lbsmGTOr7QCBlo9gC+uLZv+KHLtSk87fXE6BeHAFmcCg4DmOS8hfbp1Izo9w/TFJRD8Roj8i6jJagRVRhwfXHY3XFUUlz63hmsw6HfxFUxcDo1DyIb90sWKxpjc3HfEpY9+6vPvL9dudIDJN4dH+q6p7i5WnBDRNyqA9brFQr8eM2z5Rl5N8D13Pqf7VyN3VBcF1tprgNuwhxtg8F2mRNvWeFlVXkzBlh0mEB20CbrS2hcXGpKaEj3K9sX5/6U411fEWaqIOdLxQVs0NFmCBJPf5net/eSnuz/thQ/O1qwQw7vffntwavjqmp5UhnR05Pz1NoR8Tjjk14+g4oNM24H12cx/qEKukZaHFBG/Gb44DP4rYbA7fB88GMDk2Ug3jGJg6AHPpCeAIxnolXT26S7SuZhioOcOBLubzDPUcaYqOD/MRYcRoJN7gQv9SvQZacztXH3C7a+K4f/95042QbSLBnPTx8gpSnXaEdtDy2lMOIj93M6TAMAPI7MXwL5ET4SuguPEjYbbB1Acyr5DW5yWuhwbW8e9qHG7Q/jiLhPjYnsAf6PjmTtKTM9SQIuaMNUhX5CN4sUX06VEgZEbviK8btl6RdUc6uwEnJu5izimw0Nq3OOki+aak/jtlmPD2N8CgzwoDdzrOejAofpeXbBeVFvUWRBvXybu6eqx5z7z8eb91N7qAzboCzEW+kU/IuvI8wQhq2FQICDpNmTxD9zjT2gnDpTgG/JhFjXJPc0fjfaw6Iy3q52qA1iaqF3O0OXYEFMXncnX3rLQxHIvynIwFjVJVqhzG6IGsIWPCfdxmkHi2KK1dHJ8D0S2cTEUCu7GZTzLIRJOYmuBk1kL3HyLzDBQK8kUZz1PGOgdk8xJqpG7dTs22qNeXZ+KaZ+k05NTYcijOF+EBhOgldTNYfJkSB3zkQlaaWpCdheRAcGGowoSkIRTliVuNpQ1Le5cv4T44A0KyHK23N+4rKBsSJluFn9ahHUcrXyykuAYqrrAoTYU5Z7oC7pWxayVSgQtoBMgpS+uSOPiHIr8Ai3rISyzToS1BxCiq5vbxjggNNpbUiqLFd+guU7kL9YanV3N1BImPfXTc+1vgeCkJv3y5PDFRbF6uWhRe/Ki/UFx84HVTExagXTJko63E9M5Jj6rKMpE9cdwZqYoqEZ6dSHuFMRDfcdjwQVUFN7fxFM8wKImJinAd4+OfXEQB8/femRmF7ZTH7b3yMeMor9r2nJcrXe0qjWpksoeLbq+JWETGmt35TegCNYkdimqraE0qDI8swaLdeHiA2V4x+6IWlDcDnZMYrTOae37Jid+rSFM+5byoNW9bU+qr/J4q2tm45uoUAWUOnCWJdQgeaCgHmzH8ah+NOYGEEO5gHPfbb7PtA7D0Eq4Q/zzkRGlj4uCXM9qzJue5l1VBoYXDYo+2N0SwLYqedDF5p/AJxoH6SAqNek2dicoE2MF6jE0nxhLZOTY7oGUmwclfiC4HBswqJHOOiLGBmvO2coGkIYK1B7GARuwY6xh0UE70zo+2ubHsOCyV3SBA1elc/T91sRiSGINGKtPGQv9+hY1GbRAUEpm2vQBv+AyHxA9xVfvc6CjhX45LhEGqXwSUXDQdaFqK6/mejPnHRoaxgTZ5ve5vjhgL69En1jQU1GenNaAQ7dYxxnZvfPbhRWoHag9aqrOiAIKeGZ12meBD1usvAN7fusDBQWsKmk8S0QGdlKrEtpaK5PJRBl43lLRmGNkxMaVygIaLJRmKb4FvFUnv39Ovp916rsUp+wC17VTkRkkUlkwbVDqbp+FtEUQ6f62Mt8svj6of8C5u60kr7yem2D4pUkVw2I38MUBM63A7+vzFchmFE/3A8Pvmg8Mj4KB+YBW/VuodTbCwXvDGxRUJiOo6FBbpU2sSWJWc/QUDluUaMSeYgFcG7Ecuifk7REvDWQBZVMVcI1JdgNmilHMZw5Ppp3YpN3MOp+S1gUprqKbk/a9U63HJ8nIv6hJsuA8koZRBCOiSxsBeL7MLulVgb3JcQAN9e2SxCELfDSSVNwd4aSXegGZDrKanyouO10fa1IIbXlwOfjlwXZDcu8YIMudcrh3biNOJjVJfTs28qlHUAemlMBBl/oUbtnf1dBwlLDtWDQXZzIqhIbTJIrh3oPCWiRWYRVCn4wdLoinkpEqVVY+gLZXwJQovgIGJSCdNXNcM9QaE2Kwmwwwq8KoizuANLz+Q8hPVRxOE27iF8hg5f3IGlFOr1AXyqr12umD881e1ORjm3l12BfkqajhPeiq6nQhwKpPp3DIXb4T5YzoJdn9XlHr2hzcEwm+x0MK/V7pGWBI1mbybKoLA4PXQqbb/rdWyuTsbHEGu7XhIcS3Qq9tNbAvTvZ9PzPe++ATlNVUD74SE5De6Zx6Ka3JvD/MXcQJ/e5YmogH8pEtGOu0wSjh9/oWBXNXB3N2TDLD/6Y25DPIM5kOanhwQrL7r0kKL8fmsvcqVGaBFtCxhcSSAsglGPMkH8p6vXx2L2oCMOhSLsIfpBe6zvQSHkg2KcAlOmKDAtDQCWlos5Mb9AMe6F9S+EWFYH+YAA4PSeCxDG01KHvYKxs/jzlfRjjRbZgqFQrgYLSSPoFnaJnV8KiMbSLxnf37HcC8GYv74+lA9iXJdLXgu1x54/PuLYt9OzYg+C3k94VICUJWE6kqM1uQ9rXX0/pOM+D7idGAzCRO1jc/zZPJ5vlQJkuQR0c5e0QnpLv/hTgua1mtoTiZ1IQZpcpvGIhZNi3etV7h7a6jAA7fNRdsyUAStop+y8x+khberif/qioicXgkGqwe8Lq7T3TCHXi67MIt+yA7JnmQAI7VPKXw7GldcMHNqR459bflTBRD86Lbygw3cCUKXFp1AJK4fSiuRU3MJ1RRGoA/aJQ70/al3Y5Nkkf4jfyLcptDaCYpcu0C80JA+Mwd4rCakpDL7BNbhyvusm1r7sgfNPRGX2BSE+DraVBYxh5Xly8uLsE5ADqRFdJrEZVQM/GD11taLdzlaMjkEQ4i5ItTBydddWory0IuP20E7bUGd/niVEEO/1/8SEoqJqeVnVMsulnxq9xBnSlfPWXJZ2RUAmi0My5s5p04XNglKpe+u3xxsyK1n+xFTQaqlTMW+lVlCvpNF92qorEcHlyMUcKueH+jBfT/qDAMUbt37cxHoKVQgJCrebaTfRPrcMnd+Xjgki1rjTI2E5xQwkDaIQxVUqoTC7226xNrzPCKLkw6F/plw38nMRjeswq0llYz/W/AOQX8bzofammtY4kDXh02Z63jukx0RDUSoYDJ3JZjAu/fesTONEF3h4RbUMfOWlrVWYziqcYK4+1kRZ0nrWRHEnSJnKp4X5Pf+GD//PiZj1j1sNAUfdJs2LV4TFTnynf+EW9khhkmjxTmNqQAF3XoNdoxyT5nEZ7b93egvudlqpcvRrXUZBFSVp0yyeWYE8ARcy49OLUB19y4a/3XHF6ns8hDZAAHYndFC0evFpRfV0cfuGe71M2TWaK2AHSQ1tmTxSpK0yLXpISNOqIX+eXqIz/O9b+JHZNcNOM9jwTli9SzO3xoGW7Xd24vTbjnjpqwyBKZLzCYo6ghnrPOsMyH9KaZktG8VF5Rh15kKrSAaVi45gtIbNMJO7p2MPwxJnQqeMCJgQc75ZVi2fZe86g/Pj2x7o9qZ8K/gIBLMKrTEcABzkTEWg2N/WMbcBEXrl15d8H/cxtyxgfLaSPKUWLzWBOdtegKmSkHlcLZ9GzTNFFZ+1TyucYHltdL4hiCdELOuR2bCg77+kLB6tgX54S/r2iWX7V/Ywq56wuvq9L759pJ7SR3F//YZrDiqFCX47OW+DA2PY7EK1j/fnU6qAAHAgfcd1sal/KqtzWtAyOwI/E8FoeNvs48YMMmD/wTEaTjIF6/Bdd5WvjT4F98fWGOLoKTEZ6QPrOng6KIXpm+6CH7ARzF4AX2Q0Jqy1Ca5BKhG10qe2pppxn7+yhP7ZBQWFdu0CBeVHfRf6BBV8hDiJrS9dAXR41P/BCh8Np/CsCDJ5ytL+qR+/uWWw1038Rm6MTu4o2r7no2VA9aG0sBhepBTTN5dm2BTh9dXtS5cO+hubhlf3l3esej0kpPca6z4LnYFxdHcRR53puEX2x0tsltAOWf3Kwwn/EmrEsVjX3aT9zrxp8S/1YdPabGrEUPtCNrPzcOTElBDIwxhvYUoASWYyO/sGjyn0MQu9uKa3lP8pcMF8jxspNa1ASuY6ZKUhEX8Il+8f2VMhoL96T9fanuH9S5w8WqCrUv+HmB8qYvUEt2VFBm+vS9CODIrz6MnBZVXdoV1g27+RVB9PKOADEzgMNe6JdqkjbQqSJ1vGSGxid/zdtXF++3Wpo1rF1R6ocLnF7JP4CaMB04E6rpFJxuDbbsR5q5q5VuqjL+1iP88Mr4KfC8/bZzPgf5bX7eW++dXyeGX1MskOJaPuVpJMU9YGecfjcqWonMurQHxo5uCSH9/aSoIOUcJAzSu6Tgo5k+QtJ3INP7gK8ziwB7GBQMnC3HZhDcjk38FDhLXbktTMFe/99YgmCUdbC3vEX6jlO+LCiJQzvb4iwr7AuVU0jKDCjT9z749hI/WouaXElzsPoFI/oBUsl3KNaFwBG8UQVB9LEJDCC+wPqj1Fi1bAZG8asP1Tq/orbfcctrBNuP29to6AAORqFpdss6gGznUA0GflvUs/Y+3/Pw/oh7x+ghFgPy1MLqU0FVufTJEmIgdl5LmwmcTtUMkGWfewOtbf7WI5JE6HZsOL7yMPF6YFUMZXKczVKi7yOGMlkUcU3sxfCgjEVNWCGdJ2LSLhhYPIuOqurAK3R2tqTXARcccFGTtBf6hUkC+zyyQvOkVJ7vBc+C5ixKqkiIn4yXzBvki+OyT6rmdiJPPwV+3PMYzo2+ybFexjWiYiiTG7ViPcx6Y0Swakivj3gKsY+BtdFZJHHRXx+7qGbLLzHeU6L4hBY1SagxZu2YxOJD1j3NAuAoXlUC8pdj81WH39wExcg+BgM9twMxdHBIrKJiyysOmw6Ekgt26dOlMlUW4oSVeDj7YMspSjUm+mL5RO4Eic8LWm1PoxXHXhzX49tKEe8PPA2a/xLM1F18XT+0MI89J/9bfSP1ScRXHTorVBA4vbqjXDFUdUp78RnEQt1kE/ytrjKt3kohH0T+0UYqLTuJirv7+rh20DIO0uGL83VhCU3/eG66ysDnkiPgqcA5K386891yFLhDS2kp2T6BAA7yw3t+kDhcvvIwcHg2iKgp3V6uGKq75dSZkzqjNHxx+CDO6jJMMNP75+929l4/x+epEj6ZF8hPpFk5PL44n/V2hgZZIp7/de0rMj5d0dEPo1bQpMaEVw3dw6tcfSFFpsdXHQaOAhSJ+bMc+F9G8EFGEYXLAxjkXQv9Miq0jOQ9/DovDIzWRORY6oMPRghNdVFrnmS5rk+SUuA2uPF/To5/TXnIE/LM98tO/fu7sz6sILaQNSohLwLOpIQzibL8qkMbc9pZIfKyvUeUoGKoVANjAktmcbYF/QI47KxkFE6VjVNmyvFVK+Mb549ThfA4D+3KrOE4veSioSQobkTtb8Atn5Up5inF889Z8ZO35y/HRnN/Su22COK1Yr7Or3wiZq/5GcfkubJIeUvszHp4cEAM5a0gWAWAeiPOpzAfJMOabmhqAzWv9N2XSIs3Zty8XDyRp4kjR8hdYkhf3Ef99fdvXKOiKVZYz7zo459QqqDn1q559bTPlrdttLXFpdQnyshalli5bl/5X9sm0nUgdv2sjdrZs3S2VAx/olYPlR2iUEIhC68SUHalgk7eg/6h8fIesOyFfif4CMcUXFDMazwSFhs9/xVyJT3z/fJT/vj27M8rDVgM7gqSFZpAX/0nzNNOt9pYUG2SD93LmSdMKBDDzAp8G2opJbqBp3wVCWYSTLWtGdovX0c4D+CiJiENcFdmxVCWWYlDTumL0B/1Ji4uVLKspxT1nbvqZ7M+LEc9GtH2bs4itWLwvJx/Kny84vl3y8jLtbkdcB4jLpfdwYPHjCpaEHc9Sv5npIID4NCksoQSMB0UDEu6VF6vzh+NMMYkuSwzqYmoLW57xQHovHg8pH9QXsvfFTPdXpZyhT0HPIaqcgh4PtMvhdd2ERMOt/WnxcjOVV/L2CaYeM7jEOXMLSwVJu47c89GUY8QSBzQ5zHYkO0cLQr4kZ5I/hJw/mhGczPY2TUam2GSQoxBly9um1hWlNuwtv6uIn0d8kkxdLNErrBngif/Xp9bA1D/JptnSgFl4Zzq6+bftM//9BdLxdQvF2iDFkOIU3RTC+Obs9JkHYh/sJl5jHC1n2WIE/YOtabgwAohLuwylqdkW0C+63VQui+Rd0E5hYKsXIrxE8VZqK8QZTKKP9EvFCEB+eL4ATHgEXpJ9w26SQcqPDCSnrbIjYXJBZy7mtkf5XimmScmEQr/xKATftvB3f/4GyZU6AdDSlLum9D4F2lwKUpYDUfDMYHGQr97Y+7MdDEhjXqVMacQWSeGPwQlpAnRBPWiutSjwuJtOhdSJE++HzFnb+CeB0VDI0ahgmJtccRg/yk4c2c2BSLZLpb5onF0MkeuMD+ud8XWf/KGtnws3ObVvhDnaaS2Qjj0aRdxgPGgNVksHITicgRwvPNbstku4rsAYGb9CyQtpndKZUphN2WB8gPJYF+T56hgzbj7L2pyJt+h3UJaFc8W15L2PGEco7+BZjkmKePHPSUOmd5csoNrD8vtzMk8Mck6vRQ/JCzHhltgn6Cgmnt+aQLWV1SX89OKebBvvafj3B4CruH2D3Dv4X3Eh2JRZ5pgPLSTrXRi0tslhcYPfr3THM8LirLTODyDouIYf2Zfakr3d+ZxkfSxUxbqTH6ikMaDhjlHWWpNEZPlJ9AbhlJ/b48Au4irc5XAYU5kr2GZRcHfITZDnyPMcQ2jXuJoOTaSeLkj/9wKk2dUiBaw0j8I03vY1s86eJNFkW5sJtqSsZkztjjPfJvgDW6b2xW0qbtY8sKxdLJADi7ezKhs8U7MMYj3/MQWY9a7XHYQ/PN6or25izjdI7Q9uAmSBUD4QXgom9OfpUu4+wvlvQKr7W7qtktYV4flaNSQNEBZH5M7xQfvvFPSvh/p82cOXXtJe6tOpkelTyst/1Wpi1HMdoXg8JBa/SofPWzyaQnZzVIJqNHxicMqq5nc9yyIZEY+wD8DHvbP+9qKRBBmEbZDX8hmv7MrqCMvfHAfIwpnsGbYZgGqdEXc12vOGBl7+MyjP2TxBw9ZffEFMzdUaZIxKPiKXKVmiCEfaV/T8/cq1jVWa1RW6ls6xOOic4vkdIyrD+VlO4IYfAIY9qrTdLQLx/jih53MwKob0PlcGou00vYtaqIoFTCUPZwxgqUruPoZdSZ8Aqsg5yv391n6SxVATRTqNSUbtNLi/ZyivfMjso75HreeHDrOf/X34P7Oksc2KJI/CHLE1fZ2QaaXr2Hv6u9z2JNdvHCIj+fdWCU4dnRZlvL/2MVM213qBy2FecRyvuDbI784YkcbMRLC9xIGvpewnr1AmN0RdAHzOxlXAafsWE14Ql164IvLXaFSvYBcAuZllGwmnmYWcMzmgXMy1lW2wRT4RUxlZyHVhEwoP9M7Doi5WuqdniU+1dUfJ7iAcvQJQWF4amDsqaucE1kcwNHL87ce4Qb/Kk2zYcqD53k75IU4p4QpHR37xEmX7rWVDlLayFbq6qYaC1sendXQlz6dWT/OLWKKGL2h//wZ6ytaKNBSK1ng1WFrKjd8MeHjj9BkSXhbAH2TOOBl2XJsCqMW/USmxpckASSB4ezcWRTd0GP1QhTKFEqifjHYWJj4pMLAlozSHRn2zQDwUGG2bJQyu9n6M4HVXImvHgQFLNTdu3+OWBMlS0iGkMtmxi85HuCKxLdfGD5GuebHAz4zFw9JpUx198/hi9voSjbmhNItiGeZntrcD0GcR1xPkiRdgOEk77yEnKDWyv37KIf7vD+pDNiWCS8hGZAWOXNRE+adHyK7O0vJKJQKMjIX+QOBgfGvgDfcYsSiDFj+JYL1nz6/PkhJb94zcHrS+i+LZqjSK+wO6A6DdC70wxnA8Q0YTdLFk2dDV7dgRFANfmJqxAIDONY7sJJxqvaJq/ehXy80SE+iq8PiTG1SpBa7CeRBkOeQ2MFWuehogQ0Vq7Hadjk2wBcnWyxwPEHC8bjgcmE8P1BZ/95PLG9MEmgJlbTtoiqpD1wBHAhIquQcsDT0ic3HvSz909Iel1NeCWoOCgDtdrLKz0/+FSB5CpY+th5Sxw9R8SQGUJdDWJqxqEkA8LYavRIRl0hkV5Hm+RxaboaISgolfyP6GQmz9JFJZapPX/jp24cqboozKW/4aI81tdpC6YvrLPsCwpt3xyQpVjbxswJ7KSHg2z9D22V7wcehioqIk5kKMRZ5OzbjqYJLOSFWMI1yB/430/s09NbT+eLwvxnKNKRVc443HubXIQ3hXA1xTBf2FnPELDhVs+ZJdF3mKyp/QYQPEnd+NN9OGsvj1DufcmJWlR5D7j3CgPfEJJpz/RvZc/3iDeAwW/Y/wL/xbx8qdRswhYszF//w5ss9NkpM4Bj6dmy4zrBR4+kVgv/WIzDc9W3c43MU0d+fpAr64q6ofEwHDjrCuQPzudgoQ6SgCjjO0FgMcrK//veGkM4SB1X9g52H3NtdJUvgVGRf+4ES7wgdH0I8pBRDnn64oYDzr5WFXfrwGHEabtnvo5ghPKkJgAbppTyAPYdsceDqiwaE7cLiX3+C4CffgISBG3zg3NfTbd0fVGAVkeBlJ8g0j7joTBsV2E/voialyAHYGMSQgDs4FxkbMcDoX3s93TQzFY9HQn64fXGP5NseRrvKbAW860MefXTWP0GePkCSCflWH4dPEecz1cUVPLsN3PyJO6/u470NxVnLfnzThf9aUqtAMVcVgxL1LkXM/aM27kWjiiiAXh/XjQ18sL0+IHlj+Ywm9Ic8iDXKGA6xmDzD2JgFWgL3c6Cv+Nzsw9hCwngfGnIijAH+y2C/QeJYyHS3VnHif7OqdaBIIAgaUUwBIeQOoHHeoiYvivLtrTuff/au7oO2qEdV99AnDu3iiUJybEzyLh4UFGR5u3Gy5XbB24PQF+f5Q7J+eLBFTZo0thNyb8TJl973Ks4EU4pEehpk9gwYP07+jVCoLHVWRC19chZawX8S320EbQWp7uYizruWCzQJK4xkKdcW987ik5pg973DHMwlnurqPung9ZcMjNgNF2z81Wty/kZJRGaYRH0wFq7CCAzvcdR+4jHR31Re2iunDgUOY585JEqkuI1FTaB3EnIooyshiFnATWLeSoC14BpEtdl/VNZHVuyy2QKzB0rokwmHMsQqZ/rxsW9B+5WAct/c/ZmjD//1HUygwQ7gyEBoAIcyw4zBLq/ppbu5Tzlsy+WvnPIZdt1uRnWhuh0bkn7n7enrTQVwHDxpBhhLwE3lBx71YlwkWvMXNRHO/LW8SzcHtkWHCeWH2qIaHS1yu5iLUGc/CM9EaSYBDrFdJLcDuueKKA+uSAaJ414IM9pAyH1zz5d81aFZi/WhA8YW53gAB2kBwsGH0+XYhHE7Nt4fTSmgSl5eFLxckKJ9xH+pOXw7NsYDd5rQoib1sCHrq+8uyYFAJ+KdC62I4ngGeReL20QqIGyUZV78x688XRbN+kDoliy0kNycAU+HYTBseQDtBLlubFmedyXntct9YhLb3AECOGYsagJVmCYNHwmgrsoakifkwiOA9lucECHLGfHKcm+z96IjpxTWrxACrY9rQkt/yy0YEgmz1tnfegQ+l0S2qlqBK4XBkc2oj10sjSGpXbC4CWwGcLSednlatVHJb8aXcbzLVz3+3ZnNpCbJ0tRYGk7WMrdyRHoJ04YskS8GYEwOUg1/dCccCYLPo7TkpMUM0ePGOybx2AC5m7kYP0I0aXBEITTR77q8aEDO5J9+lPAIW+jRvAfKV2bVxLcccWRqjQm5W62+9ck+dM+rXEttcQKyqKgEttWM27GxWde+EcsjzxO6i9BAbl/12oUKij1r/ehiyc31h2Q1vAkoU8ziVkQPH7oJWqB+bXcgMoAjvSheJGNI6RQSp6fSHrlKj7lRNHMo0mpaxHJKDSednz5Po9StzlQ+UVl94ZcNCJERfYq4uYuapGw7chleD7kCo4xHm6g2Yl445qI+IWN9IT2/8pAQrFRKKY/FfX9euL5WVICciIbUTRyufPYflWCtQOVTsNv163liQIXMJfKsCUeC+WlQ3HYe5akgvqmsnJo7bbEBmVtV+9DHUj1SAO+JSWYEcFjmFkiWZ6nMmSiXUIlI8iu0eOK3TYjU4oVYXlEOoVdP707fFo/6wqXo/DrcMUm5EvMmm9hcDrCf+dCiX++OHZMkG0bRldlvHifgf4O+OE65nzHGD7BqYhVHHJ36FyVuV877y/ljfqXAaxb9qChgBHA8IV8cVqbYB8qV5J1YL/tF5fgs0FpaiEzdDy481R3AV4cFivz2rU6vN+wTVP+rBfmZxqp/Bg5KMhKQ/CdQhvlcEjV/82WK+seqO158XLlVlPDFTWD8MMht4NxMIQiDIgpCzNQa3vr8jHmdSMNizfDHfvhISkzuAA4js4pSP1wAnqyhivfEJC9TpkcIWcFrq3ifUzqN909piNZv1mftOntbgWwdhMONwBeHvkWIA8g0sIVNutFNQuj0GJ+y4hnJ3PZ+KDKE4EboqTCSxhuUBq86SEoWY2Bwc1k5I2/6/5a1Hevw5YkHXrR/YhJCtaIDOETH2khSgW+vYkocGj+k4RpOWMkzl7PuVPVpHbOiK0kxzDPJIfDFkQjaol/ZyRpABEDYpO1bgRMFLgjPvk7eBb9dImON5uRTsCnXg3oYy4XFEP6q8RUccXjqV3o7Kbj659nnJv5c1e/s/C7WQr/fxs+wmM6/HRvuPUYTOAygxK7+YmccE7EMg1M/fTMn9+RR5TDifL44xwcaTYIT/YLzSxidEuQ784zF+s0qoVX4wqXpHzd+alHGnNeBFjVRreSQtIMPWHJ+F8UECfjDqrvuAKPuHLV7FzUJpbMq19KEvjan6fVSzc50V29zn/Bxwl7LiQyBYlC2qkMXH/vi3Ldj0+jwxamKJ9GqL+vqsMeC6kdii5ecygNowI8HCZSqeq/ahIE1dzBjzTNDqKF33ilpxpO2Xt3BarRj/AHJTd/WcWrX07sT31XzBnBsrOlniXq50WaAYMpi4VBJfbF8xd3VCad3bZAL+e3k29AcuJyd3qcCndDF0BWpiw3gMHJaeAj1EcX2ADsmaUxntRzhSA5g+PKZXSqMgK66Sp3pHleIKgylTfoF7PAWuY+8s0P8xFN2JzKOyTKbF8CxVfkCOMxqIf511JUFsj3rdmxKFbMubfmkOFJxp94ZpycEp0NBKy9vQDcbVaB37RoVRcnOuxLGzvRpSK8vzoSKiuoSyPFed2GHlMqKgr/62usM0R6SfvCBSy7YzHm8I8SJ7cSbb1GTD5OZUJzOrmkzsQ90OzZdqJXp1/OlL0fcH830v3GV9SCWYJ2HtPHU7dhAnuBf/LV0F01fHJuDFHN2TMKGJYPPwyMYqOq+ef9GVnB7oEX4D86CYuP9oM4qiQM4KF91VViD1l1S93vCxis62Ix2gNpq31gXXsim7YKFTUj8mOpFbVvJYm9fwu3YkC2H1GflhGOjQmnTF7/iJT4wCpo8wTICOEKeLY4bHiR2+OJE+eVowgvORNW4dPSfuO1pnWtvUODNjsyw9X+/U5VQb0a31j5IiZyUGJbZQrKl3/ZvkfeIuDfxmd98Zn9yBHBgHG6QQA3A0mYonRIaa2mhb8fGn9CyxpB5reCGkoRPEB17aEECTQw3L9qkSMFihdbMA1Bb03F966qXz+2jp/g2SSoUZwJ6E0oNAzdAnpBSGbQbHa0cD5540IHLLtzMaZzwxhakCMy/bBOZjSkEKN0y2g5+wL44pLOp9PfgA/1DQnIWR/LNQ9R83YS6IEI9GK8XPngAx1QWKMYYNDog09dv6ZNKSjFCi69K+g3li8O3JzMci5ooo5jRnZ5v9K5jDzhs/WVe64sVXPmsFjWpaJeE6Rr5AGchrrEIB2vHJObt2LjfXvhOLmqi+JZaIH07W+DeO1LtrHr26TE+jZFS+9QG+am/JRtR9JF3xyQzaKFlNzRuo5Avrmsc+spHxSgxo4gA+nhu4+UHI3gq8h2bESqgX3x7w/8BIB7zaO6OSfaxtFkj0+uel8n/pmJHrSthXOL+FgU9iRURvuEP4NC3KJiu4hNoSDn74AF2TNI4nJkmQGBxwG0vKaHCFyehVFgNDuCYoHiGImCl00e5tdsmFnKOFzUxAJ1wc/riIEBHldQL7LyQflUK+9kX9ayK0s62eroPKnn66Mi0VdQWt8+A5twxCemCNkgI3kwFfZOAHVFAyzfQFuhsxy5KDGowG031jJeFqI/H1jPblWquRU2aflWlp8OXoTA3x0EXKgdgJs3W8M86Z0ljtSjL3CafgnbJvn5LV5KtDFnassUpvETz4PDFWWwXPNGw7UycBng9d8ckTMuZr30lVj7X2IFn8kq6FjXJMTnZaPT22NrHDiXwx2DRXtTkHm6IBR9qbjev4ZGRxgqDh+7niEtTbdP04tDNjH+VO0A3c1LfonxxcfP64mSyznySIFOQ7DKBY8ck6eg0edZ4ExELQrvsQIi2QowdDdFCXgmDZxDr47m1D07TveWzvlnvj5jyeOwcnryCrgAOQVJsemkc5B1KKBfFlKn38B+2JX5J/+469eZVM/864/ES0vIxDlxPmk2K1P2hPWl1YQ0tC9nskqti8HiLZAxfyCalvjCjZZtEF2AjayVArACVKChGXn2U2/hg/1qoVRnPegiBKntRE/Al1ZqUpAT+A89odTUgJyha3L10Pr/M/i14t+7i5N9MynldFaUv7hYyyRfHR9aOSWBP1pFeo8PiRT4SI9v48cVVa7fLvl2oBquhL86/qAllpiCMD2zKBV7qzyQeyBfXIXkcyW/vzMv0q0fTvRVDxy6Nv+z+Tdj5wjlBPwZtnfDFSZhh8vABfHF8Hh46H8jMUSZ8qSbOtcYbi3MCOKoXHrezYKDRW7mNeyIFuewr2jHJhnxxdSTtTAccJP4OC6t+IDovosSxi5q/8Jffv7Ebnvl3W/ZfuRwFuVfGHy3Mpx+pGXl4fHHWdl8I2o721qyQRy9YmS1nnBqLpjRkYyh1WUI6CyYuhEpk1r3QlH7IqjNLG15xuBY1kQiCWAHXoibGVsuShNxeappz09HFcbPJ53Q+bDVFDGMaG61FTTy5OA7gsU+HbvtGjzr9dAYYLgib5OlJnbEFVoHin7r8q2ZffIrzJRhrd6suqVXWl0tMf711EfSnTa8HDOD4QGcAh+zZKJO2BwA6WYZBztug1hhDUzzpC+DAT+OALVGmLeGwqGvHJKAuBUDr9gwWUejoW8QBHE1DQZqQ0swWs11WL02R6FiLmsyGZt2OjXMXcYx40tlVarM1hw05kxhei9dsaEVGYXD43wAcfT88TfpUa5gVng/eKkd9sB4VuUsUuyQO0hLcBS9OjcGVX7uPpWX2ee+abQdS5ZVIde9Xj+oOQCSpuTXVNQothIaIUOOl6fbGaMMGbIDXrBStKAHmX72LmoDTJzoDbAChOzjL4X4PdVOPr1OWcCvc0EEcVCP7AuenlRbUoshxJb/OPaPFHk7YmXvqeFaBilo+gyL5g2hYNGGjWtgX54vFa4s8t0W/wfgeHViZnh8qZcVQnIkiFZegCuB4kOUzao7Xx9VNN4x0AU6vbf+MAjgQbJ+azkOjm9rJ5eZHMnWTGd5FTdI1z3YqhAP2NACcHOGn7w78DPYWIZefv6hJW+b74hrnw9hRPOvmuVh+lK67QRzAMdgUWlmieDu5dy7F8MIuSSFtBj0OWS0l8sVW6ZDF4tszCGjJBvFyJbPUIj6dvazl2aKUzf17oUJbGHikRCtKfBZGgRwmNhWPVYan+82exMnb+RTIaLAgGYJ1dtURB5X0fzSJ6jMxyh/AoVs8s2EnjYadkTYte3Uab52s2hKt87lcmFAUEAtnc/niHB7S5hkJxew+OnKqKVQujAvP6TrION2pnmmDdQOSgbovJRY1KfcbglSL8g8W49LKvagJLH4lHteZsWOSDD1hCSZK53AWG0rrBqzbQEIgpaQ29XjIHZPg1zMODtkbEurpLFAsI2TS2KWyoHxMMKjVR+pZRrta1CRcCQEuSUYKZVs604te1GRmAMfM27EhMvD8tA8PNQYilYWmGS9YIw7SceCb5IEeadRXNMjjsNfHqv8gSKLqOOM4+foRBnBo+ueh8VqzKX4vn946YWF7N4nmgrrJwYpSC/0SeUidtyg4P4DDszzJZZBL0nvrbBkwBllyPIt7kdHkaeAjLag42Zm+OJWc08QTqKscHfsCs0cQXsC1R8EFJHc+a/2+z+i9LhItSoeOfrtqQn0EXtTkAQM4GvTtwbc4zqT7L4xUGzNsZmMvqDLdDV8cmwcHx/w0pgOHNvjzYUEj+2utgtPxLOkjErWJHYaTlk66rx0oCec/h+oArkExuUIXr1U+9O3YkKAcYHRyum9RI8FoaLD6l8uOSYanCj4Kyhemd1tQw3Lb9dpqjC3s5CPXHYpXuN9ZGiKDwqECdVsryj/P5WdSyZLbYo8MA7L6HBrS3XWwbDN4mACOhol3RHmTV6/aAkBU53iDnrywfWILT6a3inI9QUbVB+4Le8+wcdAL/Zbeenr8iH1xaMbiTlcAB0LRKPES4eo4yVs0a1BM9PIMVivw5oNS25x7u1PYRvHxtfo8Lt4ZOBQ+QblQN+1FTZ5Jqrf33D/7YD0VF7YdT/pJUfGOpclh1IoyFjVJuwNQSvxNE50r0eqBDXTpErBVacu/UbE9lW2oRU2+5B2TCK3lPnFnlm2LHAPjVkE7gKO3pSn+TC3SoZyStXNxzwQTaL0j3zXCuT+KRoVauBIDDI4ADnir7tI+h07Jd6SkOj9/JV5OfsvI7d0BEYQJEJLvLUcxBFJAMYTPCsrzPGC15Twvhhe36vH5RZCWj95TNbsbko4oDWoTfpfgB7q+/vEH9ip7UZMhcAcmA8/upQ1JLVINAdW6tE88QV8chLmLmlyB/03btl74x7YX/sffz0RcYA1qOneWbCkJWvT2jyzd/I7f8c8s3/4vYN5j8jtHbmsyzLaR0lXB4FHuFJllUhhiZjxmUjZjN1pRb61W+3YOAJ7UJybB+vETcFI3Lhvw79vPYhQVR4LMHfjiFrCoSSxTm+j7J9EqDynYuQ97oV8cwAF2TJKkzjSbJ4CDXu1gCMsiW/xhFL9CcGooRdSCrJqpgW8r9KxD3bFBLze3D2dYDGUybOlZ3M5NKxi7wXmvJZtPM6Hmivnh/pCsWqy3ktaY7ihNOAzNiu+voI5ItMgosKjJ2JOHLsagwKE5n2JOoH0uyT6hP+t2bByLmghyzvHFvdjuP9ODLNivyCza75B/Ogfqzf0Pvpmk7/+PeY/JVYzc0Xx4qoNj6GyLIEXzyh3zl7es0a93FoNaw2doIGmMJmxwfhrT0X965Nqfr0SaRPni4kacKfJTzvDF7RxrLM2dkJxjcV3YRJlR+V/QAfLFPQ/Sc5CYt+o1gZ9cJfvZ/3sRdXjHB2KFOBYaJC4whTv4vxpXfmn/BnunZibjJaIFAJyO2QEc2MIDEvq4dgooKs++8UmuL0WJIjfE99JN1RojTq1W77GkcVuE0w1IqLX19BLmpRDgci22KEvwcaczgGNpS5t3AMmsuNNXThBkk7SXpJB0rLF/eY89Q+jrDE8xeD5/UhOcjy+yqSUAYcTlLqlk+OKAyEAx6pcIXuQ50qD4WiB2MLhPtWZx+3li4V5f5/pJnau/jvkjSlDuBpVFOOsm7ftY3iWK/juUl2gtsqilyNyAY6mUT7DIpX7gDz8EfyJ88+U92kjd3c8VRCWsXh1jdfzgARzkRqTEKsu2RcrKlHTMqu2hRrj2RQr48wwSTfQJ6arzaI/kqt++BR0BHInq2MuP9kK/u+o1zcpnV3VZEbSpJhYW/3IHlIMjGfHNaf9mYfz6z/jl/RvoDthHN1kNQObctZX2ONcXRyaoHRBURfE9i32lhOgUg9UVRaUKWX4aIQnt5fc+FQ7gaNhDKnGJUj9sDykWLrfiLobAC5IZqIh9yHZCxinUpaouo1dd9y/xUYL2Uwj4XFnMGKxO0q6Emty3CZGyfXGNCtqCyJxLmIuaiJ/ruVSJZz0ZYwU7JtFFFzhcQyQpFmeIGYuaVEzkiQkzMcCFktvm8uZlIk8FIkDFICWl+prWjknYzvdHnYz4CfP8ZV5D9M/TgLSmTg4f4spouz01ivAvcN/pVVxGF9KRz1XLUo3h/Uw0m1XjuWiKLh23YzPP+PSMVcNGl2zOH0ZZ2yR8pWnRpUMWKq7jKB5v3gh0/1fy//kSH4VvCwu8fVYAh2dRE0PBh6RbUjjIpVPIc7F8HYD1qG63knyuTS5q8sx9xuc8NYFil7XD8MUJ2vNYYsotJhRy9/riusiJRIR+lzBTJ6wTr4PcE5IZv4V3TFLL6bSc1M09XIMuuloRYHV9oF9GAMd2D9/ePKZXg6YXrpZJ+V28TrwY0olXHO4yrMPNj5jEbcFJ4lEF475giPjTKp33tY8+2vkdSH1GomEEcAwPmXW/BG7V8rSurz9Xjf/LRfzFCq2eR6rCgCw8qJMqfCquFmYb3wSMMmr1JbwBHI+/EWphkSBFDVA8d7MjBE9AASuGf75vmQEc++z72odaZJnPHyUtsPg1HMZnfxsRwXo6qlrEt28H95yZpQbwODlRKHvBbvdgtaG4FqKQgU9Naytshh38aCYjXYkSxd8Z8gTxWNwvSqKV/NxFPw7kY6zJMqjNsA0uaqKlEQhwMdFqexp2ckaecTr2qTzgj2QwnocamhywpgxhiZx/+KHuj3gHvjk9xVt+uf/md5ri8qPbxqGMAA4TB6CxhMJVv5mqgWmUBNH62FiQQU/sqEZR74rt8D6BnD6qGTtlUgnpLumckuMFbTja0/yWIJ5ng8lnm8WWO5FdolZHDGLVVFLdphDwNrXJx5u3b+LtG+Zx5HjDQujmh2PKwvd9a55Nal+cb34aE5yKqsj1OX6FxMOiE4m8ARyn0IuanCk/Df68tvIfKCiVgedR28caw9N3W4vGIEAjEVVOYACHYfJo59j9chKazLOeoPVbZFc7bQXeCH1xEhdoDla0xOGOJ31j9/ClJrRDmyAjwjXLsj7wve0gbruHCYOpbnQS+eJiIiderrM6IDNIVhbK/0FjY/0R6ZTji9LcgRRdkzI0ylqDgLXFUetsiIjjeRuosJJhfNvWtw23Vv5/Fj0SPJOw8RcQuu4CtQFUtPppbE50cZvQRi0E966ER4FgWJ8XwLGwwY84cWK3fHGXOP/qI+nI6e2kAi4rMAruf5GLE6xK7tJMpiXKtEgOtKL4gp0sO/+zzROTpOP0ktpOcXcqxytE1F0vfAv8b55GZSLkkKRg4vk+GodMJqhsiU9jfdLPdW+7tC48z4vgRVFLi+e1eC1RhL4+zxe3p+EWtraam7sSJawUUf3WPKnXn0UAR5A/d0Img4yBApTNDKLVy8EfDaOI4rL9HdKuXoC/CVL1qdEzUvvefbAv34geyqVzfQHFdPriutJMEq+KUkXcFCYqW63S4B5uaY6vDTCBkms9T/BT1Uv3/DQ4UnVVgKkjvexRnBHAobtRL7OpkrOINbaxoI95cvDgC9niJhB6xrA7QBSUes587yAP6exRkJDM1JDcFWwSyaqzWV4MNbS1putQXPzKRbXaWVfkDeBIWiCMOIWDUvNS1zo8L0XkpXy98RCtRvqTUsoSrjGysjW9oRLLF8dRiEYlrC2ueHNmNqj60lKe552SsrGL2rNTI5mazPgPxlwCzzOpkGnLt/yWwJNUs+Aizv7YDR8+r6na8aP1wsrRCOFnopNpeEgPLmh+2kCZjvAFcPiAnDXWrkyIzMCFZHG1ZfhXBp1dxlV1Dn2LDDSI97HhJwzT1WWC3dYPTuhRguulC1gBfqjQUqSbpZ5Wx5NIGqBfjA7wGuCv/Y86gytKpHay9+AtzR5DEccsrT74vQd8uPOBmQL1YZwcUIt2Uk3X9x3URx5FxsTpUxPwc7+vB/BUc7NpNt5O7Z1t0gBDwzfo4bflHsuPG/HvkTgm8osTL7wMZZTmzevm+cEaAnail4u7Ne0UCmRHKonpIbkcFjVvx8bzooEpCVF8z9HIFSQrilIzn57T7O2NKFJgCQuPFGJRZB15oGIWxS8EtjbPdw1hodM7VLWasFFomWbYlExR/dqeapd+q97CBYwsMinM5Wu8xpj4Ul1gfXb44vz/8LD5R+46+4A2fTsAzP+y9hOyOpNh1HJjCFoUWgVnIH2QrCjlgts394lc300Yntj4PKHbgbMunb44TeUJgyDwhs9HFP/xVVgtJLgZZOeJPm5NJUpdv347RS1R5LFLwGmJjEVNoqTF6zgVyYyxIK3IA013UL44XwBHr10tGR/Z5rukjHdmWFWEp9B0F/TJcGw/yrYoQ+FHrr6bvDOkuh8Sh74SgGvljtz9XaVFodUF24GSsIs/dPErlC9u4wToE4EoPh1UPyoE748VZrYZ7WG7KkEMct/Dui4CiXVOhDWdrJmp8XU4AAe+tRzYF6dsvCM98JqxblEUmfbyQQmGx3obRSl3TMJu5lcCdkcfAzmMkkvqqWnfHbP735G2+lx73ASexp04kHAGzpPyxe1km+EOFWjVaSpB4+VFWryLqJCOfogk6mVCUaDVwdFOLgrvyCLMcsYJf8t9l+XgyYhhkOvuYDYPgIDOru7INBVWOgOCTErgUhIbmc9xatULvWM646R/5uzlRnerzZ8fd2ep0GbRqnO5HMnlXesBsOzbIMrdgd2o2P3M44La9Z+AnmKemESWn4EEsVH3lMTxRe7yfJZ+aE3/rUewHFYAghtkVpWgWpRsPXoGAjFcTyxESBbOg5ObS6W8TFW9VghdrSa3EpHDp+E4tMWR6cFAHjpEowNfXGyknWlwl9t6khdc9r69o+v0Dz/1Yzv2nwZEMAZr5I5JgPrKDUGhO/j6vpSfXcAO8DFaHqzRjpCqF9WWFaX+MgeOQz3XYt8WzlLcK7kuLfwH0LbauKex9fS/IIgrUSAbWuLmHOJRfzpiNmIElknaAUScl4jpAFfybihg8T5SgD2CClCQdnDUzEzKhPbnx9/50qT72wodTOo5Jv/b5UWV9LdIWVdyP8jBiCClZ8348bUb5xn4xEKqm1IXVCCl8YqS8zvQRRpQgeGqmxkbevgjhtnkYpQhhAt8gJJKDGWsjRur0FA6e/ZCv6fihBrGphQKQ/UOm/owLtIRY5y1PPP7pAzgWIOv/czYWrHHh5n20V3c94vqPVSAMH1C5i/MKf7ZGUOlgDCdU58u+LRuH2b1FxA8Q3W/V1965VK3CfbpKLxwAn0CqSdVqRsUrIbn+xqJRNjcAzHcjrIPFcPbYnzA0koMxUIQtDCBik1qckhCBHzxfY1CwglHCpTVWsPhi3NcO+49n/WiJnP+vfE5Mbe+1ZhHAS9DihK04B8a3vHXNk/+oWEdv5dP9Sw8P3bvoxWt/T635s2NIvmDb1/zLf56TA7RGxnF8sL+yjIoSLuT79hDTkyYjJOXiStGYjUK6tWK8la2s1YMdwk0ecuLeVgnqE2QxtQHLG2KoZ3ZKM97E7lRooESHEN+6gAOl2vyhZ8FdRaQuBnQoJL1el7evhYBHH9oaNkHyjjRUQT3w9wGILwsMyjl/KGDqewMCafuWHxmPOgX8xrWfEvnjkk805/J4kP9y5hwn2r+2s0kDd9jKl9cY6msJobjFM2pd/QaOVewyXMa0gcUQueh4+wqPRCgy4sH9MVZ/mKIjnghdWrZkQTVlo32WDWj3rYifx9fP/CUk53FRDHGnkL+tloUwDaUIyi/XikhIdbmg5+APcsxNsWx2Iua4BcV9YqRm3/yw55cAOe1eqyUA9TABQgCOPQLUSZV0ToohjMiq4mH9QuGQZZNnl1ICGFR9bsRtPPl2DimduSEktmDUj8+EAYKCLJX864UDhuaj/i/k53G8fbAsULbfOTxVPoAbQFJmekj4TPIr/mWa9CiJjMCOJSrruZEaBikPRy+OM192ZIL1kmnx8ElSSpbB8Rw43ounKhN4cE8jIIYqpqHrKwjdzk2Nz6P5yHKj2CZfuMDTwDH5o1nFRh+9Mx+pI87jZ6/TshNANQBmm3jua99glnTn92/xdQCiZYyDMwDD52VL655XkXzgBjmlnskNY1Aq8UKiKHO2PI4PD20ArwXxWKm9CycDivAWQi8lHCFLH7olv5x7XBRkwqW8Xb7pNzZu7jFv0wflIMfhz2LTWssNEapClRqURP7gxCpOw9Nd2lnNVJHlXkeA9WZFMdqZuFSMaz6tOrmonpDGLvjPUhB1PRsWllQid1ybCC70SSPClI/lJysSma8H1VIyX2ARU16rcFzk09MH2Q/Bjz7o0ibm+yDKV9cqUVN7CLvej1190ujWnR9jQFfYIJ9OzZqTuUqQU5uXO8F4zDGZ+jL0nJyKCqImp4R1pruiS7HxvbOdqwwOrJ5aA5WL4QBHAtq26q7dHqwlYslgumznQ1cjcnruwfiWe1FTXbVPNxD7N7HO+Ut3fGEgS6gsRigK50uX1wmM/ftalGpHK5tzn8ngOWBKoD5aF/KdoAYFrxdV6crgIGJrPgMbXxz4KBYn1bgBBIXnGkJOhUV9HXmoiZvTeuuAyN9cB/Fp2JPU1aHOblCJW4UWxHPCY8NUactDeJwyKvDGuO3h8CgkCZdWLuhomVAEOpTNVcVTQJJwOF/N2AoC4hh0v9fM2xPRg6F6XqiK4Br72QS7SPthY5DOd7oCeBIbwBHaOZ2Z/psH4c9Uw7Bf4Cksc9a1CR8nzh7KPK1UlODrvpSAYbfuCqNmcXLRLmo7opj7KrZxSIugMFjgd1RCGLSf28YBaP4FkNuOrfpPc9YdZJwkNgP19g10Tpe1MQbwNEMg9u/WmMiXXAcPjsOtZ/UxLXQL+FcZw/4hKRLyiMmNeJMr88DthEGuOXAM+IMXT6b0Uv90qD46s8hNkchiMyUvF7CtbTl2ABYAELFOJBSIczUcE5JEsVFXUHOXuNt1aogwPR2xteU9MA85BrMKzE5yqAEww5Km+NYmlbmy54wUyecFG13Yn/2BgKzQKZ7AjIzSw5QRhncsqfHgWQeGrcnxu1iLlpOWYbRCdkSGEb0RMUpm2WwtndTM6ljtjDxKXjY8Ami67PjWsvu88U5Rm9hvfTMTzMmkyni/M3Lylhs0nVUMS+BMhadgwK6CehvXd9aBQrgWPmRO0zGv05KEixqonxxmlJT5amueAJ9caXI7HlRNO/DGjfFd5UmoxRPGIXWZgO6HJvPs2/HRrC7LLwSgsOZS9eiJjfSfgRBMQ9kiynubmVKO67iT14jKecR4FwvKZXORU3WfLiioBk4QxrEuCfb0Y5JhqMf4uE45RfdxCQdJI1yl2PzGU1P9Hw9ZWgkxKXk2IdnZqeuHVGgQlobSPporvFmTEoArY3m7OelXI9beL+xmFcgi8AiTFZUXPU99N1pQV/cJ74QZjoDdsF68KCGbuyYhHQGcHgLqte/u3sY1ZUBDLMcGzTDIMILuh0bAbZgDI1UQ0uReORnwAlo1qxB4TY21zETENa7VgNM7XDc53QDlcBFFOOF8n55rBFJxqOihKZGARw3Wu3pHxFZ8Vsr6v7Y+Eo/bISvjeSNwWpgeDWx1XLhbvT9UJ0/7Rfu4VqNBtrn/Tqs5vGf+qu72c7xMGJOx64CJ0yhcf21oTta6PctHZkGyDSThFMjcn4xf1H2iIZLzbyIpw+r1WAjfF5S0zgU78enKYZFHQv9Lvl7+fg3tDf+CUlVs0YNCHLDQiRn2wBw2OgTnT0PGUw49oJr/1zXlbUA6fwGL7E2KHBvn7MZmS4N5GP+OS8FWp/OROv6Q9WlRtQreHRjURNWyAJ8MBb6lRbv39TcMCxdeZiNjIW4DK1A4ZNHuIKmhS50E5uAOZOa0OhrVMDSAIwZMBkADMfYVYJDnlKcdyYdO+3nQHwpQNoo8ADCrwQjwf2v30rc7Wl0kzv4j1eBQFSQupHqB5TKD5jdZn3VlFHnF3PXOHRLWkmFFvbFsaxFTT7gAI5Yntg/wJecig7WyMGZQoxD5oIBAE465VVE+d7maRqLkiKOgSqkIC0h+OhPPAZjEOKUp5WcARw+PJMBzNqz1JJ8HsVUmhQvEh/oSVu6Y6r6zOCOANu1PZBGTXMmu6Zl4tnjnnYAxwJ9cWC+nufKgrA/+6Icd4wPOZI7gc2/kQWBXUdbsXXtRxpkKHJC+rG3c+x8Nv1qICqBpTVRCLax6yFdHzxlOu6EfBYSg/jQAPGSD2b4gHEB01ncSdAnJjmdLwqTR17Cujrs1SAtGn7VpYeVA0VocE38iwdGS8CsRU1eVADHFl68+GRs5qQU2U2GeKUwvxzDEp7opCZZVlI5S5LKSpX1hduACTuN2H7U4KUHyYmV0KZoQ5TXOQ29Y5KcyHwESvJAxe8L2z9XvDOUjkXEsRzKNBht4QavDrsRQaMJKwE0tjYln3rko3unQo0yfHHYDGsLvu6BNvDxxQ5ZGXvOVor04rMkXgVhMcvpn6ZhmKYPgBN39xP7W9AQ+QO/2XnP7BO3mbmHtGjxQgYrfG9Fm2MOXuk6VNBUeo8Qj30snSEbn/k4NOI+MQk73EUclICr0ZO2FStv909BkedBKnA9r/ugfkowMr3+qH+3XwTQNTn1/h+6OEokSBHgXPQT4fxawWIuw2khaCoI6bj7rUSufK+9Y+fzxDu2TNkBbjgfvq23ZGpfHHhad1Oyjq0Q3/94umIHmCEZL4dcgGH/ZL16xyQJ29UPPl8clkohLcqxOtkoogSyclgCPFgi9Ule9KImvrcr3qJ+yFN3xohM5YhwpDB/DMo/zTRr6CzvK/cbU8QZkLbzw3cfvduSAyXHS42uxWYDj2dMsBbLVve1P/YBuGAXH/CfTNdty/eSimNRuoM38UOVT5VpT8BuhAET+XOeLwURGmhoY89iw/WPC1hBt6EkpeXquhOHiQZ413n9/PgD7y9FiFOZR+KsSgg6gCMQ8FLD8nLrqXvscej47b7dW3rO/AL/JmLi/yFOcsXaCiSprF84e28YnsnwQLpoN36QPNShJwL3ETbVrWzCTrZ3TGJqIUCLJS4UjSsiyQLyMT2kjde5i5r4Qp6WNaEhMYTQp++M4ZOU0x59Gs4ehWknH8NuOosuFM9mm/eldrjgJu5/ifisI3g+Pyu4cDimZ+GurGmIPhpO28N0vDR8Ok45g/i0NCEwt9z5oaLuHHeKR1s2BBUTAdbaiFvAwuE9KCxND4uea3EtasK6maB6tiyJPQbwFhdrXRRKkeQ0zKNw1kImG5gJDOeltT917IFjd+OdcMeN+nlus+0AjhmDxBPLGiufVU8RvFSGIXEA7fIUfn0bK6VgBvJqVHH+LsY38Oukz5TSxZr4qSumAaI2b9m2TSKqMU2pIE1Mr/aiJk2iVXLO4QDERudIpwxzOxt8jgOXxGN+DDnxd46QV0Bhr9+QY9jfljZ7BIzdAUaVYADuYO7r1ZOv99XvoZCnOxOeG8oXp8gMhuJ8poGBGdHbiY95Rm+zR7gScDV4DaAYmyBb+92ot56OfHGCFn6fQuk+ovGD4/nqqtVXBw7KtX+piIu5xhvcvSWBWuYDneyp6VJODM5jfhL8659ktOUGVQC6YvtzaHJPaC8l4Z47vO2jAG3sEtGWlpTcqDTkno4Do9joCQdN82nqyil+61HE+1ICyIxzdkyR3d4xiU2KFNohjGrLm+Eh/dSi0t1bUmXdSOCLG8rMaQtRpjFVBSx/i7445k8kxeEpbNZ1TEXSalCC9oOOR9PYnaETrrqRbt+sbB4EyXiRTXO9UV/1mx7nyrA5liBE4/4qd12qky/NKeYiIe4C2Ae9ymqBpCacNHU4ysTNdPd803gRXzdOV0mP2FWy6ejYSRorJBItavJCOnJq8A0USTHKw5UZzq8Acrw8is1aCKHhb4fxCO4O2FkCAq6iHcXYrc+SqIjA9gZDiQHcrtAXd6NRgSAOBlqtI5rNKzWP3Za51yk6DVAQk3LymnncewsoY5imrizXP9xnKmY9gwI2ZP1oHJIrt6fgEy+VayFfnCNkQc1PMwrYzCBGdwAHq0MJ/yZOYU7P56alyonH+GwJE4Fnm07owSwF4bYbixnQ9bICyoB+ZOxKTznBfDsmibjoTLVIRbSdo48+x7CNFgvYYlE154Qec88lanUUQw2AauZPs4eXQ0qxY5IqY8ckL85dxHGrKiE4CcDxNDKFwlJZRMJSWgI80JCCMGw4xRDFGCmTlyTn/AqxJLgFwPWQH49PrwIpBcYwJYvNTgiyPQEO8lasDgM4BEDiq3csAzOi3wS7KG1jTVlf2lhaZ7Smmz9Y1eqMJzk5l9uPZnUnRSRMzBjblO8bH+D3zrd9cTchb0/3wM8eyEPhN+CBZvWetJxxDafPGuawaBmrJaLKXAS+ONrMuOLNIt03MtIdVV1D1+6Zd/OpnlnvVrBMTyUVfMAX6ndtDEO69yTJcVORti+uES5qUtqUXxqH6oNsgmEOQ0YMgGhfnIfd14bGN44qexXcga++Cp6eRU0cARyTxyRcARyo2oI16jtZ8MHn1dpKTWdcsfkvV22fVdHWb7NEQcDrxX5CZz6FqnMvatIWYUMRjHhVULoeJV5qSokEow0jhFI8bItid0i0HL64PeUOKlSmjsOrUCrosZjz0xCKnbyEHnrzrPGmRBnL0ER5OCwm9go2TbGwccNtN189b/4vKtUDkn4J4/spN485uPF0sPCMSs0RM4AjaS1qEqVw4IWPKxM/PDj0J4lu2tVME6DE1j0ozLM0PqrzYvjiwKACHujRZGEDaXiWqpSoqSX3GAq62/iSSf6Q9EOVllH5ceOJ/86sWo5E9CniumAY7WGVhk0vxP2meIWwcY17KUJXI/Ef+4yaJ/1zd3w3m6gU7tuxwSUV4njR4PDFVWhfXJdN85e2qMnH4/ML1dOqIYDnlzD2jXT/qEgvpMArbnuNKhZ16ewp4no5tOXV8sXp3sqsAA5PvEohbhergTpzOeLTIwFEGb4448qGpi+uLUujtZ+1vvLR8C/YwaOaLldAZ9+iJnWw+3ZMosFKQhmVa2vGB5lTSx8s6vbW8jj7gp+tmAImsFuODSNoe+vpluvH5wQLqvEeBkAnlbPB6ocMBout4Kx4UKiCBUR/3MYMETyNpaiwT1DXf1FulDrAQAuqlU9b0IEIAgYHMp9jOVcv9I7TGefX7wDe9los6YFKrdc98YbnzmgMQ/gPVKNKuFp7hWV8ygoxd8ckXdO5tHzIQUyAw2ApHHuhxQgkdjdxKr44hi19Gz23YxOI3UmQzZSYKAKul7wtzdpfkvrEcXjlzEVNkg4zTGnF0LL+WtEK0HWsuvy2ox66oFPjQ2fZGq/gTweSyGsLtKU+2eZY5zHvQJPce1/7SjnJv9elmaM5LKr35uHw+igoUZND7WcN+eJs8IbV4CcvdV6g4toBiG/ZA1iEXEMl4+qgzYnlcdY5vm0AAx+Bqcd/rX9BKPprDwIUmRvRPlbm7SIOSQCAAS78IbhugbAgOjWQDweii4RA1G1wlii2L9MhfOwSQbtuNh3AIVDosrJf2NLBE10CQpnJgV6avYY7k3QLFcAYqI1mzAR9znxHQMIKxcqyhvfWVt3wLISDiU1SNznderNR6lT9pQGbkCJF2hLDmlBP1xvJQ5/cL2eWQHHg4r1CahwkzUuTd67mVCiVvDksChf6tRY1yZDim04dxjaL4s8mngcEn3MUphuoQy6HeA3U5jF0lhUL6x8g+sQkD3g7NoPQmx/V1KImQE4G5gLAQcWLiiZMlF/2F0Wb/RTL04suJ9zNnGjsHLdj89Ic22rLxvlAKpCoPMCiJi5oaII2BMtUogjNn+kqYgEp+/sTBE+ntmrEp/3TKPI0DpoD0eXYvJl/OzZ7+kCSk90XV1HMMv/gN8iUi9Ir203K/Fe/o4ZYDh/I+WkYeOW5sL1XkgKWVBapiw+Twd22g+OBAjjA4cA6eNPrqXjqeFwJGctDOXoDxGsY78gKQINPAfFIdFKTBNnVdtF8SN+XkB3GXlGNdgAHaV8JA2FQMLQlAZkfC6kIXNKllSxpo2J3qkL/SkMW0cFC1pHLF4cF1fox4EK/nkVNGhc0KGrn/aZNmwJYkl0zGvK3ysFXukxwNPh2IuxDm8BY3rIDOFSj3QAOYHx+odJ19avNk9xUw9RgdQecDvcfOqKiDgOHvlenwKEevclvLOiLoyigZLc+gFbakxgVw3RWrZ9RfsBiQ7FiHylY1MR1UIhZEnOckiVA1l9IcbWYzk9WwsB4evEU8Xu14JoAG9lS1TqmNOStK0xiAkh4YpIPjnEdgT2hxTsngCOJ6Fy6LV2ZxQKRcAoHnePL5wKfPNDt2NjXrR/SvJvEZVIZRgBHBYekfFFLKgkewOI1AjjOYnGoMqCQ5eozD0yrEsJ8EIzCnAY4wiLYeCP9b5Rp7kxYicYiHmC5XmMTOXlCvU+zkVU8OHhikg+S2tBJLaNnHce94Cb6FZmxtoQeSFXJzhwCGqgzxYrWCcqfxkMZv1fXjkkUcUpT45WhRoIwy6nP5zADONhMX1y5AzhMMe384YVP9obRvlD/sonCE3hNFLXI5XzjaN4/G1uKryyLHkP0kTEVnE9RSuCFh3T3+uJgrwmSFiW9gOREOTEbBiz+gDP4rb/1SMWx8FGIieEhTZ/plbvwxd0BwW5wOfBfyAYIlKZIdyRBGbEA/gAOKDFVbTh1eunW9+V1pypzCfKhjNEZFEAV5DgaGklrW9iJfj3FNwI49KIm3h2TfOArJB/odmySdC5qMkClIF2+uE61UkQ6fHH+27E5iwAO+3ZsvpCIUhb+P1kYqrIVdrVj/zkqvMZg9qImnmeRfbp7PON2bCYuGP/RPA7kUQLwsQjKzTR4FQ3MghG7iGkC3aQuPzS3unNRE8sbV1IrGvJp+32ScGhBB3DImeNB61ss/YN7Ch42ir68SLd1yVZWi0EAsRwPcTs2FbzPhZqyR5FIDg1X+3UfBmfoqMJXzg3gSMWCNW6+HZNo4Hc/ncd2XM66wC7HMhoGZmFLk7vAgG+bFCYPLoeqOi/K9CJVFdHqwXE4oqaf+sbDHdvp3jyzCWFdBOqyQtP50eOLa2X+rUfMAyiVjgAOBVdVkykAeIUAyAx+Re6EcwZcn3VZHvGiJqBpRkrsFmU9jfLty92LLANLwZU16I0CpwrFEh6Fr7j/LQ6GIQqL/4IXNeElhIfUA7k/4J+8eiroIeQKlE/YUxBwG0HZZdY4RGl8bnSD7YtjTKDrbeXSWBrdJ1GFx/Mw+K1INIRnSX0u6q7xa0hl0KgcCyCAw2P+bBLFxx3tIi7ngeXfLEvY5diIr2s/qsHGoU3MUxVlKv9UCx/8dmwavbdjc0htDX7sCYovCiiRSFf4fcrP/bdjc3Pejs1OVRqW8ItpYgVv4nsX7Nu9CpA88vjinAEcWPsPqwkp2xw89i61xzLjg6Px2eqPVhvob2Wo6iJRNNZTsxc1WfT02FZIZlKjRb4Yvjj8DY1BWxAOovyXyLUrHIbBBYDuCFEHmqxsxNYv0jNUDMMuJcTuIK+hN+3GLziHYTxfInQkgQJYZhua00BUXLgEP9CV6ctr5lEqU1AtGowPm8ZZNiQ+jGZGJmuIWh14URMI8HRXZikGqz04dB5yftrzMPMzZ7MwtYeU1P3FRwXT1tM/QsC3Y2N6bUtM05BK7Bc8f2LzRRKgZJQSkVJpmF5XXRuXTRfOMMOG+SWBnEYxmO8fNYoNisheGeQMOEkjx4kmUTyJFpQMz6ImI77c27FJOm/HRhhai+qwe64OOybc2Eo1PVGizpTs5rSlFx05JY8T8MWhIXw907wUZcSoqUpuMdW9HAMGHPAEcHgXNRm6KuyALcI55bgdm2WsOmoQWo5NBWDcECYwLj7yFYZ7xyT+27Eh5/jiOpEvTgkITkwgoJRKJ7o6bFIKpOJ5BUXSUUjSombcjk0WNFQLis9TRRl0RqqxgOnFdKBlaJJUbkriAA6U2LbHBwXRcH7UNaRY2CzHRuxvPYLLIWmRnh2TSB+D5yAdczlUQ2FIiXuh30EPnTt3wxfHwr642viD83ZsrM0PF7A1C5KnmDuIJIgrAl4FBrp3/ekM6NmWZjwGBa/qcU8QwJEsJZUIKh4vAkWwizibiplRJKcYZUgbjkISiJJNobWwldRCqvlJtahJFKeXQWkQF+SDgYI0QTQInWTj0FkCB2noOT5Q9J+c1EzBzFB1V2GWUlf1lR9ZMx5RHEIpBZVGUI8JPoAq+5yHxxc3RFWQMjNAtbBIpNCyAjgmJiFf2wZyyua8HZtl9FuMiZbvV6gCtkX7OayucRMGp22ZHZOu/QhYAQp4Q/zZweIM0Mwx/kceVDFddFZkbothfG7KZmhSpEAAx7yvj/0zmFChrn88oW5uIL/06houm+dKdwAHvqmCBuuD//YNgV3yZ1NC4PMRpvhVHpMjGohjqII52jjw6rhY/kbf7digNv5ORb6472gMMABC47YNBXAIWgyfTxCO8egrCvEic/QHcHQp3RPq+lkcU6Ylai/2kBq+OAWeSaUwgAPXDk8Ax9HpeBb7a0oIIMc+MQkaWGUA5BJuqm4KA1dviddnLZ9DVxRrxyRWe1JR04/wBXBo4Ye+OHUXs6zI50nHQac4o6zeEkunLu1P1iMlAjxiyZkBHPo1SLKCV2kLp/T6IBFAqsRreml8gC5h4RZakqp7ErvtEyVgqACTQHPc5dhQENGGAeqytcDkUbwDSeY+b8cksqFwDEEyGw0vsTXSU87DmCRAyb7eMYksX6H2pULdjo0nta2E2EzsDisjAR9QTQYBHASNr0brV+Ry835f3K/E89W3qEl3BHBgx+V34fmDSF4x5eF97WvTJnmtJhAbti9OtPu+HZO4Ajg+QtLCrrYVwHEQG59WpvugwxenVW1xkgJ67kXC64v73Bn4h/iebMOAL441taHD65kGC6Ap9W5mqtQHgU7fuCft71ZovfGW71P/SPGeriifJL932xcXZDCFUmrj2fbFCbooi+0g5/jiND6bK4BjoS+Aw5MPeAtp5rOqmCT2MhwcM29RUFA+37+RiCiyyWp5aE5d9xuMJLB9ccIjoYQTL2ricU5VB+k5R3pefnjRzRb0WVbDOCC0mrBb02xc22I0rp2OTSq2Bwjg2Lk5tEMKclo4FOTDAMXHH+0pZFx/N/Dt2DyF83Zs8mCUwPvUSchj1woXzeeLA/ofBXCsPledL4DD54v7gY8qgOMtMnMqD4VDBb5xU/AXhnB3mdWgqLVjki85gAMan5yRJCvwHryMVrxKCGuCAI4ND79ZARxST4Ect3e8ScEa0BenyF0eAS5DKjvgw5WoejjGdYoHQYXVuEShGVsBSFEcMZ1WUcBBrtT/WaCVQgSLVcaAmGbV4LMywzbrdmzsVW3r41PEZY7rB1bIPlFJtG1gQox/xyRAh+SuGo9jIMVg3Y4NFDslukE0ViJ9ca2QNi8WWLDU8sWJMpQjs6v+6kRrzaRO6mXcQXvfXPdkznjTJkqoVvyQFNknniNf3K+XRCEbs7XKyklUMAcEJcwdk8RFam1DZNVFSmXl2Lg4AzgwaasJuUpdH0LjoJyY0lzpyBenOq5ivo8k5yVknbMPNokW28d6/1azZHgOkqvPF0eVyjWer3Pykdp47tVhk/ZgdfQv4XZs4ILDiTSCHKu2dkzylE7TC7f7lsg7qm0/HugA75gkwZTJB7gdmxupqTRh4MhH4iAmvx2O3hI/OBY1cQdwSOIUH307JhGK2J45HorfeCCDQ9UIRb1Jc2kJbYILtHdMsti+uMuEw1Rfy7X1dElyM4BjafMCODygUGiLahoknClBoeW6HRsLAGVC3PSbqt/qYf2Vn7nfeNEKw5H00DMJQBWZsWMSgehUgkfLFweGo0/SKBBiahmiRXadoESrMVi6USnBrLKT1ebSgXdMMnA/FhSwI/60pWEMFA4Ag72XEkfHqTWhBcQjqT5b5GXP1cCXZLF7AZHAIwjnNzIPfoh3eoxsCNPLf18wV1gtVQkabDE/kM4JW66An81QYqUYvnf37dhI9NdsHl+cMQAH3bJg7p69TqeolzMDOIAyTe+iJkO9mOGLq6kpbez1nLQGq59Oxu3YKHZL0Jk6VMb1QJXaNYXgaj0FQOpdFWC0jB2TuODNe43iR3o3BL+BX8VWdlbUADJ17pgEQntDfjm3Y9OWZgz14CwLuib3rtoLFU5UyBDl5Ry/+oJeng61RJWswiFIB7IS35sQvupmY00eLJSk1b8be9Iej8QPodxglwEOqVvO/6LW8sAqxbfvNeSWSPBdQFxYpdXXKIHWwoZ9cbooxQZ8cbw5fXHtFwcwyTbS4VOA6KYWP8dbTdisgp9oxyRU5Ve0GCTcWYDj8HeBafnhMbeedQBHmr44AHhRkznPMXfHJESZXiMujqDNirpptNakfk7UFrMGLxMtJrjmrB2T8Og7dabW07X19IXNo9MTt6XVoPGpcLDnyYE2QiiYLnFAE22VSnA8l1a/kEV4ux8fNbAcqiRXykVNPDZPEyXTPXDIYl+mkijSXtlc89OgfHfuffbt2Mj+Ymg2SPvVnorVqL0Jp6bW+OEBbXDm7Pva3xN85calgUyVu2dPwIW5i5qkAImDxOqJH3/gW0fxBZ5tyaL6tVE3s8pfJUp5aBzH8zg7FzUJ6Yt7HqIcKDlA9GITqkNLdOr0yvQulEmazuPUoP+tJDI8dP3jpTE41RDXSM/VKL/MJZYPQiEL0+uHj44VVUYrndjL5+8sValt7lnJDFB8h5eUrQAfAvniii+/8wXrZjv5DurFB/ob34sE/GiLSrauVhWZJHfuoiZfOMuX/Ou3YH6a7YtTZQUIFOCSK5+ruuzwgvZwia4Ifw8/8OO8XcTBtdzagqCB8ndhr+ino/ieAI6WRC36BueneUB8w9GODDDzZYjVPzS6Dl/cwApjxixKtuUYWuq4NCXBdXTSJ6AsTYl6aYR+Si2/DYhGY2kzzDdIDFYsX7tkwyPxjklcw5EogAP05sYz0tmwTKLz06ZSi0yXZvBBS79Et4I8BEe6GcBxLIjmuU9ItaQifAj1EUZv5bbHDfBFLHOGKomlSCpJIx/DTlVyrJiUrh2T3OBnrtuxSa0sRQEaqEaZWxOczWxNu+pYNDmnGnzhdHDtmAQpeG6IzM0zEgqbjBdWCFsR/C6CtlUg41rUpFNiuqnEGEV5lWeje3DmfuZVcQE27FnQ9NKgFzVhwHrJAQ6AyyrpVCW/ososFKsYmzR8cfwF0A5XOm4oibdy3I7NqKLKsZJzAzgEHBMhtS+OHbtYPOsUPX6N1jjym4MzfHGOAA4hG5GORU0K/0mP0rmO1NtZ0LlnSc85DWh6URMNSRdUXA1yXqRXFMKghn4ho3QAxywQpBWa4+IxiCGAAA5hVgIh90AFaMr72hFpzUz1SxMqLFAjXjqsBkNUpGOpGV1xl+nolSmr+Sp5HhJhapUqtcCh0Z1eYC5LBBWJrlIxNPQRwL8htNh0sS+UHWyF5C8Mh08IwUMBHMyJ8drkWIA+ECJqaIYSxWpYMsGH0UojU2elusF9TxouYZJBUH1wSdkMRVoGNqiqlL6APyy/rEtachmC/Ecl+Cj/zzsP8q8NfTK38hZM4IvbgVPogKw6+5fPQMnjy5Tg5Hmg/hPo31WH6SE7DCptlTyekVVZMHzXESpQ6TF5dHoTbBTJH1G6/HjYJ5+gL+7RyNRsspmMY4mHmp8Wog60Xnu3FjURjHy5BwI=;" vertex="1" parent="1">
                    <mxGeometry x="345" y="239.5" width="80" height="80" as="geometry"/>
                </mxCell>
                <mxCell id="247" style="edgeStyle=none;html=1;entryX=1;entryY=0.5;entryDx=0;entryDy=0;dashed=1;dashPattern=8 8;flowAnimation=1;fontColor=#000000;strokeColor=#000000;" edge="1" parent="1" source="226" target="225">
                    <mxGeometry relative="1" as="geometry"/>
                </mxCell>
                <mxCell id="226" value="" style="outlineConnect=0;dashed=1;verticalLabelPosition=bottom;verticalAlign=top;align=center;html=1;shape=mxgraph.aws3.lambda_function;fillColor=#F58534;gradientColor=none;" vertex="1" parent="1">
                    <mxGeometry x="200" y="243" width="69" height="72" as="geometry"/>
                </mxCell>
                <mxCell id="228" value="Amazon Bedrock" style="text;html=1;strokeColor=none;fillColor=none;align=center;verticalAlign=middle;whiteSpace=wrap;rounded=0;fontColor=#000000;" vertex="1" parent="1">
                    <mxGeometry x="319" y="320.5" width="132" height="30" as="geometry"/>
                </mxCell>
                <mxCell id="229" value="" style="group" vertex="1" connectable="0" parent="1">
                    <mxGeometry x="28.16" y="244" width="132" height="100.5" as="geometry"/>
                </mxCell>
                <mxCell id="225" value="" style="shape=image;verticalLabelPosition=bottom;labelBackgroundColor=default;verticalAlign=top;aspect=fixed;imageAspect=0;image=data:image/png,iVBORw0KGgoAAAANSUhEUgAAAfgAAAIICAYAAACCUvz7AAAAAXNSR0IArs4c6QAAIABJREFUeF7sXQd4FEUbfknvIYVAIKGFQCDU0HsvojRBQKTbfwtgAVEQRQQFGyLFDkqRDtKR3nuvoUMoIQkkJCEd/3uHO4xIyezdJXeX+Xj2ucsxszv77ux88/UCUKQQUAgoBBQCxiBgB8Befxi+85OHIwBfAAEA/B5weAPwAOAOwE3/6ar/7gzAAUCB+wbH8/4NIFV/pGT7zt9uA0jQH/EAbgC4DiBGf1wFwN+z9MedB3zn+RVZOQL3Txwrvx01fIWAQkAhYBYEuFa6ZGPCZMaGvwsDCAJQDEARAPybDJ2f/gDIqC2NuCkg048GcAXAZQBR2T65QeBGge2S9Qc3D4rxW9qTfMR4FIO3ooelhqoQUAjkCgIGqZvMmVI3JXAegQCKAgjWfycD5+GUK6PKvYtkAojVM34yfzL+i3rmb9ACxOk3CGT+iiwUAcXgLfTBqGEpBBQCuYIAVeCUtkvoGTeZN5k4JXEydP4fDzJ4quHzM6XpJX6q+A2S/wUAZ/XHOQA3AVDlr8gCEFAM3gIeghqCQkAhkGsIkEmXAxAOoDyAMD0jJwP3AVBQbxNXa2POHgnV+JT2KdHzk0z+IID9AA4DSMrZaVQrcyCgJrE5UFXnVAhYFgJ0yvLK5uBFRkZHLsNBBy8eDyJKuFTZGhy50vV/0x6bqLfT8pOqWn7e0n+3FARo/y4LoDaAugBq6bGgDZ33Tzt6fpfMTfmsMvTPn4yfc2EfgLUANgCgtE/HPkW5hIBi8LkEtLqMQsCMCJCBU40cCqAUgBD9UVqvdi6Uy45eZP4GWy0/6cxlsOXSnmtw6uL/ccNgaqJdvDmANgCa6VXuaq0zNcpy56Pa/hiAP3Xak7l6KV857MlhKN1aTXppyEzSgbhTaqBzjuGgYw8P/k01IW2AdPKhtJX9oCRmCKeh1EUpJHs4DftzwecLRcmLO2Yuovzb4BHL3TUlLkM4DUNmDGE1tKFR1cbFl7/zHNyVGz753XDwN/WSmmRKPPQknCvZpW2GVZFxU7VMVTPVzPykM5i1ETcC1/SS3SW9Ixc/adOlVzfnKO2+nL9sy++ccwbiXGeIGd8JbmqaAmgFoKr+XbI2PPLTeKnKX6bTqqwCcFRvu6cGSEn4JpwFisGbEMyHnIrMlosQF2YeZN48KHHRmYcHQ2zo0ENJiwcXdEt4NmTkjKElw6cUdn8sLf/mS0k72/2f2Rdi86NsO1fgfPHMFmbFeWFg5BX0UvrD1Om2g8Jdhk5nLnpvk+mf19t3+Rs3odzkcnND1XsdPYMndoqsCwGuE6cBrNdpWzYBOKV/5rTpK2c9I5+lJTARI2/B4rpTCueiTG9cHoyNJRPnJw8yc6oQycStnfhycgNgUMMa4mqz/519Y0AtgaL/IkDGRNU6VeyURMvomToZO39X7+ldzKgt4maSKn5qtbgZVtjYzhvF9eQIgJ0Adusd9U7oNY22c5e5eCfq5TAebDohkWlXBlBRv0gbkl0Y1Oxk+vmJDAsxmT934vyk1EXpi7t1qucokdHphgt2flTz06xCZk6nLx5k6gzV4iYwP0jo+el9UPcqhwDXA64XkXpPfEr3a/SChNyZ8nlrxeC1TQBK3wavXKoHuTAb7ORUxytcH4wrVf4GVT4ZO71sz+htcHTAoS2OTJ/tbJUokT8JoKWewdPPgofy5LbVJ67uyxgEuBZQI0itzUqdEDVPL+UrW30OUFWMKAcg6ZvQfl4fwNMA2uqlLIODnLL95RzH+1vyRc3uxEenqx0Atug/yfitnbj5a61zHuuttxczNIsSvJo31v5k1fhzEwE6WdLMt1HnVDpBr8o3RxRGbt6TWa+lGPyD4eXCywWYjjxk6l303rm0nSvKXQQo5W/Wv9Rb9U44jAbgi82NgSWq92m2oZaHKvheOlVjD31URO4ip65mEQgUKFAA9vb2sLOzEwf/ftAnB8v/45H9O/veuXPX3+zvv/8Wh4EM3w2/85Nt7//kb9kPiwDGuEEQBAoCX+vW6L/0ERe2rPnThJZi8P/ARixo+6TdnM5NLQC00y/SmsBVnUyOAF9qqurogLMNwAG9XZ/2Oh5k/HnJ8On9Ths6berP6GOxbcGZ0uQP0pZO6ODgAFdXV7i4uNz75HdnZ2c4OTnBy8sLAQEBKFSoEPz8/ODt7Q1PT0/xyYP/z4Pt2Y99HB0dxSc3Ao+ijIwMpKamiiMlJQVJSUlITEzELR4JCbhx4wZu3rwpPmNjYxEdHS2+p6en3+3Dvikpoq/hsMJnw4x5P+g98WniY3hlXq4DFgOhYvB3HwWZehUA9fSxtDVsxMvdYiaamQbCHTtjppka85DeKYcOfEymQu/93Aiz4TtEFTznTyP9prC6me5XnTYPESAD9vX1hY+Pj/jkUbBgQcGkCxcuLA4ycn6SmbMdGTclcEsiSvdk+jExMbgWHY3r0dGC8V+5cgVXr15Fgn5jwI1AXFycONLSqB23aOJaQA/8Rbr3cJ3eAz/fF8LJzwyealTG0TbRM3YydTpAWdbbaNHvlEUNzuB5yzhaOu7RA5dMnzZ8euybY4VighVmS2NyFW4O6Qmf3yImLGoSmGIwVJGTMQcFBaFo0aLiMzg4GP7+/oKBGz4NEjmlbVshqvHJ2K9fv37vIPPnce7cOZw9exbnz58Xm4OsLIv0cyOj5zvP9LjMmrfdTNkSreKR50cGz7eRIW3P6RdlquOZeEaRbSFAhs6wPB6U6vmi8yDTN9ZWRye59rrz9tGHRjJMUjnMWen8oYq9dOnSCAsLQ3h4OMqVK4fAwMB70jmldB6U4PMrUZ1PSZ5qfm4AKOkfPXYMBw8cwJEjR3Dx4sV/+QZYAE58x7nJpynvV71ZL98l38pPDJ73WkkXcvGa3qOZDnNcqBXZPgIUNQzZ9uilz3Abpsmkap92+5wSN4f0hn8XALPKMT1sfnqHcoqTRbejxF2pUiXUqVMH9evXR8WKFYWanXZ0Nzc3YQcn01f0cAQovdNmf/v2bSQnJyMqKgqbNm3Cxo0bsX37duELYCFEZ1ymPV6sK/n7rV6bl2/s8/llcWLu7pEAnlWSloW8dnk/DL7kTIE6W5ecaIae2T9sVHxPmPv9M32IpFWt/mRWVCcXKVJESKZUMbu7u8PDw0NIpvwkYzMQbcaOegcvOmBxsTYs5PzkYXDcMkh1/OTv2T288/4R3x0BVe6hoaFo1aoV2rdvjwYNGghmrsg8CFDa37hpExYuWIBly5YJ5m8hRL+cT3WZRCebQItnIbf06GHYKoPnfXHFok2dscf/s/TsYFyEuBBTujB8Gr5zweVv/KSakIsxF2Uu0jz4m1iUHR2F1y3bcofNgza1zMxM4TVr2HHzk7tuHvTCZRu2ZTse2b/z/w2/W8WM1j5I2u1Z5YrFL2jHZ7wtVXpUv7+gU/W/bCmmHD5jg8c1pU0edOgqUaIESpYsKQ6qnEuVKoVixYoJe/LjvLG1w/ZPTy7stN3SWctwXL58Wdhsab/lpoDOWgYPbn7nYSpbLu+R74bBK71GjRpo06YNmjRpImzphvAzU9yrOkfOEOCzPnToEJYsWYLVq1fjUlSU8O7npjEPN4PU3A3Vx9GzoFZuOOPmDDATt7JFBs/kM0wZy2Q0ZO50fLKY++QiwwWZkhNDZQyLEb9TsjJ44FLi4ndfPz8U9PYW7dnW1KpDLrBk9Ldu3UJ8fDxu3LyJmzdu3AuvoTMNDy7OIgwnORlJiYn3pDqG5HBhN8Tpmnh+5sXpaLvnAsDUmAy94+aQG8U8IzIuemwbnLsoiYeEhAgmTsm0bNmywvnL0ry17weM84eMn/Zag7MWGT/tupx71ALwk3ORjCEnRGyICzcy3NhERESgSdOmqFWzpggzU2Q5CPCZHjx0CBvWrxfq/AsXLoiDzzsPiMWM/tCFQf+ui3zZq9/Q58EwzHtJi2F8JrpNFndhprnuAOgVn+eqVErVVIvSC7dosWIoUriwUJXSM5cMvEhgoPiN8bGmZt4mwlSchlIWX0QuxtdjYhAbEyMWZEps/KTjjWEzwE+2Y/s83KWb8vZz/VzczFECp8MXGbmQykNCxN9FAwMteq7IgsV5EkVJ/9w5XLp0Sah0+cmNAA9+v5/hcwNMO3rVqlVRoUIF8UknOWq0FFk+AjTn7N+/X9jr9+zZg3379uHMmTO5LShQcqfmbo7eVEfve4sMDdD6RG2FwfOtZn5vSuwN9fWhtWJiVD9KUZSq6I3LhYcLMxk8mTqlLDJySvC2RAbmTynfYJvlJ5k/d+inT5++J7Hl0W7dKuCmlF63bl3UrFlTSOUGlTvnT35SL3M+UZKnp/a1a9eE1B8ZGSm8takxqlWrlsCImx2+a0pSt4rp/cBBUvPHZ3z8+HEcPHgQa9aswebNm3PbSe82gD06be90vT8O/7YJsnYGz/FTHT9QH4vMLGK5fk9UEVavXl0479Azl8zcEFpDm2Bu2D8tcTbSdm9Q/xsybDGe9tixY8IuxwX7xIkTOVbHWuI9Gjsmmmboyf3UU0+hdu3awhmO84nzJj8x9cfhSMZOpk+fEOJD3BQ+j0PNuv6f5kJu6igQLFq8GIsWLgR9OHKR6ITHUrUf6rNk5uKlzXOpXGeGJrwNGtgYi/yRPrVsrqrjqQp84okn8Mwzz6BevXoizIaSBA+18Dz8KRuc/gzOe3ypDxw4IHbtW7ZsEbt4Sv+2TNzwUbvz8ssvo127dsK+Tq2OLSVMseXnp+7NvAjQrEe/Hpr65s+fj6+//lqYaXKJqLbnxRgxMxUAbfVWS9bI4JlQxFcXvzxE5wQ1IDcyhxm8lsnUW7ZsiZ69eqFF8+ZKNWiGac8Xmwk0Nm7YgK1bt4qDv9EGy8NUHtdmGPpDT8kNnyH64enOndG3Tx+xKVQbwdx8Cupa1ooAhYEZM2ZgwoQJOHnypFgPcmEdoLMtS9OO0kfVWKVt3toYPFOD1tWDTic6sxLVpHSGo62P0jpjaFW4jVkh/8/J+XJTnb9t2zbs2LFDqO/o1EcpnypbS/bep0ROlTud5Th3XnjhBSGtK1II3I8ApdasO3crxTFBw993/sYdw/ds1ePYT1Sc05/gbmW6ArDjJ3+3++f/bA1lRmEwrv73338XTnm03dMMaGZiQasx+vBZhs5aFVkLg+c4i+vTyw4C4G9OlOndXqVKFWETJWOnfV058pgT8Zyfm975hw8fvnfQiY9x1vS85gJgCcRFl2Fs9Mlo3bq1SLCiGLslPJncHUPWnTtITc9EWkYW0tIzkJqRhdT0DKSkZSCdv2VmIT0jE+mZ/P8spGZkgn2EGSvrb2Rm3UGm+PufxGui9KydvpwsC2fY28HRwQ6OzIPhYA9nRx4OcOJ3Jwe4OjnoPx3h4uSgP+5+54bAGonFcNauXYvFixcL0x5DLc1MtBmyWh1D6uhpbzWZ8KzhCdO2XhXA6zrHh466+r/e5niYVMPTa5mLMZ2eeDA8SZHlIkDpnmFU9LCmZE+HPUr7dOJj2F5eEEO1aFdv3LixUMMzAY0i20WAUndCcgoSklKRcDsN8UkpuJmYgrjE20hITsPt1HSkpGciNS0DKekZuJ2WgeSUdMHM0zIyxQaAR0aWaXKtkGkbmLyrsyPcDIcLvztB/ObiCE8XJ/h4usHP0xX+3m7w9XRDQQ9XFPRwERsFayBq8BhPv3z58tzKmLcawPe6ctDLrcU2b+kMnrm/WamLWYdYgtMs8WUMQ+rZsyfatm0r8lIzlE3ZR63hFf9njIYSmIYMamT2GzZsEHG29Nw3dzw+wyH79u2LFi1aCO0PMw0qsh0EOH9u3U7DtRuJuHojEVfibiEqNgFX45KQbGDieun8dmoGktPShZRuqaIe1zc3Jwe4uTjBXRyOgvl7uDihmJ8XShQuiOCAgggq5I1AX0842FtuLSVq9RhLP3fuXCxatMicm3tD3PzPAHjEWvoMt3QGz/SgI3S5g1kYxuQzjIz8jTfewHPPPSeSznBRVozd0qdszsZH73zG3POgZz5ffO70ab83JTEhTffu3YVHPH01VHibKdHNu3NR8r54PQGRUbE4eek6TkbF4Xp8klCrZ1C1LtTrdz9ticgQDKp+J6r6He3h7uyIsOAAVC5dWHyWLOIDTzfn3I9HfgTQNGtQdb99xw6MHTsWW7dsMZd9nnu2RH1a608AXLDk52+pDJ5q+dH6ql0mx48ezb1798aoUaNE8hlF+QMBLgJU6f30008iLzbDcIwh+mZ8O2EC6tWl36ciW0AgPikV09fux6z1h4Rkrui/CFDSr1KqMBpXLoUaZYMRUtRXOPpZClHbMnXqVCG8MQ+HGWk3gJ76srRmvIz2U1vOU7l7D5TSA/UVfwicyYxBlMwpsdO2PmTIEJENy9Jzd2t/rKrn4xCgZE8VPuNsqcanzZ6/0a7/KGIVMiYyevfdd/Hqq68+7jJ5/v/0xM7KuiM8tEVRoTv01tb/TS9tvbc2f38Q0Q9LeGrTQ1v/nU5edgXshLOXwYPb3s7wt51oZ81EzI5fuI7ZGw9h98nLiL2VjIxM09jIrRmXh43dz8sVDSqUQM2wYJQL9hf2fKr96eSXl1OBEv2wYcOE6p6aOzN53F8F0B/AJgAWlwEvL/G/f76QmZfX5QIeDqCDLjTB2VQvA+PXmdqyf//+IjGNtaWKNYTQZIiKb/Sw5QL9z2JNL1u2MYTVZMfNsDBnX5ANizHtavTCdWAFOnsuzJY0HUz19B9/Hr78K1asENI9s+sxJzZ/yx5rSyfM4sWLo0OHDhg0aJBwyLQk4pygdzalzrvH3e+0G9MBLDElDUkpaUhM4W+pwtGL7Q2e3XT+epBzsJ2dvfDINhx04KKTlocr7bbOwkubdlxPVyd4urmIT0p4PKjaZVsXp7te265OrHZoXXPswJkrWLErEvtPX8XFmHjhEKfo4Qh4uTmjcqnCqBpSFOWCC6GYvxcCCnoIhp8XywtzZ6xfvx7ff/+9eL+5kTeDPw7VBEy4xrLTZPgWQ5bytpG5V9OV5xwGoLWpnOnIsCpXrozOnTujV69eIi+8pRLtelyEE2+ni4WYC/M/n/TEzRDhNnfDbjKFHZCLOj95CElNz+jv3WMBwL6AnYiNdaSEpQ+pcbC/u2BzsaaNzdnBAc7ODvBwdhILsruzk1jAPVydxd93F2unu6E1VrZAyzxv7vDJ3Jlch047POiVT+berFkzsUFkoiOmSc1rIvOOTUhG9M0kXLuZhJj4ZCFp3rh1G7G3biNOfySlpuO+MGqzDp0LCueOt7srKNn5errC290FXm4u4tPf2x2FvN3g5/WP1zbDuiydDp29io2Hz2PbkQs4c/WGzdnezYE/N3gVSgQgrHgAwoL9US6oEIoHFBRrTm4TU95Skp8+fboocmOG/BksifcbgIkATlpKKJ0lMHiOoQqAzwE00dneTVLjkaljO3XqhD59+gi1vKWkAeXukYsuF+RrNxMRdf0WLscliEVZeN+mpuN22j8SmPDQTcsUDNycxN21iyPjZB3vSWUMsXFxdoCr491PT1dnEVJTyNtd7Mr53cfTFT4eriL21paI6np64jNzFvPok8GzAExeaTno0EWv7VNRsYi8HIvLsbdwg+FYeobOzWH2eGlLfBZ80emcZWD6lPi93Z0R5O+NUkV8EEyPbT9PMZ/yCudH4cZN9qmoOGw9egGrdkfiQkyCOaRBS3x0Ro2Jz9LXwwUlCvugVKAP6pYvjiohgWIdyU2iNM8EOTNmzsTPP/1kjrwZSQBW6v3HWHI6z+06lsDgGWw+C0CEqcq7UpU6ePBgIbnTiS4vi72QoXMRPn/tJk5ficPBM9dwKTZBSORk3PTWpXrUGrxxKb2Tkd/dCNw9uBvn34W8PRAS6CMW6qCAgkI1V9CdC3VuvsKmvxafHyX7vNggMn766LloHDp3FftOXcbVm0lITE5Dwu1Uoc2xFaKan9oiqnG5qSzi64GqpQMRXrIwyhT1g7eHWaJjNcPHTffVuEQs2XEc8zYfEeYQRTlDgOZBCgYB3u6oWS4IrWuUFU56uRmGR/Pb5i1b8NGIESLCxsTEFLe7dPXlmZBtX15L8nm9/LJ++18AypqqChyTi0yePBnly5fPk0WZk4WL7+nLcdh98hI2HT6Hc9fiBQMXmamysoQq3daItn5h0xemgLvfCxf0QOVSRVCxZADKFPNHycI+cHc1iYLG1uC7dz80v5yMisGavWfw177TwlRD3ws6eZnBdmiROHIuMTsbTUmcR2HBhdC8WmnhsV08wDtXmcGjAOKzuh6fjPELt2L9gXPCL0ZRzhFgOB43d9VDi6Jr48qC4ecWo+ezOnvmDD7+eCT++GOWqXPbGwrWdNGXoc05KCZumVcMntelQXyBPkud0bdFRzrGIo8bNy5XJXYya9rAuas/duE6Nh46i3UHzuBGolUXITL6eTzoBFy4KeFXL1MUlUMCUS7IHwE+HsIfwODwZ63pM7UCxvmTnpmJm7dSsHrfKSzedgLnruVNFj6t95Bb/bhoMAlLs6ohaFCpJMoG+wvtETcD3FjmFXHjvuPYBfywbDdORsWKWHlF8giEFvVDv9bVUS+8uBAEmH7X3MT01j/88AO+/PJLke7axJtoMoFOANbo/MvyxDszLxg8r1lGl3L2a71DnVHGWwcHB5FS9sMRI/Bs9+65wtxpDk+8nYqYhGScuhyH7ccuYsuR88ImanuyufleMarvi/h4olKpAJQLuptAg1mzaIP1cHMSjn226tRHZ0kmTuGmcNOhc1i15xSyzOxnYb4nmTdn9vF0QaNKpVC7XDDKBPnB38sd3m7Owpk0L4jrwYLNR7Fq7ylciL5pk5o6c+NKe33pIgXRsV44apcPFpn0GH1hblPfmjVr8PHHH2Pnzp2PDZWVxIDZ7gbqnMgXA6CNPlcptxk8r1dK53zwoS5pf1edY52rMXfLmGQW9HjvvffQsGFDs6vkKanT9nbs4nUcOncNeyMv4/SVG0o1Z8xDzNZX5CrwdEVY8UIoHeiL4oUKIsjfC0V8PYXXNXf11i7h05HyxKXr2Hf6CrYeuYCjF6+LjGiKtCPATWCQnxeqly2GCiUKC80QU63Saz8v6MDpK1i84zi2HbkoNnFq0y//FJhjgf4XTauURp0KwShfPMDsjrwsWvP5559jwYIFRifBuu+OWV+eFen+0JU4Z+GaXKPcZvBMG8c67s8bWzSGKnk60b311luoVKmSWSV3OsFFRsVg5/FLOHwuGgfOXkVSispyZe5ZSmZe1M9TeFeTydPbmot36aK+QtK3RE/rh2HCmHPGVK/bfxYHzlwVoVbmjoww9/OxxPM72tuhTDE/lA0qhPAShVA9tJjIqU4zUG4SN21r95/G8l2R2HXykk05ReYmjlwDygb5oUZoMbSoHirC7sz5LG/fvo1p06ZhypQpIkTWhEQmT631rzqJPt6E533kqXKTwXM7/YaewfsZc4NUyw8YMECkIjRnwhFWeNoXeRkrdkfi6IVoRMXQ+z1PTCnGwGUzfemQw9AaPxFL7Y4aoUVRqXQRIa2xUpYlErU+lNYXbDmKk5dicCE6Xkl0ufCguLB5ubuIzWH54EJoWrU0IkKLiciP3CL6V1yOTRDOkvM3HxHaPyXNa0OfjJ4bt5qhxdCxfgWULup3r2yutjM+vBfrWDDL5WeffSaS45gwZv4KgHEApuRWNbrcZPDtder5aQAKGvNAKLWNGTMGr7zyChjrbg6iZLXv1BVMW70Pxy9eR0JyqsnKOZpjvPnxnJwHHvoSmIyrpnqWubErlw4UCXzymuisc+F6PKau2outRy/iRuJtZZPNo4dCb21mWCvi44HODcLRsnqoiMfPLWJI7PELMZj453aREU9pbrQjz3c70NcL7euG4ekG4aLErTnIkPRq+PDhou48Y+hNRJTemdCNCXHMTrnF4EN06Wf3M8+FMXfERX3ylCl4+aWXjDnNI/uevXoDk/7cgQ2HzomwNkXWhYCzgz2eqBGKVjXLokrpInB3zb2F3IAUQyFnrD2ISUt2KNWsBU4fptPt2zIC7eqWF1EcuUXc9E36czt+Xb1frS0mAL10EV8M6dZIOOOZi1JTU4W2+OeffzZ1KB0rpf5grnEbzpsbDD4IwDJdSFxlY27G19cXH48ciRdfeAGsBmdKIiNnlrClO05g4ZajiEtMMeXp1bnyCAE/Tzc0qFhCHMyLXdCDudJdzOKRS9UrUwsfPnsN3y7chhNRFl8qOo+eiuVclmaeJ2uVRZta5YR/B1Ps5gYxadGX8zbj9JWbIu20IuMQaF+7HHq2qIbihX3MYoLhxmz06NH4+uuvTVlumglx3tSntzVbTLW5Gby/PgVtb2Oy1BUuUgSD3x2MF154Hqy/bSpiVFJMQpIIc5u36QgOn4821anVeSwMAabW7dGsMnq1qGbymGk6VJ2+Gocl245j4bZjqiCJhT37xw2HERpP1CiLBpVKoGyQP3w83MyyCcw+jqs3EjFt1T6sO3gGMQm3TR1//bhbtqn/JxOj0233ppXRtGqIcMw1R14EOt+NHjMGpyIjTfW8WJhmKIB5utLoZqlra04GT+PIK3p7g6/WGeXv7y+qd9HmTineVMSd897IK1i28wTWHjijFmVTAWuB5+EkZxnLgU/XR53yxU06wvjkFKzbf0Y40R2/FCtKsyqyTgToy8GwrPrhJRARWtRs9l0DOvTt2XDgLOZsPIwTUTHKR8PIacM0x7XDgtC+bnnxnrNIlimJpaRZdfLTTz8VhahM5HwXqQ8b/1PngG5y1bG5GDwzTbTU2dy/BFBBaxpaNzc3vP3228JbvlChQiZ7VqzAtXjbMeEdzxzxyrPVZNBa3Ik4wcOK++PNjvVRt4JpmfvF6/H4ZeUeUXyEUpgi60eA3tp0xqsWWhStqpdBnbDioq65uYjmQSY7mrF2P/7ad0Y54BkJNN/34ABvNKlcGr1aVjN5QRs6221hHvuPPsK2bduUsv6SAAAgAElEQVRMYZcn+zmi86p/T5+23aSFDczF4OlUN1aXbJ+e85rfjtdff10A6ednVFTdvSnDalvHLkTj11V7sfNklIplN/JlsobuZYr6YkCnu8zdVHmuaZPbfvQivl64Feejb4o88YpsCwGqeAMKuqNaSCD6tq6O0CB/mGuxJHIUOqhN/HH5bhWKa4KpxHBIJsp5rX1t1A4rbtKMmJTkWaSGmmUyeRNI8lxAGHTfD8ABE9z+vVOYY85SNf86gE91h2YdSdu2bTFv3jwwW50piKEpmw+dw7i5m0H7ly0WfDEFTrZ0DkpiVMu3rF7GZDY5Fqn4bfVe4QnNQjCKbBsBZlSjqrdD3Qro16Y6/L3czHbDLEjFvBsf/b4W127melZTs91XXp6Y/hXdm1TGc82rmDRXBpn6pUuXRLK1vXv3muIWyeR5olamTIRjDgZfW593t7CWu2YoXEREBNavXw9PT6Oi6u5dnnm/528+jK/mbVX5vrU8FCvsU9DdBS+1rYUezauYZPSU2llr4LtF27BsV6RVlPc1yY2rk9xDgCWQX21XC40rlRYe9+bKpHjiYgy+mLsJB85eU+F0Jph/1Ny1jAjBK0/VEYmPTFnfIj4+Hs2aNRMSvQkked4tq6uyCt0tE9y6ybVOzDwzU1cPt63WwZUrVw6///47atSoYfQLRKmd2aN+XbUH8zYf1Tok1c/KEKDE1at5VbzarrbRc4i3TqmdRYWmLN2FjYfOmcqD1spQVcMlAkyFy4RK3RpXRoWSAaKGvTmI+Th+WbkX6w+eFZUqFRmPQESZonj+iRqoUbaYSfPax8TE4NlnnxVZ76i+NwH9qPeujzP2XKaU4HkuxvUx366m8xYrVkxkqevatavRse5UwZ+4FINfV+5RSWuMnSVW1N++QAE83TAc73ZtZJKc1dwk7om8jJ9X7MHOE0wnrUghABQu6C4S5bSuEYqQQD+TSoUGfGMTkjF7wyHM3XwE8UlmC5XOV4+T4XS9WlTFU7XDRCpjUxC1e6dPnxYO4atWrTJF1jvaZ+jDNt5YSV4TI34IKDUALNHl2S2iBTSmnf3f//4nQDLWqY4SFwt60GGFKWdp21Jk+wiwpGSriFAMfbaJSGpjLPHFXbP/tJCkjl+MMfZ0qr8NIkBpkN72LSNC4eNpGn+h7DDRvLhqdyR+XLEbUbEm0dra4FOQuyU64HWoWx49mlVBicI+cp0f0prq+SNHjuCDDz4QTN4EknyUPnyOGnHNzj6mYvD0PJmh8wDsqAUte3t7tGnTBhMmTECpUqwmq53oKX/w7FWMX7AVRy5cVzYs7VBaXU/GLo/o2VwUnzGWOI8YSsmF9UpcorGnU/1tFAEuoNxMNqxUCs82qSwyJprSxkvYuNHccfySSKF95Hy0Cus1wVyiqaVeeHH0bVUdVUICTVKGOisrCwcOHBBC6ubNm421yTN8jp717wBYp2P2mkJ1TMXge+lV85ri2YoXL47p06eL2u7GOq6cuRKH935edbcc5x0V4W6Cd8EqTkHV26h+LUE7m7FziGr52esP4ZdVexGTYJYEU1aBqRpkzhFgQZtAXw/0a1UdbWuXM6mNl6PgnDx+4Tq+W7QdO09eglracv5sHtaSzndhwYXwv3a1Ubt8cZNUpzMw+V69euH48ePGDpKq5/UAXgPAhDjSZAoGX0yXKGwWgIbSV2eQvIMDPv/8c1HX3Vi6kXAbPT+fjSs3VIiJsVhaU3+q3IY/1xRta5UzCXOfu/EwJi/dqeye1jQJLGisHeuVx3vdm5glL/qF6Jv4Yu5mUaFQVaUzzUMv7OOBYT2aoH54SZNpXw4fPow6deqA9eVNQJN0qWzfBSB9MmMZPOPc6Vj3gc4hQJMxo2nTpvjrr79ANb1WYk551l0eNGWZ8HZWlH8QYPlIejS/9GQto4uFMH3x6j2nMPHPHSoOOf9MIbPcKfOhf9SrOSqVKmLylKmMDPpmwVasP3QWrIOgyHgEWD54aPfGaFGtDJxMVG567bp1eLZ7d9DL3kjiQ2Y9lz9kVfXGMnhWiPtWp0ZorOUGqJpfs2YNQkNDtXS/14cpQ8fN3oQtxy6qECajkLSuzrR11ggtJjzmQ4tpsg7du+GMrDtYt+80JizerpyZrGsaWOxoyTT6tKiGJ2qVQ6Cfp0nsvIabjbt1GxMXb8eyXSdVSWITzQCWmh7QuT7a1Q4Dn50piKbnwYMH4+pV1pUxiniCp3TZYffJnMUYBk/Huv/pfEBGAJAuqsySryy/9+qrr8qM9z9tmeLxx+W7sHTnSVUwxigkra8zM9V90KMpGlYqafTgtx49jy/nbQXjjxUpBEyFAOPkG4SXEJXOKpYqIuLoTUXJKen4eeUeEUqXnGaS+GtTDc1qz+PkYI++rSLQtUllk2QtpIp+0qRJGDt2rCkk+dU6W3wPADlWUxvD4FlE5lcAtbQ8zU5PP43vp0wxqohM4u00zFp/ENPXHlBpQ7U8BCvuwxSig56ujx7NqhptN2NI5acz1yvzjhXPB0seOucqy9D2blENLSJC4ehgOiafmp6BmesOivoaiSkqIY4p5gE3ZZ3qV0DvltXAMtPGUmxsrPAzmzx5MpKTjXLaZTIEmsO/yamqXiuDZ/omevZ9BkA6lRMT2vz0009o1aoV7Oy0TXZWYVq7/zS+mLtFeTobOwOtsH+dckH48tUnjc4kdiE6Hu/8sFwxdyucA9Y2ZBav6VA3DC8+WQtODpprcP3ntpnpjuWKmfdD1UcwzawwMPl+rauD+eyNpQsXLojwuUWLFhlTgc4QOve8Pm/9Y4ellcGzdusWXVraso+9wgMasArPhx9+iIIFtccrn74ch/d+WoXTV3OsrdAyVNXHAhHwcnPG8k/7wMPVODsZ63EPmrwM+89cAR01FSkEzI0AVcA1yxXDp/1ambTePB1Eqc38afkeJKnUtiZ5jAx97NmsKvo/UR2eRq41zGXARDgMn2PeeiOISW8m6zzqB+uk+cfaZbQyeBrO6bovTZUqVcK3336LJk2aSPc1dEhJy8DI6WuxYvcpzedQHa0TAS6Qo/u3QouIMkbdAKWeMbM2YMXuSFVZ0CgkVWdZBLjolgsqhI97N0eZID8TVjr8Gz8s24UZ6w6oUtiyD+Uh7fmsGCffu1WESXIbrFixAv369UN0dLQxI+QO4Q0Amx93Ei0MngVldmmR3l1cXMAa76NGjdKca5455ulUMnbOpsfdm/p/G0PArkABtKwegqHdmYpWe1rQlPQMzNlwWDgoKZWmjU0SK7qdsKBCojpd7fLBcHHSXFn7X3dM0+WkP7fjjw2HcVs53plkNnDdGfR0PXRpVMkkIY8UcIcMGYLUVM31BTJ1ju1f6MzjowE8Ms2mFgb/IoAftCBXuXJl/Pzzz6JSnFbaf/oK3py4RDmUaAXQivuVDvTFR72bo3IpTeUOxJ1zAdx+/CK+nq885q14KtjM0EsV8cFzzaqKJE1uLqZh8hmZWfiekvzaA0hJJy9QZCwCdJQc2Kk+OjeqCDdn455TZmYmXnjhBUybNs2YYe0H8LIudG4Psxk/7ESyDN5LnzovQnZkDIsbMGAAPv30U5G9TguxutIHv67GzhPMw68oPyHAl6p/6+ro0byqUS8YcyaM+G0tuFFUpBCwBAQCvN3RqUE46NDFrIymIDL5n1fsxtS/9qvwYVMACoC+P688VRudG4Ybra6n013nzp2xd+9eraNjyMT7elN5iqkYPAvRc9sh7VZIz/kNGzagTBlttlNWiGPJTuYHZ4UlRfkHAVaJqx9eQmSaKuZPC5E24qI3YtoaYXdXPnXaMFS9zIMAvbabVCmFId0awcvN+EqIHCXDiKf9tQ+/rdmvMt6Z4LFRGg708xI2+TY1y4K57LUSc9bPnz8f/fv3NyZ0bjuArgAeKvHKSPDUS8wH8CQA6Tt77733MHr0aM25wg9mi1VWi7PWaWWd/Xw9XfF6hzroVD9c8/zhnS/cchSj/9gIMnpFCgFLQ4AMo3ZYsDBDFfJ2N8nwmPGO4XPzNh9RlTVNgCjt8SGBvnirc33UqVDcqPXo2rVreOfddzFj+nStI6MXfScAy0whwTcAMBVAiOxomGee+Xh9fDSlqwedor6YsxkLtx5TBRZkwbfy9qwM1yC8OL59rT0oyWuly7G38OQwo2xeWi+t+ikEcowAp7iByRfx9cxxv0c1vHYjURSoWXfgrFo/TYIoUKV0EQzv2QxlihqXInvJkiV4/vnnjclyx3rxPR9mh8/pkslKMB8DGKRFPc8A/y++oNOfPLFi0pbD5zFuzmZcik2QP4HqYdUI+Hq6YPyr7VCptHbHOsa7v/zNIpy4ZHTRB6vGUg3eOhDgosz0ywM61UOpIr5GZ2rkXZ+6HCvW0L2nLquwUBNNgzY1QvHOMw3hb4S2hTnqBw8ZgpkzZmitH8/UeMzVHfug28opg6fUPkWX3KaFLDa+vr7YuXOnZts7VUzfLtqGxduMrq0rO3TVPo8RoMTepWFFkW9eK1EdTzvkLyv3qrAhrSCqfnmCQOPKpfBqu9ooF+RvlCrYMPj9p67g89kbcSLqgbwgT+7R2i/at2UEXmlX2yjnyF9//RVDhw41JjaeeWnIn/9DOWHwbEND/pcAWPtdiqh+mDhxoqa49zt3/sbmI+cx8vd1iEuULoUrNU7V2PIQYGrPWe9315wqktmjGBL3+exNYEpaRQoBa0OAzqVvdqyLcsFMHmo8bTlyHqNnbsCVG48Mnzb+QvnkDCweNPDp+ujWpLJmp7vz588LZ7v169drRY3Odg0B/Me5KCcMnm7LwwEMBCBVtN3Dw0N4CrZs2VLTDjQxJQ2jpq/Hqr0qY53WJ2+t/ewLFMD7zzYRcada6Xp8koh3X733lFJLagVR9ctzBKqFBOK97o1NxuTXHzgrMoHeTNKcaCXPMbGkAdAJmGuV1uyad+7cwfDhw/HNN9+A1ec0EEPmWLr95P19c8Lg2ZFpaevLXpjFZH788Uew7rsW2n0yCgMmLVWqVS3gWXkf1nf/YVAn+GjMWJeVdQdLd5zAF/O2gBtFRQoBa0agYsnCGNajKcKKGy/JMxvoku3HhGZLJcIxflbQlFipZBGM6tcSxQO01VfZvn07unXrhkuXLmkdEEu3M0f9v+hxDJ7hcB0B0I9fOjfo+PHj8corr8DJSbrgnBjkW5OXYd3Bs1pvWPWzUgQc7Oww7qUn0LhKKTAsRQuduRKHYb/+hePKsU4LfKqPhSHAaJJKpQpjRM9mCDHSc5u3lpSSjmmr94kys5l37ljY3VrfcJwd7dG9SWW82ameptoCzG7XqFEjkNFrpMV6Xi3F4Jm5bgR5rexFw8LCMGXKFDRu3Fi2q2h/MioG3Ub9oamv6mTdCDAE5ZM+LVG8sLbdMB3r5m46jLFzHluLwbqBUqPPdwjUq1AcQ7o1RvEAb01mz+yAXYm7hW8WbMXa/WeUCcsEM6lC8QC836MJqG3RQmPGjMGwYcO0etOfA1AXwL+q2DxOPCoBYJHuqCozYO42e/bsibHjxqFIYfmbZda6j35fiyXbT8hcVrW1AQRcnR0wtFsTPFUnTHN40OnLsegzbh6SUx9bTdEGEFO3kJ8Q4ILdukYoXutQF0H+XkYz+QNnruCreVtx5Hy0ipE3ciK5ONrj+Sdqok+rCLDqpSwdPnwY1atXR0aGpnWLjL2Pjsmvyn7dxzF4hsUtByCVXd/LywsjR47Em2++qWkCnr16A70+n6MWaNkZYuXtORlrlC2Gwd0aIbSYv6a7YTGZj35bg6U7/+Nvoul8qpNCwNIQoNWqQ93yeL1DXaNisA33tXbfaXw5fwuuxCnPemOfdf0KxcX6VaKwfFI3pq8NDQ3FuXMUxqUpCcAonSn985wyeK63bPyu7KWqVq2KyZMno06dOrJdRY7wiYu24dfV+0FJXlH+QYAFZZ5vUwN9W0dosmMRqR0nLuHVbxapXPP5Z9rkyztldbNO9SvgnS4N4WJkdTOusyzBPX7hNqRlqDTOxkyogu4u+LBnMzSpWlqT/9Abb7yB7777TssQ+OBo0+7LopmGEzxKgqeO4TCA8jJXs7OzQ6dOnUQpPHd3+XzKDG0aOGkZjl28LnNZ1dYGEGAZ2BG9tDsRpaRl4MWvFwp1oyKFgK0j4Ohgj84NwvF2lwbgd2MoOTUd4xdsxdzNR/C3KvZhDJR4oU0N9G9THW4u8s7ly5cvx5NPstyLJtoAoIeujOzVnDB4BiAfkI199/b2xocffoi33pL2yxNjWr7zJL6ctxlxiQ+tgKfpzlUny0aAC9TT9cNFNS07u8dZjh58L/M2Hca4uZuVFGLZj1qNzoQIsLwsyyg//0QNzVovw3Bu3U7DwIlLsO/MPf5gwpHmn1PVCC2KUf1aQUstgaSkJJCHMjZeAx3U14jfmRMG/x6AMbIXKVGiBBYsWIiIiGqyXZFB+6m+nCdz0CvKPwgU9fPE5Dc7aLJdESVKIC9+tVBpfvLPlFF3qkfAx9NVVDd7qnaYJp+n7EBevZGInp/NRtwtJWBpnWDMbjd1cBeEl5B3MOc1K1euDDrcaaCLepP6nMcxeMa/79CVoaspexHa3bds2QJWkJOlk5diMGrmBhw+d022q2pv5Qi0qFYaX7ysTTXFlLSz1h/ElKW7QClEkUIgvyEQUtRX2ONrhQWD9nmtRCfVVXtO4fM/NuKWShClFUaRr6BD/Qqa7PB9+vTBb7/9puXat3SdPgLw9eMYPHPOczcgVfed9nem3PvoI15DjrhIL9p6DN8u2o6bSWr3KIeedbfmjveXtztrrhgXfSMRI2esx9ajF6wbCDV6hYARCNQqF4S3OjdA2WB/TYzFcGlDDXmW507LuOevZcTI8l/XLg3DMfTZJprMJkwQN3AgM8NLEx3tvgLwvsHR7mFbve4AZsme3sHBAZs3b9bkPU/J67vF2zF342HlAS0LvJW3r1QyAL+/103TXbAg0Z87jgsP4JvKb0MThqqTbSDA8LmWEWUEk9di/82OQmRUrKghvyfysoqP1zA9Qov6Yeb73TQ5P65duxYtWkgXbjWMcpo+Md0N/vAwBs+ctq/I3ldwcDBOnjwJV1fprLbghBozawP2KwcPWdituj3ViRNea4d64cypJE/RN5Pw9YItWLlbFSSSR0/1sDUEHB3s0L1xFbzRsS6cHOXNpAY86AO1Zt9pUayJdnlFcggw0c3K0X3h6+Um11HnBh8ZGYkqVaogNVVTMaAl+sJwIsf7gxi8iy5ZEhPiSmWv48l69+4twuNkier5dQfO4MNpa1RyG1nwrLx9sL83Fn7cU1OpRc6bjYfOYdjUv0RubUUKAYUA4OHihEGd66NzQ+2VGIkjw06/W7RdhM6lZ6r4eNm5Ne3dLqgSEijbTRScYYp3jQlvtgB4Qx8B90AGz+pxywAEyY5szty5eKZLF9luolocCx98v2yXdF/VwboRYBlM1lLW4hZEz3nOmd/+2m/dIKjRKwRMjADD534c2EmzX4thOHzHnv9iPk5ExZp4hLZ/uo96N0fHehWkbzQ6OhpdunQRzuoa6CgAVpbb9DAJvieA8QB8ZU5Or/kbN26AaWplKSY+WdQn3nxEOUnJYmfN7Zn16bchz2gusXjiUgx6fTZHhFcqUggoBP6NQGEfD0x9pzMC/eTX5OxnOn7xOl74cgGS0zTlSM+3j6V3i6p4q0tD6fsnH3311VcxZ869aDeZc0TpzesU0h8oOI3Vi/hU1eeYIiIisHfv3hy3z96Q4XEvf7MI8cmabA6arqk65S0ClNjb1CiLId0boaCGmu9Uz09dvU841ylSCCgE/ouAvZ0dmlYpJby5/TTYgrOf8ZeVezB56S6wUqOinCHQMLwEJrzRPmeNs7W6deuWiEb79ttvpfsCSADwEgCxO7hfM0rvOHrPc1RSWlPm0NUyIC7UK3ZF4v1fV2u5GdXHShFwcXTAqH4t0axaiKaQHqoO2w3/DTeU57yVzgA17NxAwNvdBX1bVUO3JlXAWg9aKTUjE0N+WIFNR86rVLY5BJHV/paOYoE3OUpJScGXX32F4cOGyXW825pxjS8D+FVX6v3v+5l4KAB6ybGurBRptb+z0MG42Zvwx0ZNmXukxqgaWw4C4SUCMOy5pihfPEDToJZsP4bh09Zq6qs6KQTyEwLFAwqKTHcNK5XUFJdNrCiIMWTuo9/W4nIc86koehwC9KTfNv4VaQdilov95Zdf8Mor0oFshiENYs02ABn3M/iWACbopPhyjxt89v9nWBzV8+XLS9WlEaegd2b3UbNw9tpNmUuqtlaMAHPN92sVgRfa1oSrk7xUkZ6RiY4fTVflLa14Dqih5x4CXOSrhxbD+882QemiUq5V/xokveqZMZKOrarqXM6e37pxz8PXUy5Ujnno582bh27dtOUGAfAhgC8B3L6fwb+oq/3+qY77F8rZ8O+2Yu7cFStWoGjRojLdRNvLcQloP/x3ZN1RueelwbPSDlQbMhlHh3ryG0Le8omL19F99GwrvXs1bIVA7iPgYG+H3s2r4cUna8LVCFX9heh4fDFnE7YcvaASkuXgMS76uCdKaqgNv3TpUrRv315oTjQQ/ehG0x5/P4MfCYBFZqTEKu40Jk2aBF9f+d3hX3tP490fV2i4B9XFWhGoHRaEYc81Q3Ahb+lb4IT/37eLsf34Jem+qoNCIL8j8P3ATuD7Zwwt23EC3yzYhphbycacJl/0nf5eV1QsKV90ZvXq1ejYsSNoj9dAk/RSfFx2Bs/VlmL987In/OSTT0R5WDc3OVUEr/PZrA3K/i4LuBW3pyTRtXFFDO7aWNNdRN9MRL8v5iv1vCb0VKf8jkAhLzdMH9oNDKHTSjSrfj57I/7cdlyFqD4GxO8HdETt8sHSUK9fv17EwjNkTgP9AmCoLh7+enYGHwLgGwBPyZyQBWZmzpwpBiNbQY7SWJeRM3HmqqabkBmmamshCPh6umJAp/qa1POcLzPWHhDhOvSiV6QQUAjII/BEjVB88FwzeLg6yXfW9zh07hpGTF2Dc9HKd+pRII5/9Sk0rlJKGudNmzahe/fuuHr1qnRfADMBvKPzpr+ancHXAvCdbIlYquXpENC0aVPpgcQnpaD54F9AT3pF+QMBqqvG/+8pTXG5zHg4+McV2HpE2f/yx2xRd2kOBKhFG9CxHno0r6LZq57jYmz8xD93KP+pRzykz59vjdY1y0o/xm3btqFHjx64cEFT8rcFAAYAiMrO4NsAYJGZkjKjYVJ8uvQz0Y0s7T99RahbFeUPBOg93yqiDD57gVNNnvZGXsboWRuUxkceOtVDIfAvBEoEFMTHfZqjaoi8Y7ThRCzr/fqEP3H0wnWF7kMQ+KRPC7SrK+9MvGPHDvTq1QunT5/Wgi0LzrzOku/ZGXwPAD8AcJc5Y9u2bcH6tWXKlJHpJtrO23QYo2ZukO6nOlgnAsyPPbJ3c7SqIb+jpZbn+6W78OvqfSqblnU+fjVqC0KAUvwTNcvinWcaglEtWuno+Wj0/3K+Cpt7CIAjejZDpwbh0vDu3LlTFG9jZTkNtFyfj/6CgcHTa/41fbF4qQx2L774IkaNGoWAAPmEJZ9MX4f5W5gbX1F+QKCQtxuWf9oPLGkpS7dup+HLuZuxePtx2a6qvUJAIfAABLzcnPFahzp4pmElULumhegXM3L6OizcekxLd5vv88GzTfBM40rS97l792706dMHx49rWu9W6fPRnzc8VVYj+EAXGD9YdiQjRozAe++9BxcXuV0gw/ue+2w2jin1jizkVtu+Vtkg/PBWJ03j33HsIj6dtQGXYphqWZFCQCFgCgRqli2Gwd0aIbSYv+bTsV58n7FzcT1ehc3dD+JQfbVMWXD37NkjGPyxY5o2TkzxyZw25wwMnoF6n+t+kEqc6+DggK+++grMQy9Lt5LT0HXUTFy7mSTbVbW3QgQ40T57vhVa15RKkijuNCvrDmZvPIyxc0QFREUKAYWACRHo37o6+repodmrPjU9Q5Rs/nH5HmRkqWI02R/N+90bo2sTVmCXI0rwffv21crg1+gLztxj8HSsmwKgtcww/P398c033+C5556T6Sbanr4ch1fGL0LsrdvSfVUH60PA3dkR6794EU6O9tKDZ7TFxMU7MHfzEem+qoNCQCHwaAT8vdwwun8r1CwXjALaNPU4dTkONLkyfE7RPwjkkYr+Pwyebn6Mnasq83DoWEcHOzraydK2oxdEBbn4JFUiVhY7a2zP4jIzhmrLrXz8wnUMmrJMaXus8cGrMVsFAvXDS2Dsi0/A3UUqiem9e0vLyMTcjYcxZdkuJKWoHBUGYD7u1Qwd6ue6k91f+opy9yT4agCW6rzopWImqlevjgkTJqBuXenic1iw+Qi+mr8VSSphiVUsAMYO8u3ODdCrJaeZHN35+29sPnwOAyYtk+uoWisEFAI5RsDeroCo7thJAzMyXOTi9Xh89sdGbD9+UZWU1YMypn8rPFFL3izJOHhqxs+fP5/jZ5itIXO/vwrgnhc9OfR6AM4yZ2varBkmTZyIsLAwmW6i7XeLtuP3tQfAnZ8i20aAZRNZdKGoH3055YjzY+Li7fhtzQG5jqq1QkAhIIUAw+XmDn8WAQW1pbG9c+dvTF+zHz+u2IPElDSpa9tq469ebotm1ZgkVo42b94sMtlduXJFruPd1osB0DHuEi0ujFl6Qi/BS52sQ4cOmDx5MgIDA6X6sfH7v6zGqj2RKguSNHLW1yHQxwOzPngWBT3kIi14p0ym0X74b0hUaj/re/BqxFaHQJvqoRjzQmsU0GiMj09OxcCJS3DgrLLFC0H29XZoUFEqd5yYMxs2bBDp3+Pi4rTMobm6SnKsCX+ZDN5B7z3/k+yZevbsie+//166yExm1h28+d0SbDt+UfaSqr0VItC+Tjm892xTuGkoU3k6KhZdRs2ywrtWQ1YIWB8CPh6uGPdiG1QvFwSN/naY/pmhX+AAACAASURBVNd+TFyyAynpSjv748BOqKmhet+aNWvQuXNn3Lp1S8skmg7gXV0s/DU+Q1YcILf/TOZM3OG99NJLQoKX3e3RK/rt75dj7ylN6geZYaq2eYwAbXvjXnwCTaqU1pRMY86Gwxj9h8p2mMePUV0+nyDAhDcNK5bEyD4tNGe4YyGoF79agGMXY/IJag+/zd8GP4PKpYtI47Bq1SpQQ56WpsnU8TOV5IZqctSbfqKvPpPjgTg5OWHAgAEYO5a15eWIyUqG/rwKR85Hy3VUra0OgYLuLvjujfaaaiLTptdt1EycuqKqDVrdg1cDtloEAgq6482O9dC2VjlNm3Le+PKdJzB82pp8b4KdN7wHyhTzk54Ly5cvR7t27XBHWyE21pQZrrPDi3rwLOLOAvFSSW48PT0xdOhQccjSiYsxGPHbGpyMipXtqtpbGQKVShXGJ31aomQRH+mR30pOReO3f8Tf0j1VB4WAQkArAjS/N65cCoO7NtLkGMvrpmdkovfn83AiKn9L8avG9EVhH0+pR8H0vwsXLhQqeo00HsDHdGEig6fLJGPg28mczM/PDyNHjsT//vc/mW6i7b7Iy/hk5nqcu6ZqCUuDZ2UderWohpfa1oSnm1SAhrjLXScu4aVvFlnZHavhKgSsHwEPFye81bk+2terABam0ULr9p/FOz8sB0Nd8yttG/8y3JxpBc85ZWZm4vfff0f//v1z3unfLWluHwPgFhk8Y5cYZNxA5mxFihQR6nmWtJOljYfOYuyczbgcq8mBQPZyqn0eIeBob4f3ezRBx3rhmjJkvTV5GdYdPJtHo1eXVQjkbwQaVy6JId0aa5biGSr30lcLcfxS/pTiGR6887v/STsr0u4+adIkvPXWW1onIOvKfA0ghQzeG8AWXfXWijJnCw4OxrfffouOHTvKdBNtl+04gW8WbkNMgipOIA2eFXXwdnfGsB5N0bJ6qPSoU9Mz0Xror0hIVpkOpcFTHRQCJkLg0/4t0aZGWdjbyUvxWXf+xqrdkfhw2hpkarMlm+gu8uY0xXw9sWx0X+mLJycn4/OxY/HJyJHSffUd3gRAO3wmGTyNowcBBMucLSQkBFOmTEGLFi1kuom2TGk48c8dYMykIttFICzYH0O7N0GVEPk8CVfiEtD909lgmVhFCgGFQN4gwGpzn73QBn5edNWSJ2a3o0P10XxYNbRyqSL4bcgz0qAxNG7YsGEiS6wGYrUfVpL7lX3J4H0BUA9KST7HVK5cOUydOhV16tTJcR9Dw6mr9uLHFbuRnJoh3Vd1sA4EOLGeqhOGd55pqCncZtnOExg1Y72KpbWOx61GacMIjOrbAk/VYbkSeUpJz8DMdQcxZelOZGTekT+BFfdoUS0EX7wsX6fl5s2bIkKNdngNxPKsZPB/GBh8IV1pOQakM+FNjik8PBwzZ85E5crypfAm/bkDU1fvQ3qmKi2YY8CtrCEdc/q2isDrHeTrFNCLdMhPq7Bm/2kwVE6RQkAhkHcIlCnqi2mDn4G7i5yzmGHEe09dxqcz1+Ps1fzlVN23ZTUM7Czl2iYgi42NRb9+/bB0KcvDSNN1faEZ4Z1MQYuqeemUclWqVMHcuXMRGipvX/1q/hZMX3MgX3tXSj82K+vAqlQvta2FPq0ipEeekpaBl75ZiMPnVJ4EafBUB4WAGRAwRopPSknDhEXbMW/zkXwVFz+0W2N0ayovAF+7dg2dOnXCjh07tDxJVqdhoZmVBgZfAcBR2TOxktyiRYsQFBQk1ZUS2dg5m/DHhkNS/VRj60KgqJ8n3u7SAM2rlZEe+NW4Wxg4eZnKkyCNnOqgEDAPAsX8PDFnWA+4u2qT4mlyG79wG67H5x/H6q9feRJNq5aWfiBRUVFo1KgRzp07J90XwDFdBjvGrm80MPhaumIzO2XPVKtWLSxbtgz+/v5SXdMysgSDn7/5iFQ/1di6EKhSOhBjnm+lKcRm5e6T+HLeVhVlYV2PXI3WhhFwcrTHyN7N0aamfOlTwsKkVUN/WYVtRy/mm8RVM97rivCShaVnBRk7TeApKSnSfQFQ7H9dl9dmr4HBNwSwSfZMdK5jvlwvL7kSoHS6GDt7ExZu5UZDkS0iwExYzaqUxhcvPykd/86cGF/O24TZGw4jIyt/OeXY4lxQ92Q7CFQoHoDvB3WEp6t80iqi8P3SXZj61z7QBJcfaPWYvgiQzGJHXI4cOYJKlSpphWg1AIbJnTQw+JYA+KMU1atXD6x44+rqKtWPhQg+n70Jf24/LtVPNbYeBOhg175OGD7s1Vx60Exx+fH0dVi2U8xPRQoBhYCFIFDI2x1DujVC84gy0slbeAuRUbGiyBhrkdg6uTo5YP0XL8LFScp3XcBCwblNmzZaIbpXKtbA4Jmi9k/ZszVo0ADr16+Hg4PcDTCumRL80p0nZC+p2lsJApzc/VtXx4tP0vojR6w0+MmM9Vi7/4xcR9VaIaAQMCsCrAzJpDdDn20CD422+ME/rsDqvafNOk5LOHlIoC/++KA7HB3spYfz448/ikqtGomV5N7WVYgVuyh60Xdh7hnZk9EJgEXp5UvFpmLsnI1YvitS9pKqvZUgwJrSo/q1RP3wEtIjPnYhGmP+2Kg86KWRUx0UAuZHgIyL6WtraahxztFtPHgWg6bYfn76ZlVLY+yLT2jK4z98+HCMGjVKy8NkTPE3AAYzi52BwXcHMEv2bGTwGzcKRz0pupmYgs/nbMLK3YrBSwFnRY3pcTtjaDcU9JAz3/AWl2w/ji/mbUZCsspgZ0WPXA01nyDA+hL929RA/zbV4ewop70lRExB/fTH03ElLtGmEevbMgJvdKqrKcVvz549MWPGDC34MDXsaH35d9GfEvxzAKbLnk0rg7+RmIKxszdi5Z5TspdU7a0EAaaonfXBs9J2Ouaunrp6L75bvB35uACVlTxlNcz8ikD98OKilGyJwvIloInZuDkbMWOdbYdJv9etMbo2qQQ7ehxLUt26dbXGwDOT0IcAvjNcklfvDWCa5BjQuHFjoaKXpbhbt4WT3eq9isHLYmct7WuXC8L3gzpJD5cOdkxh/OPyPdJ9VQeFgEIgdxCgLf6TPi3RpmZZ2NnJM7Abt5LReuhUm46S+frVJ9GkcilpEzafYEBAAGJiNFXgi9Kr5+9p5Pl0WO5GJKaXIcXgZdDKX2071C2Pj/vIFyGiAybTGKskSPlrvqi7tT4EujWujNc71IGnm7aQuZ6fzcGR87aZqZIbIKb2raghBj4pKQmenp5aJwQ91xkDvza7BJ+rDP5G4l0JfpVS0Wt9iBbf76NezdCxfrj0OM9fu4nPZ2/E9uOXpPuqDgoBhUDuIRDg7YGJb7ZDaDG5RGeGEf6ycjcmLNphk0lvAgq644eBnVCyiLwJY8/evahZo4bWB7kbwPMADmdn8JpU9MoGr/UZ2H6/xR/1RAktkzvyMob+vBIxCbdtHyR1hwoBK0fg497N0V6nrZONpOJtR0bF4PkvFyAxJd3KUfjv8CPKFMXo/q1QxFdeEp/222/o26ePVkzW6xLcPKvLRX9PNUIVfU8A0nXptDL4m0l0stuEFcqLXutDtOh+Tg722Db+FenwEFaQY+z74J9WqgpyFv2E1eCsDQEyYGcHO5F0he+nvb29eD/pEW9nZ/cvZ1i2vfP338jKuoOsO3eQeeeO+M5Sr2mZmWCqcf7NeKwaoUUxZWAn6Xed+MXEJ2PQ5KU4YoN14jvUDcOgzg00RRENGTIEY8eO1TLF+EiYz4YF6O+lCiSDJ8efKXvGhg0bCic7ThAZSkhOFSr65btUpjIZ3Kylrb+XG9aMpZZIjriYrNgViWFT/5LrqForBBQCAgEybS9XJ8FYgvy8UKl0EZQK9EVRfy94uDgJj24ycDp2F+A/rv73+cjxd0aw/E0Wrv80/M1NOIuF3U7NwPWEJFyJTUT7euU1lZG9nZqOH5btFqlrbY1eblsTfVpXh5uzo/SttWvXTmuZWKpCmOSGhWbukeZEN/Xr18fatWvh7CznZJGYcjeT3ZIdKpOd9NO3gg6lA32wYASVQnLEvPOLth4TdaMVKQQUAo9HwL5AAQT4uKNkgA9aVC+DxlVKgxtsa6FNh8/h7SnLbc6bfniPpuhQv4ImzUZwcDBYTU4DJelj4Mfcz+DbA1gse0Lmov/rr7/g5iY3oZiLngx+scpFLwu5VbRvVLEkvn2d2Y/lKK939PZ2dnCwLyBSS7o6OcLV2UGUxnRzchQ7cXdnJ3i5O8PLzRmsde/q4gQ3R0dk/X0Ht9MzkZicBuZ4YNWs5LR0JKWkg1EBnO/JaRlIS89EZtYdof5UpBCQRYDSt6uzI3w9XRHo54m6YcGCifh6yq2/stc1Z/sDp6/ig19X43LcLXNeJlfP7e7sKOzv3GzJUnx8vAiRy8jQVIznBoAB9+e0oQTf2lAcXmZArCa3cuVKeHt7y3RDanqGUNGranJSsFlN4wEd66JfG3kvUOZHGPbr6lzxoKdq0snBQTBqfy93FPZxFwult7sLWMe+XFAhlCnmBw83Z+lkPdkfVHpmFi5E38ShM9dwLvoGYuJvi8UsKiYBSanpguErUgg8CgFnR3sU8eGc9BdhV5TUA/28jJqXloL4mStxGD1rA/aeumIpQzJ6HEzl+2HPZqgSEih9rq1bt6JJkybIzBRZZmXpqt7c/q/0smTwTQGskz1bzZo1ha2AOw4ZysjMEhL8XFUPXgY2q2n706BOqFEuSHq8l2MT0HvsPJDRm4MooXu5OSHQ1wthxQuJOvV+nq4IKeqLskGFNFV9kh0nZXcuapRcomITcOjsNURejkVySrpNhgvJ4qPa/4OAi6MDyhcvhJrlglA1JBC1woI1qXwtGdP45FRMXLwdczcdseRhSo2tbvlgDO7WGKU0RBF9//33eO2115CVlSV1TX3j8zo+3kgXJvevGGMy+Do6KX677BkjIiKwaNEi0GYgQ1RRksGrZCYyqFlHWya1YolESsKydPpKHJ75ZBboyGMqopcwVZrhJQujXoUS8PVyBUtelizsozlBh6nGRumecf/no29i+7GLWH/gLLjgKcrfCNBRLrxEAJ6oVQ7VQgJROtBXU0Uya0CRjrXTVu/DhMU7TPre5+W9t6sThoFP14efBl+IAQMG4LvvvsOdO5o0e/sB1M7uQU8cyOBZWV46MXCVKlUwd+5chIaGSuP55bwtmLH2gLJHSiNn2R1oq9701UuaJI3D566h1+fSRQ0fCIi/txtqhBYTi2QRHw/hVezv7Q5mmLJEYvKny7G3sHTHCRFdYouxwZaIu6WNiRvjXs2rolWNUAT6etosY8+O+5yNh/DlvK1Iy9CklraoRyjSwraKwCvtamsqxNOqVSusWbNG62ZnNgAWjvsXcUz0BpAuvh1esSJmzpyJypW4P5CjiX/uEDs3SjGKbAcB7lpXjemnicHvjryEF79apBkM2tNDi/qjb+sIRIQWhaO9PZydHDQVe9A8CCM7stJWZFQspizZgV2Rl5WN3kg8raU7Q9caVSyBD3s1F06cWmqIW8u93j9ORs58OW+zTWxq3V2c8GbHuujWpLL040hJSQHN3kePHpXuq+8wAsDIBzF4GtGlkwKHhYVh6tSpqF2bWgE5InP/Yflu4WGsyHYQKF6oIBZ+/JymEonrWSd68rIcg0GvYibuKFzQA82rhaBr40oI8PHIcX9Lbkgz1tRV+zBz/QHhk2BCq4Ul33a+GxvnsI+nC159qjba160AJ0f7fIfBwq1HQY0uo06snYoX8sbgrg3RoFIp6Vs5dOgQOnTogPPnaUrXRF102vj5D2LwfgAYeCdlOC1dujQmT54MqhVkaf7mI5i4eAduJKXIdlXtLRiBiiUCMG3IM5oY/I/Ld4OanUcR1U1Ojg5C7U7nuCdqlkXzamU0VbSyYBjvDe34hev4esFWHDhzVWm7rOGBSYyR/iFhwYXwylO1UbdCcZudw4+D5I/1B/HV/K02Mb+rlC6CYT2aIjRIPj//7Nmz8eabb+L69euPg+xh/8/iH8cexOB9dentqBcoInPmoKAgfP311+jShRsHOVq1J1I81OibjM1XZCsItKleBqOfb6NpsRry08qHFiAiY6f6q0KJABEq1KRKaVQuLTVdrRZiRp2Mm7MJK/acQuLtNKu9DzXwfxAgc29QsST6tqqGyiFFbSLkTcvzNWiqJizaZhNRJA0rlsTIPi3g4+kqDcfIkSMxbtw4sJqcBmLoEXcV/5GYuXYWBLANQHmZEzM8bsyYMejfv79MN9F2+7ELGPPHRly8niDdV3WwXARealtTOJhQ9ShLz4yciVNX4v7TzcPVCTXKFkPDiqWEbb1E4YKazi87HktqT1PWzHUHMW/TEUTHa1oALOl28vVY+Gp0blARPZtX1VRtzJbAYx6IX1buxaQlj9bcWcM904G3fZ3yGPZcU9jby6Vvp9d8v379MGPGDK0hcnsA1HwQTlyJvQAsB1BfBkgfHx98+OGHGDhwoEw30fbYhWh89NtaRF7+74IufTLVwWIQGNW3BZ6sHSZdXYqhcfUGTEFK+j+etMwkVycsGF0bV0ZwIW8UK+SdbyUdPmDaKJdsPy5ydyvNl8VMeemBdG1UCS8/VUtTGJX0xSy8A/Pa/7pqLyYslo7Strg7oyDy4hM10KdVdemxUS3fq1cvrF69WrqvvsMEAG8+jMHTM4nFZqTyi7q6uuLtt9/GJ598Ij0oZvJ67+dVOHJe2rdP+lqqQ+4hMPXdzqgaUlT6ggyRqf3GZNGPmbvqli+OPq0iRLy6FnWX9ACspAOzQFKK/2nlHsQnqZh5K3ls94bZqX4FvNGxnsjNoAiicM2vq/diwiLrZ/CFfTzw4XNNUb9iSelHu2vXLrz66qvYt09z4Z0eAGY9jMEzmTFXV9aFzzExtOOll17ClClTctzH0DAhOQVvTVluUykKpUGwsQ5UUc0Z1kM4v8kSmVWzd39CSDFfvNmhHhpWkn9JZK9pre2ZBoiJouZtOmxzRTqs9ZnkZNzVSgfik34tEVRILrV3Ts79qDa0czP8krUebqdliCM24TZuJt5GXEIy4m+ngn4eBqIJwZV1F1yc4eHmAm93ZxQq6A43ZycRtcINuIuo1eBodF4JW2LwFEYmvN5OaBtliflk3nnnHVy8eFG2q6F9iI5/n30Yg6f3POPn3pU9e8+ePQWDd3d3l+rKDEYDJi7F1qMXbMK5QurmbbQxX/6ZQ7uJzFuylJCUikVbj6J3qwhp9b7stWyhPU0a3CBvOHRWhdBZwQMt5ueF959tjHrhJcwyv8nEqQWjEyY3yyx6dO7aTew7FYWDZ64iJuG2yddZOgoG+3ujTDFfVCoViK5NKkknd7ElBk8P+p/f7qwpB8hXX32FESNGaHWwi9E7yD8w/R1t8Cxayxqy38i+K+3bt8ekSZNQrFgx2a746Pe1InOXKrghDZ1FdmCCjt8GP2NTjkOcm5lZWcjIvIOU9AyRM54SEEvb8v+ysu6IiAFqL5wdHUTVOU83ZyHtODrYwcHB3mx+A1l3/sYr3yzE7sjLFjkf1KDuIlDQ3QUvP1kLzzSupGnxfxiOzI1Ayfx89A1ciI7Hhevx2HL4PE5GxeZ6yBkLNP3xQXd4uUlFWot36OeVezB5yU6rni58/7s3qYx3uzIVvBylpqZi6NCh+OYbafZruNAqAE8AD97DkcEzu8LTAObIDQ1o3LgxJk6ciPBwhuDJ0c8rduOnFXv+5VgldwbV2pIQYBa7X97uLLzcrZHIMFPS0nEzMVXkh78Uk4DElDSxiPKgWYmqzfikFKSkZSI1I1OoNu1ZYtbeHp6uzsJfgLY4frLMrJ+3GyoUD0DxgIKgEw7NWqYkVqp7ZfxiXL2RaMrTqnOZCAEHOzs0qxaC97o3NpndndL6jVu3sfPEJZy5cgPbj1/EiYsxJpfQZSCghmLu8Gfh5uIk0028Vz/p+YBURwtrzMyDdDBuXaOs9MiY2GbQoEGirotG+gzA+49i8Fx1uPVYA8BB5iLMRz9hwgQ0bNhQpptou3LXSYz+Y6Ooma3I+hFg8pkfBnUSzMwaiAtlSloGYuKTsScyCgfPRSMtPQMJyWm4EntLhKMZm0qZEj1NFswrzjKS7eqWF98p9ZuCKAExadS4OZuRqa1AhSmGoc7xEASYZXHM861FeKcp6NbtVFGUaMPBczh07qpQxVtClsNi/l5YOOI5kYRKhhj+OWXpLvy+hnVSrJeovaMGQ0sFue3btwsHu4MHD2oF4FkAfzyss2GloW//Sn2wfI4vVKJECYwfP16k2JOl/acu460fVuBmospmJ4udJbYP8vfC5AEdNTmZ5Ob90E558lIMlu06idOX44QGKfZWstm90umURJtlySIF8XqHuggOKGgS9T3fn28XbcPCrf9JYpWbsKpr3YcAF9Z+barjtfZ1NGV2vB/QE5di8PX8LTh95QZYnMgSGLthjCUCCmLRxz2lNVQJLBf75w7M2XjYqudPgLcbln3aV1MNgYULF4pcMvHx8VowYH7fWgAeujswMHjq2KmiryBzFS8vL5HNTkuyG6pA+38xHzEJyTKXVG0tFAFKqN++1g7czVsa0YP4zNUb+H7pLhw+Hy1sf1QP0tkzt4nSO+vQd25YUYQCujrRBUY7caFfvfcUPpm+DkmqtoN2IE3ck2abVZ/1ha8ng5S0Ex3RZm84iIlLdiI5NUNrpTHtA8hBz6qlAzF1sHxG0+vxyRi/YKvYbFszPVmzLD59vrX0LaSnp4M14FkmVmOZ7CMAntLtJS887OIGBs+Kcj8AaC47SqbXYzy8rH2R6tHOI2fgSpyyH8pibontI0ICMeaFNsIGnddExn07NQNRsQnCkXPJjhMWZwrii9e2VjmR+Y/aD9n3JzvG3LBQiqeq05Iku7yeB3l5/Q96NMEzjeQrbWYfMyXcz2ZtxKp9p0TM+KOI88dB7+zp7uoEH3cXUSaZBVDoF8PvtBVTLX715i1EXrqBazdviWJGNJPSHKV17rSKKIOxL9HPS46YD2Xc3M3YeOicXEcLa/1p35Z4sk6Y9KhiY2Px/gcf4McfyHo1EfPXDAAQ+zgGz8Te4wD0lL3M4MGDMXz4cHh4yC/s/b6Yj/2nr8heUrW3QAQaViyBEb2ai7rreUG0qZOp00Hu7NUb+HPbcew5Zfke5uElAjC4ayNUCQk0CrbVe07hq/lbcE3VdzAKR1N0ZkTJ8k/7wMPVWfPprt1IxNfzt2LtgTOPjDRycrAXm2rGX4cW8xNOfRVKFAbD2HJCsQnJWL4rEhsOnsXhc9c05Vbo2zICAztLJUIVQztzJQ6jZ22w6nwoTMu9eGQvTabJs2fPigx227YxU7wm+kAf/cZc9A8kgwTP6Hw2lo6F7927Nz777DMEBsovUJ/N2oA/rNz+oumx2GCn1tXLYEj3JibzFs4pRJTWmbr10LlrOHkxBgu3HTO7PT2nY8tpO9owP+zZDNXLyoebGq7BkL2hv6zCX/vOaFX35XS4qt1jEOjXKgIDnpZneIbTkul+v2wX/tx+QsS3P4jIwMsFFxIOfA3CS4i5Y2+XM6b+oPPRVDp5yQ4s2noc3CzLkFZtxbEL1/Hx72tFaJ+1UpCfF/4c1VtTfYwDBw6gZcuWoCSvgZjKsheABQAeams0MHjGN7wG4EtAzveHA6Qnfbly5aTHOH/TYXwyc4N0P9XB8hDoVK88BnZuAG93uVhYrXdCmxXNO5Q86AW///RVxCebP30rY16ZyYuJfbjIMuadIaiMlediTFVnWmYWmFZWZp0sF+QvKlFx0dZKlOJZxOmmKsOsFUKj+zE07rchXYQUrYVoupy94RB+XrlXhGk+iPw83dC2dlm0qVEW4SW1XedB501KSUOP0bNxMUauCNikN9qLJD6yxCQ8w6b+JUJSrZW6NqqI93s0lR4+C8wwNK5z587SffUdIunHqS8U99BzGBg8P5/T2+GlEiUzBn7q1KmoUeP/7F0FdBVJFr2Luwd3dw+EICEEh4QAwT24u7u7u7sHd0hwdwvuNrh7YGZze8Iuw0DyX30P/c5hlzPU66p63b9f15N784oXevzyPTQau0aspyvYngWqu2RDywoFNKAXcwodO4tz5m47rn35sxfY3K2WDMPFixEF+TMlg3Pm5IjJfGbYMNqJiXlNOnj20X8Dv2HLGl+WjCqcuHJfe4ERICc4h8853HKlQf+6buJ+4m/2/vT5C2oMWYYbD1+Y8xbo1w7GAvkzJMVg75LKqaor956i3dSNv6xNYhFr3eK5UMYxPWKY4WO619xt2HiEvsNwWd6zutKH6fEr99F99ja7LrQe1rAUSjvK+99ZYEeAG6LYKcqWoPz71eD0v2/ILRcIeUdg+aSSCWPFioVVq1ahWLFiEjVt7KMXb1Cq+zyxnq5gexao45YTTcvn1wBdzCEMGhI/e/72k9h99qb2AvweQ9scc/KazHHWKZ4TlQpl1fZGQBtD+ti/1QSwqIkn+wPnb2PprjO49/T1L0OgkcKHQ81iOdCmorPydqZtPKKFdyXRA+XJdMV/WaBrtSLwKpxVqWWKH4mtJqzH4ct3fnr/GDWq7pJdK8zk380hHaZuxM4zsqK3LYPrIVFceffMoQt30GnGFq3wzx4lXNgw8OlTUyPFksr79+/h5uaGw4eVqXInA+jN16KhDp5JIyrlkC7Wx8cHFStWRBhhDogvbec2U3U0O6nBbXB8g1K50aiMI6IK0awM2cqnz1+x+cglTN5wGE9f/7KexJBLicbwdL6yV02td91Ucu3eU3SZuRU3H7/8aa48Y7J46Fa9KHIqFt19/foXHFtNFudRTbW/3/k6jMKMalIGrjnTQAW0kMWhXgOW/PLeZU4RX7t+YgVnauh9KdtjLh48f2vocG3cgbFNwcp9qew6cwMdp22222c1W6oEWmtw7GiioLdmpufPn8PBwQEM1SsICzO6BVK98/gfP2pRJQAAIABJREFUbMHE9yf4TADGB96vEtIJR4wYgdatWyNSJHn+tdGoVTiuV9JLTW5z4xuXdUSDUnk0PHZTCEPxbz58xsXbjzFhzUH433lsissafI2w//kP+tcrjvIK7S8hTcIe/I1HLmH2luNageD3RU10EvxYalIun5i849u8pbrNwaOXOr5ESPfB1P+eNUUC9K7tqhSu5vPO/PfFu+QO+blkT50Q45uXNxuF8tZjVzQab4nEihYJu0c1lqhoYxl9W7XfH8OW7RHr2ooCo5YtPJw0Zj2pMP/OQ7GikHauA4BVIel/7+DjAxgLgNyyIiFtLJ18zJhyqrxxq/Zj3g77hioUGSuUDm7l4YTaxXOZJHRIB3jmxh/YdvwqVu/3t4rFWMi0pEc1s/X187N7z5kbmLTusAbC8z3QRaqEsdC3TnHlU/yWY5fRffZ2q9jtd560WtHsaOmeXyk3Tl4Bnt5JZPQrIRXzwHolwJO8qeXO45doPn4t7gtxSVxzpMbY5szuykSDqd1wBAv9TssUbWQ0P8RZL0Msi7AGtiR+v/SmTZtihnr/+6EggrgQjfe9g2eMZXhg9KBNIH2sqN+iePHiWLx4MeLHlz94W45e0dp7dLFvC7CX26tIVi1nrSo8yd5++AIM3RG+0po93RmTOmByGw+QRMec4nfyusas+H3FNEFLOlUppAGlqNiTxX55WzLbposlLdCsfD40LJ1XKf8+auVeLPILHo+c0bEarjnQqKwjIpswB0+441E++8B3sbRFrm1FZy1yJxXO2W+BL/acuyVVtYnxCWJF1cB9cqSWt4fzYz5dunS4fv26yl54NuDJvUlI+Xde/EfWi65BiXsRWknq1KmxZ88eJE0qqs/TNnf13lNUGbRUZaO6jg1ZoGetoqjonEWZEpNtZkcv39WK6M7feqRVnVtTyJA1r7MXHGKJfgriJfPHzkrircf/WQzLtjmejFTzrW6dZ+PZG8vVK4g3HsoU2FHRrpIzarvlVEIlrD1sOc7fCjkNRdRD9tjz5MwiL2Pl7YfPWOR7Cot2ngb/LpWJrdxROGtKqRoev3iLNpM34JKd9sAXzZ4KXaoVUfp9kkEuTZo0qvl3kreQW5a4NSECFvzo4Nk4T/o5Ef1R+PDhce7cOaVeeIZqSnSdjfeffg7oIH5ydAWrWKBD5YJgiJLMSlIhWM0SvzNYuvss/nj2OuSnVjqBwnhWKa/pWxuJ4kZX0JapXLjzCDWH/JOtmf32y3pUR7qk8WQXCxo9btUBzNtxUklXV5JbgGyKnasWhluutGLl+09fo9GY1QbR/vKFTdS6njVd4ZgxqRLAyrcFknhp6e4z2m9PFUNiRa8aSK/wjD549lrjIrFmlE58o75T8C6VB43K5FVqaZ09ezYaNWqkOv0fQfn3XzLIfX/hHx08segnBdLPiYF1161bBw8PD/GiWWzBG00SEF3s1wI1imbXCk5U+uA7TN2EAxfu/BK1y1pWaVuxABqUkuM7SNdLzHGXjjP/pdakrKPWEsV8n1Su3n+KKgP1yJjUbqrjs6dKiO41XJApuTxNue6gP0b5HAAdriHCp4G/sxGNy8ApUzJDVP415vnrD5i28TDWHbqITwFfla5BJb8RDZXSWHcfv4LXwMVGza28aCMVo0YMr53ePZwzy1DhguatVq0aVqz45we9YEkXAVQFQKKZEOXHNwfZ5OYGUdCFqPz9gAEDBmiY9FLh6W3o0t3w2WedYirpevXxP7eAh1NGdPAqpJFaSMW913zcffpaqmb28cxzbh/urfW+m1PW7D+P/ot2/WuKqJHDY8+oJkqhWGLye/ZdZM5l69f+zgJFsqVEr1quiB9LzskxYvle+Ow7r6EgSqVmseyoVyKPBhEdLmzYYNvzmA5iAeuth8+1Isxbj5UoSv+3RGLu7xzZSOn5PHH1HhqOtk+Qs0zJHdCtuotS/v3jx49aeP7BAyUOFobk9weRwhmUw/zRwbPhd3kg/F1J6YNGyD32w0uFLElLd57BSJ99UlV9vA1ZoETuNOheg1j08qK0BiN9cOo6I0+2J8T5ZjGNqdr/ftyhxqrYfzEePP83qyLD9AfGNVPqTGDYt9bQ5cqhV9u7E7a9opJ50qJ37WJKH4N95+/ApqNXgiWVCW73dO5Et8uWKqHW9RE7+t/McXy5s2iOz9iTl+/w8MUbrD1wAX6nb5jEmAUyJcek1h7gcyqVJTvPYMSKvVI1mxhPxEk6eAcFYi0/Pz9UqVIFL14ooU3SqU8E0NFQQ/zszvAET1Y5UTKVWPSXLl0ydN7/jeNX5b7zt9F28gabyL2KN6AraBbInzEpBtYvoXSC6TZzK7aeCBZx0WpWZiFTu4rOqOqSDREU6guCWzgJYtYevIjRPvt+WVQ4s70nHDPIw7Cv333UKqNJWKKL+S1A6FgSBqn0RHedtQU7TlwXV7D/uKuokcKDvfjZUidE9MgRtGI/tt09ev4WRy7f1SCTQ6KdlViKHQMtKzgppZD6zNuB9Yft79nkh1NN1xxo7VlAKXLRt29fraWcJ3kFYdVsXUP6379d+2cOntV5RMkRxZoiRIigofNEjSqvOr589wkajlmtVMWpYCRdxQwWyBhU9a0CWTnWZx/m+4bY0mmGVRt2SZ6QWno4wd0po8mcPGFJ/U5eC5HitVDWFJjUSl7bwtTXpiOX0We+r2Gb1EcZZQH2Q9PBq0DItpu6ScNECLEk2qgVml6Z5Ej8TfBDQir1R/jg9A3bjNoFt5cEsaKBBcWlFPHnvby8sGnTJtUK+ueB7HHZARjMg/2zO1MtCLI2rvSmHT16FI6OjlI1PHj6Gp1nbIb/nV+jOIkvqitY1AIpHGJpfeNJHeRgR4t9T2GkD1NLtivxY0WFd6m88HDOZHS4ns53z9mbGLf6AFhsFNyLndC/B8Y1VTLM7jM3NeISXcxvgXL5M6Jv7WKIEF6GA8EiYzr4A/63zb9IE88wuZU7nLOmVCo0K9tz3i8JdUy8TJNejkWUwxqWRAoF/Hl/f3/UqlULZ84Ej3cQzIJJvcpCeIPxbX/m4IlasA6AmJyatLGtWrUSG5SgBwxTbjxyWayrK9iGBRLHiY7p7SoiWXy5gyfNaZdZW21jI8GsgsV2PLE0KptXqdaAlyYIje/Ja1r+kbSuIZHCEDL3xFT5b4pz7Tt3Cx2mbQoWHc3mjW4nCySkcd/abggfTtab/ub9R3ScvgVHL9+zk53+vUw6jkXdqirR1TJNUKDNVI1W2Z6E3SwuOVJiZJOyIC2wVBYuXIiuXbvijz+UIxedAyProyTz/szB8w19AkAayYU4tk6dOliwYIFUTcs/EuCELFi62KcF4seMilkdKyF5fDkxC7ncG4ySF2hay1LE357TqRJSJ5QFudgON2CBH/zOyIqcNgysg2QOcruyVW7wkl04ff2htUz128zLD78+Cg6ezwQZ1Y7ZmYOPFyMyZnf0QooEKs/lM1QZuMTung0W2mr1OEUZJZdL586dMX78eAQEGFQA/7MJOPE5ycy/Sp4wFOAiuRDHpk+fXiu0k+ZkGLLccOgSBizaaXShiXTN+njTWCBOtEiY25k/eDl1Ilm0KvVfbJqFWPAqedImRlP3/CDISayokRApYvj/FRz9hb/wOeCrxlX/7PU7bDl6GUt3n1MqcmpYOg9ae8opZIlMRvrYRXaK923BW2n0VH87+GJimFoWQ9LB29sJ3jFdYgz2LoX4sUWlWpqdffaew6AldDH2JazFmd7WUwl8iqf2li1bYs0a5dZAhnjE1ba/cvATALSWmp+Ido8fPwY54qXCHFTveTvwPBCjWBf7swB7Yhd0qYKUCeUOnkQXHn0W2t+mg1bM/DxbhjIki6dVUfNHxdzq7cevtNzq7UcvjfpwJYXssp41lOwzb/tJLdevi3ktUJ45+DpyB//hcwDaT92EwxfvmneBJr565UJZ0KaiM2JGlTOIDljoh9UHLph4Rea/HPvf53eposQPsWvXLo1xlXl4RZkOoJlU91cOnjh6/4bWCuHq4cKFg6+vL1xcxId/XLzzGEOW7NYR7aR30EbGM3y1uHtVpEoYR7wiwtOW6TlfrPe7KKRMEAtr+xNFWi5MfY3VHbzccEKNcqyir1NMDNXMPvW2UzZq9RL2JC3c86NOiVyIHEFOldpo9Gocv2pwIbjNmKV5+fxoWj6feD3kfJ81axY6duyIt2/fivWDFCoBEB//f+XgWQovToiHCRMGo0aNQvv27cWb+OP5G63QzjeQXUsX+7MAWc+W9ayO1InkDv7py7co3o3wC7r8zAJJ4sUAMb9ZUS8VApuM9tn/D7Y66TX08SFboGxQHzzTNFJhISQZFEMquJRe15zju1YvAq9CWcUpCa7Jo/cC3HnyypzLM8u1F3erhiwp5VDEbB9n//ukSUSBV5KnAIiZLW61+JWDZzM7oXZETytz73Xr1sW8efPEu3j78TMmrTuEZbvOinV1BetbgNXeK3rXQJrEssIzrpxdFK6dZ1l/Eza6AiKTDalfAgWypBCv8PzNRxi6bDf8b4fMVCa+uK7wPwuUzptOy8FHUfgI6zZ7G7afuKpUn2GtWzCofgmUzZ9BDHLDiEXBttPw4bN9kYuxzmb9wLpK4fnz58+jSZMmOHSINO5KshkAc3RiPO/gEApIRZVLupxcuXLhxIkT4kI7fr3O234cU9Yf0dt6pEa3kfEM0WdJkUC8mrcfPqFQ+xlivd9FgdERcsOTrUwqxB4fsMgPm49ekarq4wUWKJH7b6ha1qJIhbzobBFmC6U9CMF8hjUshaI5UouXe+/JK63eRso7L57IxAoNS+VB64ryQlcuY8eOHahQoQI+fFCuL+sCgHVxhrERfbf34Bz8ZAAtpHZKmzYtiLebPHlyqar2Fctw4qMXynkK8Zy6guksMKW1h3bKlOJaESu7QNtppltIKLsSgcJcs6fGmObllHbWb4Ef1h60v6Impc1aSYmc6CSbIRa8VIYt24NV+/21wkx7kGTxYqJ/veLInU7EKq5tbdfp6+gwfbNdpSMYmV7YpQqyppIfXujUx40bhx49eqjeWn4VlAagBNwf3LuYVT3ipvbEiRNjzpw5KFWqlHhD/rceYfCS3bhwRw8nio1nAwojGpVGiTzpgmW0+tkyPwd8Qb7WU21gB7a7BJdsqTC+ZXmlBfZf6Ic1dli1rLRZKymRLrZHDRdkVKCLnb3lOGZtPa6RwtiD5E6bWKPGTZcknni5c7cex4R1h+zKwSePHxMretdEJAUuiqdPn6JGzZrw3bFDbKsgBUJ8egNQIusIzsGTE56f/aIDWcyYMdGvXz+0a9dOvKHHL9+i7wI/HLpwR6yrK1jfAoTq9CyYWZyeIQ5CnhYMGOnyKwvkz5gMo5uWRbTI8kK7MT77sXTXGT31ZcbHK2m8GOhStQiKZE8lnmXvuZvoO98XL94qEZCI5zNWgemIDpULIVHc6OJLDVmyCyv3nrcr3H3vUrnRwkONXOby5ctwdnbWeFoUZRyAAUE1ceJLBOe8+SYhaa2oaoq98N7e3pg2TR5yZYiKpw3mC+0tRyO2fChU6FSlMGoVyyF28MRiz9N8kn7Pg3km0iaOq4WAc6ZJJH5yCLIzZtUBPHn1TqyrKxhmAealO1YuhCou2QxT+G4UqVzrjlgJdhLZg1QsmBltPJ01WlqpdJmxBdtPXpOqWW08IWkZOXPOnFz8XuOiZ86cqRXYKQpz1W0BsIdYKX8TnIPnv+0EUFS6uHLlymHx4sXgaV4qszYfw5xtJ35Jnym9nj7echZgb2yjso7iylqusFC7aXj70T5ClJaz6P9nYvEW7VvdNYd4enLDt5+2CVfusdtGF3NZoHWFAmhQKg/CCPnReZipPmgprtx/Zq6lmfS61Ytm12hiyc0glabj1uLIJfsB9SG4zYjGpZWgomkbpqq3b98uNdO38WSlIRGFMhNXSA6ewPYdpKvLly+f9uWSPbscs3f36RsYvHS3ftqQGt0GxtcvkQttKhVUcvClus/Boxf6CfNXtzFsmP+gXoncGnqYVEhN6z1qFc7YIT2ndK/WHN+krCMalXEUM8pxzY3HrMaxK/YB/lKvRC40d8+PSAogN7WGLrerls3abjnRtFw+RFfojnjz5g0cHBzw6ZO4+P3bY7wSAHPdjKQrSUgOvrZKoV3q1KkxevRoeHp6ihd1/cEztJ+2GYQv1cW+LOBVOCt61CgqPsFwl1UGLMHVB/ZxgrHGXdEwJornQvvKBZWmrz/SB6evK7NYKc35uynVKZ4LzcrnUwIksqdCyEZl8mpOL3w4GTUuuRmqDlqKW48IsWL7wkhM/7puIBUwmeSkMn36dDRrJkaX/TbNZwAjAkPzvaXzfj8+pFWzD/4wAFFlD0PzAwYMQJs2bcRre//xM7xHr8aluzo3vNh4VlYo65gOgxqUUnLw9Uf44LR+wvzlHeQPtZZbDnTwKqz0smkwchVOXVc+CFj5ybKP6QtnSYku1QojmQKj4r5zN9F68ka72CghWxszFSdMRTx88QaEqb33VIzXYhW7ZEkRHz1rFkVmBWyPv/76C66urtizZ4/q2oldzOi5GJ5W4uAJnUWiblbUi6RTp04YPHgwIkQQfRtoc3SfvQ3bjl/Vi65EFrf+4KLZUmJ08/JgOFkqLSeswwG9eyJYs5VxTK+B3cSJHkVqXnSYthm7z9zQf1NiyxmukCBWNAzxLok86ZMYrhQ0kpTZrh1n2jxHeriwYcBag3olc4v3eOnOE7SbuhEP7QDnhG+wigWzoG0lNUKde/fuI126tPj4UbkzggxRjKAbRVIQ0puYwLtsUCbQvUiqVaumhemTJJE/7Ct2n8WIlfvsBtlJZJhQPNgpQzJMbltBycF3mLoJO4U86aHYlD/dWraUCdCtuguypJQDbiz0Pa1BQX8KsC+IUHu6x3yZsiCreO60ShXX5XvNt/nTbbRIEdCuUkF4FckqvjWHL9xBr/k78PTVe7GupRVY1NrS3QlVimZTiphNnjwF7dq1xZcvSr83hueJ906gOaXq+W/2CsnBE5apOwAxDE+BAgU0cP3cueVfemdv/IHGY9fgU4BRe7P0M/Hbz5c7bRLM7OCJsGHCiG3RdeYWbDthP+0z4g2aQCF2tEjoWdNVcyBSuXD7MZqMWwNyxOtiPgsQC8K9QCbwpCuVXnO3a5C1tizkRGcPfHkncVBXQyodunQPXrxVhmy1mGkyJ4+PXgzPK3xMMzxfvnx5bNmyBfy7grBpns59uYLuP1RCcvCsoqgZ1IcX0th/XJgnd1LklS5NlD2ZvH3/CaW6z8U7O0F2ku0u9I4mmtfczpWVHLw9vNysfefoNNgL7+mcWbyUz1++omTXOXj5TjlkKJ7zd1QgDkQLdydEVQAkOn39PuqPXG3TZiPpSievwiieR/6Rue6AP8asPoBX75Sryi1iG9bTueVMg4H1SyCyAjvgpUuX4OHhgatXlcDnuEeyxhUAYHRVrCFO2w3A4sBQvSguSOrY2bNno169ekrhKrb1nLymFwVZ5Ik20SSZkjlgUfeqSg6+/0JfrDlw0UQrCZ2XYSVv71quqFgoi9IGi3aaiZd2gpamtEEbUCKs6Yx2FZEwjhzljR9hbl1m4c17242yJHeIic5Vi6BwtpRiay/ZeRpTNhyx+ShSzKgR0crDCVVc5G3eNAoj13369MGLF8rdAktZUwsYD/hniIMnsgZh6Zykd7Rr164ayH6MGDGkqpi5+Sgmrz8i1tMVrGeB9InjYWmvakoOfnAQhKX1Vm/7M/PHSsaySrqDt+mbtaxndWRM5iBeIyGbaw9dgYs23EGUOmFsdKlWBE6Z5GRic7eewKytx/DOxgGt+JE2oYU7UiaMLb6HAQEBqFOnDlasWKEanuecVQGwB95oMcTBJwUwEkB16WzMQ0ydOhVJk/ISMjl68S6ajF8rU9JHW9UC6RLHxbJe1ZUc/JClu7Biz3mrrt8eJifeebWi2ZUKGV07zbKL/Kc93Ifg1ji+RTm4ZJdTqTJfu8jvNMgdoJS5tYDh0iaOoxV65k0vf6eTVGf21uM2jVLK8HzBzCkwoaW7uA2Q5j927BiaN2+uUaYrCvGKSWhgElAQQxw8e3LYbN9VSjyTJk0abNiwAZkyZRLvlYUYzBkG2AlHsniDoVBBd/Dmv6nM8TYtn1+Jd9yz70LceqQDSJn7LjHC0qd2MaVprj14hjrDVuDDZ6Xqa6U5JUrpk8ZD9+pFkCutvDtq5qZjmLvdtmHIWefyDdxGYheO5QcaOVh69uxpTHh+BYBq0rl/Nd4QB0/dpkGoOqJYO3vgSXZfuHBhpTx81YHEZ9bxs011s819Hd3Bm9vCQKEsKdCjZlEkjiv6KWoL6zVnOzYete0qbfNb0PwzxIoWGduHNUAEIdIbV/bg2Wu0m7LRZnHp/3bwLsiVVs4FP2PTMcyzcQfP/PvqvrURN4Yca4KMcd26d8esmTONCc9XALDeVE+poQ6epfDjAaSXTjxx0iQ0a9oU4cKFk6pi1Ip9WLTztFhPV7COBXQHb367J3OIiVFNyiCDQo53ke8pjPJR5q0w/+ZC0QxbhtRHIoVCu/cfAzB323HM2nLcJsP06ZLERbdqRZBHIURvD0RilQtnQe9aatEXE4Tn7wEgHaHJwmyGOnj25RDwpoj0N1i7dm2NeCZSpEhSVWw9dgXdZm8T6+kK1rGAMQ5+6NJdWK7n4EO8cRHDhcX09hWVaGP1upYQzWuyAR29CqJOcTkGCNumiTjYc+52m8xVp0kUB12rFUG+jMnEtpoTlIO35fbnRd2qIqti7/uyZcvQoEEDY8hlWMxO9jiTAcAY6uDZ8zGbnCDSu5olSxYcOXIEUaNGlari1qPnqNhviTHhDvGcuoK6BTIldcCiHqptcn5Yc+CC+uS/iSb5qWd2qKgUIn3x+gNcu8z6TSxl3W1GjRge+8Y1VUJBIylQ/wV+uGmDpCwpEsQCCz0LZiGKuUwYQZq28SjefrTNNsBUCWNjTT+iw8qF4Xnm3pmDVxTWVZYHsMUU7XHf1mCog+f4YUHk86KjOFmw/vjjDyRIIGqj19b3/M0HNB+/Fpd1HmvFZ8ayatlTJsTcLjrQjTmtTpz/WR0qKTl4ritns4nmXJ5+7SAL8L23dUh9JIhNMFCZvPv4GVM3HMHinWds7nDDtEMnr0JwU0BTXHPAH2NXH8BrGwW66VKlMGq65ZTdrKDRly9fRoUKFcD/VxS2EHkAuKmo/1M1iYOvB2C4FPCGs65atQqVKonh7MEHfeyq/fDZ52/KPevXMpMF8qRNjBkdKiq1yXWZsQXbT+pQtSHdGoLdzOpYCbkVipx0Bx+SdU3372y36l2zGCoVVgMlWrXvPMatPoA3NgYtHDd6FHSoXBDlQhlULbHn53SshLRJ4okfgj///BNr1qyBl5eXWPc7hbGBXWr9Abwy5iI/6kocfH4ACwNR7dJJF8C+wClTpkjVEPDlK1bt98ewZcqUe+I5dQV1CxTImAyT2qiRzbSfshG7zpr041V9IzasSYTzWR0rI3c6eRWz7uAte2NZaT6jnaeYN52r9L/1CEOW7ob/7ceWXXQIs5Fspm2lgqiiQDZz0P82+sz3xdPXtkc2UzJPWvSqVUyp/fTTp0+oWbMmVq9Whhkmf25jnoVNmX/nrZQ4eML67ACQR/rEZcyYERcvymFI2Vd46OIddJy2BR8+B0in1cdb2AJFsqbE2BZqdLGtJqzDfp0u1qA7NrNdRThmlAON6A7eIPOabFDSeDEws0MlpWp6wtYOW7Yb6w9dsilWzfDhwqKNZwHUKZ5LbCeSiHWasRWPX74V65pTgemUPrVd4e6kRhJ0//59ZM2aFS9fKhe/kxq2ZSBD7RlT71Pi4Dl2GYDKAEhCY7CwRe7BgwdwcJDDN1699xS95+/Apbt6P7zBBrfSwNJ502KId2klBKgGI1fh1HWde8CQWzeycRm45UqjZGc9B2+IhU0zJlrkCBrxTM1iRPuWy+p95zFh3SGb4g+gE2hZwQkNS+cVY5vcefwSzcav03r9bUnY/dO/XnFkTkF2dLmMGDEChGU3QlgYQzA5k4bnuR6Jg+f4TgAGAYgo3QzDFxUrVpSq4cnLd1ouapMO0CG2naUViODVq6arkuOpOmAJrjwwCTqjpbdt8fm6VC2MKi7ZED6s6DtbW6fu4C13u/hydcmRGsMblULE8HIcEPbENx6zGv53bCtM36ScI5qUzSemxGX1fK0hy3H7sfJJ1yw3r3rR7Gjunh8xo4rqx7W1MMqcPn16XLumXD/Ek2uXIP53kyMUSx28C4CNAMSloW3atMH48cTKkcmHTwR+OIEZm4/JFPXRFrdAHbecaO9VSKk1qEyPufjjuW2F7ixuQAMnbFAyD5q551NyGo4tJ+vwzwba2RTDcqROpEGfqhCXcH7mrDceuYQ//zT5u195e/VL5kYz9/yIpPDRUm3QUpvqiooeOYJGnsPwvIocPHgQBQsWVFH9pnMQQLPAyPg5Yy7yK12pg2ce/hIAcSwjX758OHToEEgjK5W1By5g+PI9NovPLN1PaB3frFw+NCmfT8nBF2k/Ha9trGLYVu+TR4GM6F69qBJXdanuc/DoxTtb3VqoWxeL0pqWz4dabjmVfhenrz1Ai4nrbQr0himHloqc9w1Hr8KJq7aTinPKmBTdahRFygRy5jg+rN7e3pg7d67qc0vCASq3BvBJ9SLB6UkdPK/lB0CM5Rc/fnycOnUKiRPLq3+PX7mvVdKTiEEX27VAx8qFULt4TnFujjvK02ISvtrQKcV2rQwUy5EaAxuUQNRIEcTLrDZwCS7f139HYsMZoeDpnAkdKhdCDIUQMKetOnCJTWHTexXOitaeBZRC2m0nb8Cec7eMsKbpVCOGDwuG51tWKKDEG/Dw4UM4OTnh9u3bqot6GJh3bx9U26Z6jWD1VBx8z6A8vGhBMWPGxLx58+Dp6SkTmfffAAAgAElEQVTS4+D7T19rDn7fedt4MMQb+E0UGIr0KJBJ7ODJg52nxeTfxErGbzNf+qQY07wsokUWl8JoOd1jV+4bvwj9CgZbgBzqPWu6Ik96OQMbJ1m93x8DF+8EYWxtQcrlz4B2lQrCIaYcnbTnnO02U0+V1CEmelR3gbMCKh/vw+zZs9GhQwe8fq1cNHgqkGG2XCCZ2x/muq8qDr5w4Al+r3RBxKLv1KkTBg4cKFXFp4AvGL58L9bs97dJAgbxhkKpwsSW5VEoWypx5ebHgC9wak2qA10MsUCW5PExtZ2nUs9up+mb4HvqhiHT6GNMZAGiDxLetXLhrOLCNC6BLcLuvebj6esPJlqRcZcpnDUlOlctjOTxY4kvNHL5XizZdcbq73E6PnLaj2leDszDS+Xz589a7/vatWvx9asSdDzD86ye72hKaNof96Hi4Flq+CIQulZUcshewzJlymDjxo3iEx4Xvcj3NKZvOoo3H8ySqpDeX338TyywsGtVZEslhyR+++ETCrWfodvUQAskjx8TtLVK1e+Ahb5YfUCOSWHg0vRhv7BAqTxp0alqEaVTLy85btV+zNvBA5/1JWuK+OhZyxWZkotLsbDY7zRG+eyzejQicsTwaOtZANVd1VoY9+7di6ZNm+LSJZakKQnRfkoAYJGd2UTFwXMxuwAUla4qb968WLlyJVKmTClVxbHL9zB4yS7cemRbLRbijYRSBUKoruxdA2kSxxXv8OXbDyjaSSdBMdRwCWNHw7KeNRArmugbW7v8kKU7sWKPDv1sqK1NNY7QtbM7qCMQPn31Hh595uP9Jx78rCvE1x9YvwTyZZCDLe07dwttpmy0OsZ+nOiRsbhbNSSKSx41uQwYMADDhw/H+/fKqHz8MlAr3RcsV9XB9w2co59gHm1oihQptFY5gvJL5eHzN+g8cyvO3WRdgi62ZoEI4cJiWc/qSJ0ojnhpT1+9Q/Guc8R6v6tCglhRsbxXTSUHP2zZLizbTV4LXSxtgW7VXOBVRC1Mz8hlj9nbbaIOKXzYMBjeqDSK5UojNuHtRy/h2W+R1R18uXwZMNi7pHj9VLhz5w5atWqFDRs2KOkHKRG5To7fLpxR1cEXD4KtFU0XPXp0dO/eXfsjFRZidZm5FbtO38CftlJtIt1EKB4fNVJ4kEs5VUK5g//j+WuU6TE/FFvHtFuLHzMKVvSmg48svvDw5buxdJdZWm7Fa/ndFNiKNa9zZaX7xnfe/vO30GXGVrBmxdoysH5xlMuXUQxqxXqqQu2mWxWLgdHGBV28kDVVQiUzklimdevWIEStohCxLjMAs/cLqjp4loOeBSB6mzMPX79+fUyaNAlRokQR22bB9pOYuvGojksvtpz5FWJFjYR5XbyU+kkJYenRhzxGuhhigXgxIsOnTy0lRzFixR4s2cmfri7WsMCklu4olE2eouRaefplNT3bhq0t3au7gMiVxKaXiluXWXhmxYLBnKkTYnbHyggbVo7J8ubNGwwZMkQLzxPFTlEWA1AjnhdOqOrgYwJYGVQkIJrSzc1Nc/AkoJHKiav30XHaZrx891Gqqo83swUcYkbRfjQqlbVkzKo1dLmZVxh6Lv93iJ45ePkJngQmy3brJ3hrPQ3ZUyXA3M5eSpTKJKBZvvssJq07hE8BSpXbJtt2W09nDWM/YgQ5BK+1+/pHNSmD4gp89jTe+fPnNXCbY8eUkVX5VcDcgK/JbkYwF1J18KzuYT98L+ki06VLhwkTJqB06dJSVc2xVxu4FI9sjI1IvJFQqJA4bnRMb1cRyRz47ScT3xNX0WnmVpnSbzw6RfxYWNC1ilIVfb/5vlh7SK+it9bjwxfuhoF1wR5sFSGy3dBle6wO99qgVB40KpNXCWyp+bi1OHTprsr2jdZJnTAO5nRimkReoMp2OIbna9euDVLEKsoRAO6BnD1PFPVFaqoOnrEND2IwSAlrIkaMqBXascVAKoyItJm8wSYKTaRrD+3j+cOZ2ModSeLFEG91ztZjmLD2sFjvd1XImNQBMzpUVOqD7zxtM3acvv67ms4m9l0mb3oMbVRKaS2sRRq/5iAW7zyDr1//VLqGKZTK5kuPzlWLILZCFMmaH5ntKjqjdvFcSngEpIOl31qxYoUxJiTtHElZlL8QJJOrOnjOkRvAGgDJJRNybJcuXdCrVy+w6E4qK/ecw+Clu6Vq+ngzWyBfhiQY1KAk4scS8xDBmj94M5vFLJfPlSYRJrR0R/QociS75uPX4dDFO2ZZl35RwyzA0yNbSh1iyn8rnGHbsSsYu/oAHr6wHjlTjtQJtUr6hHHk7/DFvqcw0me/YcYy4SjS985oV1GZFvb69evIli0bPnxQBhwiLSBbyCx2mjHGwbNSZFIQ1J7oNhDwhmH6tGnTivQ4+Or9Z6gycIlYT1cwrwXK58+ATlUKK+WFG45ahRPXzF5Qal4DWPDqhbOkwLBGpRFVAYGr7rCVOHtLbzW14O3611RkYSM9ad0SuZRAvwK+fEW3Wduw64z1Oorixfi75iZFAjma3dFLd9Fk3FqL34JKBTOjdUVnpagDF8tD6eDBg41ZNyuJeYI3GzTtj4szxsEzicQ8fGfpjgl0s3TpUg2oXyp8uMv2nI8nr3RGLKntzDm+cZm8aFA6L6JEDC+ahhUnxTvPwrM3yl/FovlCw2CSl3St5qLEJle6+zw8fPEmNJjBrveQJWUCTGzpDgKuqMjGw5cwfMVevHlvkUjvv5YY5j/Aku7VkFEBze7Z6/co3mW2ReFqCUfL30yZfOmVChyJN589e3ZjiGX4o6OvJOBHgMo9V9ExxsGzP8I7KJ8gekrDhw+PJUuWoGLFiggbVt5mMWjxTvjs09G4VG64uXT61C6mEc2EE7ae8IMtf+upOraB4MY0LJ0HTcop8sG3mgLaXBfrWoCOnYxsns6ZlU7xHz8HoMmYtVaNxsxs7wnHDMmUDFmgzVSL0n87ZUyGrtWKIJUCEBc3SKK0Bg0aKO01SIlhedLCHjfmIlJdYxw85yLgDdF40kkn7tq1K3r37o2oUeWMRDtPX0eHaZulU+rjzWQBkmkwH6fSekIc+iIdZuoOXnBvSFxSxSUrwit8HOdsRn4LXaxtAULXlnHMgB41ioK5YRXZdvwqus3aatGT8PfrHNOsLFxzpAH3IpUyPebij+eWqSGIED4sGpTMjYZlHJVoYf/880/kzJkT584pt5eyGnJmELGMRUPPCrfmH7cyQyDYzYSgvj7RPS5SpAh8fHzg4OAg0uPgZ6/eoWS3ufiqDjQgnlNX+LUFIkcIp+WEXbKnEpvp+ev3cOs6xxjQCPGc9q4wplk5FM2RCkTkkoru4KUWM9/4JHFjoEu1Ikq/G66KffGV+y/C3SfKdKVGba5fHTdUcJbTQ3PSGoOX4eJdi3SKIUPSeNqHVI40iZT2u23bNo3m/ONHZfwV9gQyPG9xsA/5G+KfJmIZ6FgAjaSWixw5Mi5evKjh00vlc8BXNBu3Fiev64VZUtuZY3yMKBEx1LskCmaVI3T98ewNyvaarzt4A28Mf7AsbsqdLrGBGv8cpjt4JbOZTalxWUetnzxieDlgDBe148Q1dJ65xWzrC+7CTcs5omn5/Eofmi3Gr8NBC3Rz8Bu4eK40GOJdSgl1T/sYqVFDa43jSV5R9gGoAuCRor6ymrEOnhN3AdAbgLjng8xyXl5e4sWzF3T25uOYspGYAbpY2wIOMaNiUIMSyJ9Rno+7dPcxagxZoTt4A28iT+2zOlTSHbyB9rL1YZmSO4D1KyrUq9wb6ylqDlmGqw+eW3yrpMAd2rC0GI+eCyUz6Mq95ic9ihczCvrWLobC2eTRRa7T399fqxW7evWqqn1JNzcMwEDVCxijZwoHXzao0E7c89awYUPMmiWnCSUGMGkH203dpOdujbn7JtIlg1zfOm5gb6xUNh25hF7zdlidH1q6bmuND0sH37EScqXVT/DWugemnrdzlcKo4pJNLT/8119Yf/AihizdrYXsLSnpk8TF0p7VlarS528/gbGrzUqFrpkiT9rEGN+yPKJFlmNG0M8MHDgQI0eOxNu3yvUC94JS2FaBjzSFg+enEcHzC0gfrtSpU4PgASpy48FztJi4zqpgDyrrDo06BbMkBwu/UiSILd7eaJ/9WOR7ymqFQuIFW1mBBY08was4+A+fA1CgzTQr70Cf/kcLZE4eH6ObllXmJv/j+Rt0n70Vp69bFt+ALbG7RzdW+jDxPXkNnWaYN7UQJsx/0KeWKzwLZlF66EgL26hRI+zYsUNJP0iJoC0kllFmpjFmclM4eJaAzgNQNTAMIep5I7scQx9p0sh5hZ+9eo/hy/di+0nl0IkxdtN1v7OAV+EsaO3prISN3mjMaptgx7KXG8p+3iltKiCbAtXluZt/oM5wH3vZ6m+1ziENSqJsftYsy4Un97UH/DFm1QF8/GxZKtk9oxsr/e4vBBFMmdPrkZSJtMoxo8px53kXFi5ciM6dO+PRI+XUObdXJLDbzPKwfUGPkSkcPC/VIfB/+gEQ4xaOHTsW7dq1Ez/VfJAX+Z3WmJV0sZ4FWMTSrHx+NC7jKM7FMX9YddBS3Hz4wnobsLOZMyZzwBDvkmBaRCqWCotK16WPB5LGi4E1/WorF4Jdvf8UQ5fuwUkLI0JuVCTOIUU0EUnNyYrXyauQhjuvIo8fP0bPnj0xZ84cY4rr6JyKsuFBZQ2m0DGVgy8EgEeDBNJFlSpVClu3ypnE+Gnkd+oa+szzxftPFgMGkm4v1I8PHy4M2ng6o47CD+ndh0+oOXQFbj9+GertZKoNls+fEe0qFQSLh6TSetJ67Dt/W6qmj7eQBaa39UT+TPJCVS7vzz//wkLfk5iy4Sg+BVjuFL+0R3WwUFAq95++Rp3hK/DcTAiWEcKFwa5RjZXY7riXXbt2gTViN2/elG7t+/HVrdEa9/0CTOXgWUF/UgXwhu1yL168AFnmpHL57hMMWbYbZyyce5KuMzSPZx6ubUVnVCuaXbzNZ6/fof7IVbj75JVY93dV6Fi5IGoUyylGDKS9inWeiedvlHt5f1eTW2zf0SJFxM6RDUFgFhW5dOeJVmx39qblcvEz2nkin0L3DOsGGo9dg3tm+u23cM+voT2qyPv37zXG0x49eqiof9NhDzdzz1b9wZnKwXNTiwK5YGpJLULY2o0bN6JkyZJSVe3rb9zq/Vh/6JJYV1cwjQXYA9++UkFULCQvZLn18IVWKPngmY6NbsjdYM1K71quqKRga16/aKeZePnWqu8bQ7b5245hUdjwhqVQIo8YGPR/Npu28Qjm7ziFDxaKag5uUALl8mcU37NHL96i1cT1uPrgmVg3JIXY0SJhZodKSJs4bkhDf/rv165dQ6VKlYxBruN1+wAYEthCbtnWhh92ZEoHXx/AXKlFiUXPHPyoUaOkqvjy9U/M3XYCMzcfs3iLiHixoVQhfqyo6OhVGKXyyl9Ke8/dRP+FO0HyCV1CtgB74HvXdkVFxapg3cGHbGNrj2CNxcz2FZWogLn2mw+fa0xzl+89tchWVE/KT16+Q4dpm3DulnIB2y/3V6tYDrTwcFIKzxPMZvHixahbt64x9mMIxd3SuPM/W7ApHXzqwHaAawBE1+SppHDhwlorQoQIckzmPWduYJTPfj3Ma8zjaIRuuiRx0a2aC/KkTyK+CoskeeJ4+8FqNSjiNVtTIXrkiOhVsyhKOaYXL+P1+09w770Ar97pJ3ix8SyowIhYG88CqFw4mxLGO5c6e8sxTN14VDsAmVu8CmVBr9rFxNPwo77nnG04fIlt4qYTVs4Tk8Mpc3IlhL3Pnz/DxcUFhw8bRdlOcJduRFU33c7UriRyxiFMwcQRoYnE8Rr2w69evRo5cuQQ74LVmP0X+uHEVR22Vmw8EyiwH7tXTVekSSyv6ma+cM1+fwRY4EVkgq1a/RJZUsRH9+ouyKrQInfA/7YGafr+o16QavUbGcwC2JVSOGtKDKhXArGiqbV3kd+h7oiVuPfU/Bj1hbOkwMTWHmKTvnz7QasX2H6CZ0LTibtTRq0mKF5MOYkZV+Hr64uyZcsiIED5d0Kn3hzAamuH57kfUzp4Xm8kgE7S2xUnThwMHjwYzZo1k6oi4OtX9Jq7A9tPXNXR0MTWM17BOXNy9KlTDAljyzok//zrL3SesQV+p9SAjoxfuf1dgTzwnaoUUWIfG7p0N1bt97fIqc7+LGtbK+YpvmUFJ1R1ya78gl538AL6LvAz+8bSJYmDlb3FpVd48+ETJq45hBV7lRna/rW32NEio0PlgijnlFHp9M4LFnNzw66dO42x2/qgtnGbeLGZ2sG7Bjb2i60TLlw41K9fHzNnklFPLkv8TmshKT40uljWAq45U2NA3eLinCHDhx2nb8aes0a1oVh2s1acjSc7tiJ2qMyOVLnUH+mD09f/kCvqGlaxgGfBzFrxqipICxft2WcRbj02L8ZEjKgRsXd0E7GNWAQ4Z+sJzNxyTKz7K4Ui2VKiR01XJIwtpkXRLnns2DHky6dWeR+0JuYaycvCg645MXwMtpmpHTx73VhgEMvgFQQNLF68OObOnYukSZNKVXH+1iN0mbkVD56ZPyQlXlwoVyjtmB4D65dA+LBhRDtlry5P8HvP3RLp/a6Dw4UJg3olc6O1pxgRWjOZ7uDt68khBXOv2q4aZ7wKLTB3e9D/NtpO2Wj2FNiJKS3FePT8/S/deQbj1pgGjz5qxPDwLp1H43xXkS9fvqBatWpaqtgI4dcKw/MnjLiGSVVN7eCZh18aRI0nWmj69Okxbtw4lClTRqTHwTy5Nx27FhfuPBbr6grqFuCpkjkv5gulwi945oT368ArBpkufsyoWm6R4UepvOXvY9w6+N82fcWydC36eMMtUDZfBnT0KoS4MeSgRpyFhZW95m43+0f0oQnNEDlCeMM3FsSCt2qfP4Yt3yPS+9Vg4vkPb1wayRxiKl2Pp3d3d3djYGl5ep8dFJ63mUpWUzt4Xq9pIKLdVKmVo0WLhgEDBmgtc6ysl8rw5XuwfPc5nV1OajgjxvM2eThlQv96xcVXeffxM7rO3Ir9/jqymiHGy502MYY3Kg2HWPLiIXaaDF22RydmMsTQNjQmQriwGNO0LApmTaH0TmSdy4Hzt9Fz7nbN2ZtL9o1popSi23jkEvqZoE6AdqpXIjdaeORXstPXr1/RunVrzJ49G6yiV5S7ABoCMIqZRnHuX6rJPWnIK2CMhHl4cSKkadOmGDZsGGLFEkf4tXBUmykb9SKikO+PyUboDt5kpgz2QvyRumRPhXEtyitNOMZnP5buPqtxh+tiXxZwzJAE41u4g4iRKsJ2tElrD2HtoQtmK0LePaoRYkWLLFoeoXW3Hr+CHnO2i/R+NjhejChY2LWqMhsfT+9kjTt79qzqWtiPuBlAjcAic2VeWdXJg9Mzh4MnmDIp8sTVQIUKFcKkSZOU2uXevP+Ekt3mgpSYuljGArqDt4ydw4UNg/KBTGP96sojJVwhT0lrD16wzGL1WUxqAaLbTWvriXwZ5LVJXAg5zf1OXseIFXvx+NU7k67t28X8RjQUpxEYXfA9cQ1dZsl5SH7cRAv3fGhcNp/S6Z326T9gAEYMH44PHz6o2ofHflLCrlS9gLn0zOHgmQQhTB8Z5kQSP358rdCOfYgq0mXGZmw/aRPdCSrLtzsdplI8nDLqIXoz37k40SNr4XlHhZf854Cv6L9oJzYFhkN1sU8LsB/ed7g3woVVw6jnMzBq5T747DtvlhTmjuHecBD2nf/1F7Dz9HWtk8YYCRvmP9g5spFyt8G5c+e08PyePUbVArAViMUxyvF9Y2xg6RM8n0KGKuYDkJVWAxrIP/vhVVDtdp++gXbTNpnLVvp1f7AAvw7LO2XUquil8lErstuKfef1KvqQbJcifiysG1AnpGE//fejl+9i+PK9uP7guZK+rmQbFhjWsJSGYKh6Itt15jpGrdwPsriZWnYMawCHWOKMLHaduYH2U417X7ev5Ix6JfMobYmwtKSDbdu2LUgwoyhsh+OPc7GivlnVVJ+XkBZVMKiiMENIA3/898qVK2PixIlIlCiRVBXP37xH2R7z8dGCdIniRYYyhVJ50mFA/eKIGD6caGefA76gk94mZ5DNcqdNhDmdvAwa++Oghb6nMHbVAbOc3JQWpCspWYB55mU9qysjtHHSQYt3Yu3BiyavU2J0QYocp6UOTl3X3gGqQpss6V4N8RX73m/fvq0Vda9du1Z1CdTj6Z1+ziZzw+Zy8CkBjAZQSWq5ZMmSafzwmTNnlqpq41tMWIeDF+4o6epKcgsUzZ4K/eq6iYtsdKAbw209snFpJYYxFjKRjGniukOGT6aPtEkLRIoQDo3LOKJ+qdzinvNvG/obL2SLydkbrZWDb+XhhHql8ogxOGgPVs6vW78e3g0a4NUro+iq2TU2wyYfGjNA1X7bJ0sqiejTVRqmZ17Xx8cHnp6eCBNGHOHHij3nNIxjXSxjAadMydC3tpu4gpVf8N1mb9OwqPl3XX5ugbBhwuDIxOZK/O+k5By7aj+2Hr+qmzcUWCB90rgY0qAk0iaJp7ybKesPY8Zm06HHcSHWqKJPlTA2hniXRMbk8ZXSFnTqRE818vTuD4AFYzZ7ojTXCZ73nVWF5IBNIH0a2bIwefJkpTz8lXtPUXPocpOHoaR7+F3GZ0+dED1rFEWGZA7iLdP5LNt9Fp8C9PatXxkva4oEWNS9qti2VDh88a52YjNnD7TSwnQlJQvwFE8q1Kbl8iNCeLWCO6Yxaw9bYdJT/IGxTRE1sowJlBG89YcuYsAiMbK5ZruGpfNqyHVRI8nm/Wb4Xbt2acA2794Z1VnQA8DYQOY4mwG2+fHBMqeDzw1gCoD80qeZ7HLnz59H5Miy3krO8/zNB3SctgmndNxtqdmVxqdMEAtdqxZBgSwpxPo+e89jwtqDugMKxnJLulVD5pTxxbalgimKmJQm1pXMZoGMyeJp9Mw50yZWnoPMgq0mrjcZWDojTOIanC9fsXLPOYxcuU+8jwxJ46FbdRfkTJNYmVK3ZMmSGkW5EXKRCNCEsLcV3Pmf7cWcDp5llXMDKWSVqoPYvpA1a1ax/T9+/qLlHadvOirW1RXkFoijMTgVQvkCcgjVo5fuoufcHXhipv5c+W5sS4P4/ocmqIXn33/8rIVi520/aVub0ldjtAWalHOEd6m84IleRYgD33DUapw3AXQx29ROTGklXgbf0ywAnbxezrtevWh2tKtUUHn/x48fh6OjGmb9dxtljdlAAEYl8MWGEyqY08FzKQxhkPhexiXK5H3XrhqqnVQIoLD7zA0NBlXnGZdaTz4+euSIaFfJGZULyz/GHr98C+/Rq3HviU3/RuRGMZFGRedM6F3bDQQ7kcrdJ69QbdBSvP9kk8W90u3o47+zQOK40TG4QUmjTrAsuGsydo3Rz0eyeDGxYVBd8f0hVPW0jUew0Pe0SDdt4rjoUcMFudMlEel9G0ye99KlS2OncZSw7O1tDWCj0iIsqCR/c8gWR/rYOQBYVS+STJkywd/fXwmd6Nr9Z+i/0A/nbunkGiKjKwwm61Wbis6o4ZpDrE0SlFpDV+D245di3dCuwJMR26LSKRZU8QXOXKsuodMCtYrlREuP/IiimINmKnPcqv3YePQy2G2hKk4Zk2FaO0+x+qt3HzFyxV5sPHLZYN3w4cKiQoFM6Fy1sDgl8G0SPz8/LfduBGodC4ZIqNYxsGnL5tnNzO3g4wbm4NnoKI6HsJr+ypUrSJs2rcEPwLeBfHimbjiMZbvPiXV1BZkF6IhauDuhQek8YlpLFtrUGrYcl+8+lU36G4zOlMwBY5qVE3cnfDPN4CW7sHLv+d/AUr/nFolNP72dJ7KlSqhsgKOX72HAQj/cMwL8pnrRbOhWvah4DSz26zNvB/b7G16AniB2NI18J0tKcd22tj469dq1a2uV8wS5UZQHQd1hixT1LapmbgfPzbDQrnEgzoI4YTR8+HB06dJFbJCvf/4JUhGOXX0ApCXVxbwWqFokG1p5OiFGlEjiiYYs3YWVe86brOBHvAAbVCDGf+cqReBVJCvIlCUVth06t52GD5+/SFX18XZkgQKZkmNSa3flvnh2V0zfeAQr9p5DwBc1h9e7pisqF5Gn5568fIcO0zYZHGWlo6pWNDs6VSms1DLK27pp0yYNJfXevXuqd5lGYmVercAQ/TPVi1hSzxIOnvEbhjTEb3+Sz+zbJ6+ypAFPX/8Dw5btwaW7Tyxpz99yrvwZkqJrdRekThRHvP8TV+6h0di1ei/8d5aLHjkChjYshUJZxZkt7SoXbj1GzWHLxfdCV7AvC4T5z38wqZU7nBU6WL7t9NS1BxqVMNuLVWRamwpwypxcrPrw+Rs0G78Otx69MEiXEd31A+oo870TirZVq1ZYuHAhvnxR/vBlsVBLW4Wl/ZkhLeHgyf3KOIy40C5hwoQaCUD69OkNegi+H/T89XsMWbYHvieviXV1BZkFEsWJjoH1iiOvAhnKs9fvULzrXN3Bf2dy5lfJba3a41uq21w8emlTrJWyB0ofbbAFSESzeVB9RImkRif79c+/MGbVfqzcew4kpZGKT++aSJuEmViZEBO/3ogVePraMAa3JmUc0VyR750rW7duHdq3b4+bN4ksqyykZGT79yflK1hY0RIOXrMvAA/p3qJFi4aBAwdqeMEqMmndISzwPaX04KrM97vq0BGRDKNwNvmJk+mUwu2n4/0n5a/qUGV2huTbeDqjdvGcSvti+xHD8+wm0SX0W4A1MG0rFkCd4rmVCpJpISIeEuL7+h8yQiI6DzK5xY4uxyu5/eglqg5aYhDIFesNtg/zRjQhmM63u//69Wv07t0bEyZMMOaB4A+KiFM+xlzE0rqWcvBEtVso3VzYsGFB8plFixYhfHj5F+qhC3c02Fq2DOliPguwi4tc5eXyZwRfOFKZvKnUn2sAACAASURBVP4QZm4+LlULleMd0ydBr1quSJEgttL+pm04gumbj0L370rms0ulZA4xMaFFeaRSSJF92/DMTccwbdNR8IPbUCHZy9ahDZRy4kcu3kHT8Tz3BS+sRyGQVnWFLh1emfUoBLRp3Lgx7twxvKDvJ6u6Esj3ngWAXZ1E5G/jkO7Iz/+dTYsExBZ/6uXOnVtz8Gybk8qz1++1Qo4zNx5KVfXxQgtUdM6MdpULKvEy33n8Eh59xN9/whXa/nC2AbFgkW1AKsJwq9eAxbj50LC8psocuo7tWSBS+HCo6pINrSo4IYKQ1fHbbhj5qTlkGW4Inp1y+dJjYP2SSjgN87afwLjVB0M0Zsak8TCmeTkkjhsjxLE/G/Dy5Uv07dvX2NM7v3oI2LZGaRFWVLKUg+cWfQG4SfeaIEECDB06FA0aNJCqal9vLCBZs99fB70RW0+mkDZRHIxv6Y4k8eQ/xE+fv6B0j3l48dawfJxsZfYzmicxkolkS63W+nTg/G30WeALftjq8ntZgOQrXasVgVMmecHbN0vtPXMDHWdsMfhdyfmIKscCOKl0n70VW44FT4LED16e3is4ZwL/riKHDx/WiMsePTIKE2V/EKnMG5U1WFNHfmfUV9s8qGVOdIVw4cKhVevWGDFiBMKHE3faYf+5W+g+ZzvefLCbugiRfWxlMPNki7tXRaqE8kp67oH1ErO2/L5her4j82X4GzRE5UfJkHyf+Tuw+ehl8CSvy+9lAbIO0tk2d8+vnKvmM9R68jrsP29YKHtyKw84Z02h9LzWGLwcF+8GjxNTMEtydKnqghQJWKctF1LCent7Y8GCBXLl/2vwx8S2OLalGJ6/MGZGE+qqvEtUp0/DDh4AYvqfEiVKYOLEiciQIYN47rfvP6Fi/0V48ko/1YiNJ1Dgg9SrdjFUKphZ6Yv+5LX78B61WjBj6BpKRMB5nb2UWPloiav3n6L/wp0ggp0uv6cFYkWNhL513VA0e2plEpbLd5+gwahVIULYkj1uQWcvpEksr6Dn3XHpOAOv3v360MUDQ2vPAlrqgR8vKnLx4kXkyZPHGNQ6TrsNQBNbpoQNzjaWdPD8DONXUEnpzUqWLBkmTZoEDw9xIb421dAlu7BcR/WSml08PluK+JjXtYrSD1Lrix23Drce/575YxYs+Y5oKLb5N4UJaw5qJEv62V3ZhKFCkchyRJaMEVUMO6Ltn5HOEcv3YsPhS8Hao0i2lOhTuxjixYwqttv9p69Qrlfwp2pen8Wm8WORs0xNXF1dsXv3bjXlv7X4cyJI2zwA8h5CY2Y2ka4lHXxEAG0DC+2Gq6x95MiRWrscQ/ZSIZgDv0p1Ma8FYkaNhG1DGyixPAV8+Yo1+y9gyDKjfpDm3aCZrs7w/Kz2lZAnvRqBxqu3HzB61X6sPxT8S9lMy9cva0MW4LM0oYU7CjF0rpAb51b4vuw8YwueBlPL0bpCAdRyy6n0W1/idxojgqGJZW9/S3cnVHHJpmxZ8r0XK1ZMWT9IcTMA9mgHXyxg7Cxm1Lekg+dcBC1eC0BcieXl5YXRo0cjeXJ5EcnngC8o32s+HuthejM+Sn9fmljRxXIxGyMTfiofuUj62G14ZiD4hWwG2x2dKkEsrOlfR3mB209c1ciV3n3UYZmVjRiKFAtlSYFhjUohWmSeqeTy9NU7rSaGH4w/w1OIGD4s+tctjpJ50ilV0DcftxaHLt396cKIzueUKRkGe5dE7Gjipivtmqycr1ixorGnd/ZW9wMw0V5P77SFJR0850sHYKpKNX3SpEmxcuVKODk5yZ9Y3qU1BzB7m86NrWQ8gVL2VAmwoCvxIOTC6u+Jaw9i7cGLcmU71eALbYh3CZR2lNeXcMtviCe+6SgW+cloN+3UXPqyDbTAgLpu8HDObODofw/bfvwqhi/fi2dv/l27lDl5fC18njlFfPH1yVxXstucX0YHIkcMj0H1i8Mtl5xk7Nti5syZg44dO2qO3gjZFRSev27ENayuamkHz5M7OeK7SnfOcNO0adO0djkV0JuLtx+jxlAdn1tqd+n4SBHCYcuQ+kpf3/zxbzpyCeNWH8CzN79Hy1zSeDGwsGtVJTQw3htyLbScuF5vjZM+qKF8vLHP1eMXbzFs+R7sOnPjX6BJXoWzoLWnsxLmBYv4agxZ/kukxbKO6dGnjptS6J+3lFC0TZs2BWlhjWCM45dBfwCEvrO7yvnvH21LO3iWQ9YIMpy4n6pChQqYO3cuYseWo3y9+/gZjUevxgWdfMbsr7am5fOjefl8SvM8efkWAxfvwt5zt5T07UmJP76+tYuhfIFMSmhgpNtd5HsK49aEDBhiT3bR12oaC9R0zYEu1YooXYwps3lbT2D21uN4+/Hz/67Bbo9WFQqghmsOpfD85KB22J8VgzKataZfLWUURy6ScLT9+vXDixdGFeuSZ7k4UXyVjGdDSpZ28Nw6wfqZ13CW2iFq1Ki4fPkykiSRFyPxZTh/+0lMXHdIOq0+XmiBrCkTYFE3tTA9e3Hnbz+BWXyxfPj/i0W4BLsYHjVSeExq5YFcaRMrrff1+48gsYxOC6tkvlCvlCBWNMzt5IXE8cQ8X5ptHj5/i47TN8P/9v/9HPnne9YoiozJHZTs12z8Why++PP8e7uKzqhXUh1T39/fH23btsXOnTuNIa8iFC0xW2YHVdEr7dNWlKzh4NkuNw5AXZUagFmzZqFhQ3k7ER3Hiav30XTcWhHesq3cKHtaB6tg+9d1g0v21ErLfvvhE1pN2qBR/oZmYTtTvZK5EFERXnTfuVtoPXlDaDaRvjcjLMD+8TKO6TCgfgnwdKwio1fux7I9Z8EuF6ZJS+dNp0WdIkWUc4M8ePYGjceuBpnkfpQEsaNiWc+aiB1Nrb2PoDYzZ85EmzZtEBBgVLHpAwCpAlPJoeJ0oXbXVZ6Uf+q0D8xt9Al09GKIIhcXF+XqyAfPXqPvfF8cu3Lf+B3oV/ilBfhiKZsvPfrVdVPqieeF1+w7j+Er94EY2aFRCErSo0ZRlMzLulO5EK2uQJup+PzFLttz5RvWNZQskC5JXAyoVxyZkssL4jjhH8/foNHo1bj/7DXiRo+CDpULopxTRqW1LNt1BpPXH/kXqig/cHvVdEXZ/OmV3xeXLl3S6rMITWuE8MdUxR4x53+1Z2s5+PwAZgVS72WV3oyIESPixo0bSJxYHtb88ClAC9OTNUkX81ogU7J46FvHDRkVXywfPwWg/bTNOHTRMNhM8+7GtFfnj65EnnToUrWwElAIV7Pz9A2NSEkX3QLBWSBC+LBgLr6lh5MynvuU9YcxY/MxZEkRHxNbuSNO9ChiozMCMHDRTmw6dgVfv/6zbo1tfT1rFkUiRUKZz58/Y/r06Vp4nvwjRsieoNx7qDlVWMvBMym0CEB5AGIcQoLedOrUSXwfefNZFTpo8S48/02qtMVGMpECv8q9S+VB43KOyuHBi3ceo/awFaEOW50wnI3K5IV36bxK1mZvslf/JbjxUMbfrTSZrmT3FsiTLgm6V3dB2iRqsLLP37xHg5Gr4FkwMxqUyqNkD1bPD1i0E/63/4k/7xAzKjp4FUSJ3OmUCk25mLt374KoddevG9XR9g6AZxApmtIebVHJWg6etugQ1IogxiLMkSMHTp9W6/u98+glRqzYi/3+t23xfoSqNeVOm1hjuMqQTK0ghx9kc7aeCHWFkdlSJcAQ75JI5iDOUGnPx85T19B7PoFtQkWaMFQ987a4GX5QtqtUEJUKZVF2ogf9byN90njKESefvecwad1hvHz38R8mYk6/UxX1SBYv1r59e4wbx7Iuo4TYuURaNap53qgVmEHZmg4+exCQv5gbk9X0Bw8eRPbsvIRMmLOctPYQFvqe0nG7ZaYTj2ZPPHNr5RVzdpzwxZsPaDt5A86GEhIV1joVzZ4KY5qVVyIE4em99aQNOHjhjrHhSPH91BXs1wKl8qZDh8qFkCC2+Dylbfrrn39qkTgV+NvX7z5q3O9rD174R/87WeK6VCkC5yzJla7LdZ07d04DP3v/3igysYdBRd9+9t73/uMTak0Hz7WwgbeA9GdDPPquXbti0KBBUlVt/K7T1zFq5X6tcEQX81ogW8oEGFi/BFImlGMXcGVMqR29fBdsrzEuvWbefRp6dcJvDm9UCvkyJjNU5R/jzt18iN7zfXHroVF9vkpz60r2awE65rHNysIleyplZ6q6+6OX7mpp0TtPiP76t4QJ8x/wo2Nw/ZJK/fTfrlOoUCEcOHBAdWnf9Ni2TVjaUJfzsraDbxYEXSu6QXxYnZ2dNbQiFt1J5dGLN+gzzxdHLt+TqurjhRYIF/Y/GNqwNNxyplH+IbOSftnus5i64TA+Bdh31XjaxHHh06em0Ip/DyfSH1+Uaw7469EnJQv+3koVCmRCp6qFEV0Ro17FesQfWbPfX4O9/fLn/4vrUiaIjfEtyhkFarNo0SI0adLEWDpYEsm0AbBVZX+2rmNtB89+Q3LEi5sfSTpDVDsVxiDmdkf77MeKvefw2c4dhq0/YFxfqgSxMbtTZcSJrkYewWvcefwSo332Yd/525qjs1dpVDovWnmKg1badm8+fI4hS3fj2GW9zdNe77811x3mP8CM9hWRN31Siy2D1LB9F/jh+A+tyR0rF0KdErmU1/HgwQNUqVIFhw4dMiZVRUJ6dnP1DEzl/z+8oLwq21O0toPn/NuDWhNE1okSJYrWFjFkyBCR3rfBx6/cQ485O/D45VslfV3JcAswd8cin7pG/KDp0lnoQ67q24/tsw4mXNgw2D2qkRLLF/e/YvdZ7cNU7303/NnTR/7TAuRZH920rHLLnMSe/BBnOrTX/B348On/nWd50ibG+JbllX4Hf0ey/gQ7qYYOHYpXr4zyy5cBNAGwV7IvexprbQdPW9UKapkT261MmTKYNXs2EidKJNYltWbz8Wtx9ibrK3QxtwViRImIBV2qKOfiuT72z/qeuo6hy3bj5dt/VuOae/2muL5juiSY2bGS0qV+R6Y9JUPpSsFagEWe41uUR5FsDJ6aVz58DkCXGVux7/z/eSX4kTu/kxeypEqgPPmJEyfQqlUrY0FteHqfEkR+Zn8vEwOtZwsOnj1UzIPENHDN/xuWOk0ajBs7Fu7u7lJVbfxiv9PaiehnnMdKF9SVgrVAkWwpMKGlh1FWImDG+kMXNUIaexLWjazoUR3pksVTWjYLlTrP2IJX7/le0kW3gLoFUieMg/ldvcyeiz997QGajl+HTwH/P70TG6NlhQIIy3yBgnz8+BGjRo3SCqw/fTLqt8CG/IIAriksw25U1Kxs2u0R1HgeAHHlUdiwYTXmoB49eiBMGDFeDpgf8ui76F/ISqbdnn61bxZg2xxzb1VcshllFBbuTFp7EPN2nDLqOpZUZi/y7lGNQWQxqbBFaeuxK+g5d4dUVR+vW+BfFuApukX5fPAu42hW63iPWoWT1wjt/rekiB8LE1q6g+1xqsKKeULSXr3KM6FRwp53Vs/bb0GPAdu3BQdPz0z83yUqqHblypXD2LFjkS6dGqZ3ywnrceCCDnpjwLNikiGZkjlgQqvycIip1o/7bRHM7/Vf6IdNRy+DDt/WpYV7fjQq46jUSfDoxVs0HrtGKzTURbeAKSzAKvYJLcsjeXx1ZxvcOo5cvIum49f+bwg/Koim51Egk3L+/+XLl+jVuzcmT5pkrAlIZ0cmrFADSfsrg9iCg+fa0gMgsHZa6Z1LmDAh5syZg9KlSyv1dzL02WTc/x9E6fz6eJkFwocNowHfEHQjehR5i+P3sz1//QEjV+zFrrM3bJqUJmL4sFjUrRpI/KEi/rceo9aw5Sqquo5ugZ9agA63XL4M6FbdBZEVmOGCMytpnltNXIfTN/6ub2Len22yHbwKIbEi3jyvQxpYDw8PvHtHVFll+QCAhTChsi3uR6vYioMnCgpRa1qo3Lb+/fujY8eOIMKdVJgfqtx/Me79hMJQei19vGEWcIgZBW08nVE2fwZl9qhvM9198gozNh3FztPXwcJJWxTHDEkwqH5JZRSxQYt2wWf/eVvcmr4mO7ZA8vgxtQ9tFtwReMZUsmrfeQ1IjEV2lERxomvzuOVOo8xL8eHDB5QoUcIUoDYrANQHQEcf6sV0d9U4U4UDUD0I9EYcu82XLx+WL1+OlClTKq1i5qajmLzhiJKuriS3AB+63OkSo3v1osoEGN/PevfxSyzwPYXNRy/bnJNni2DPmq6o4JxJCQec+XenNlMR8MX20xDyJ0HXsKYF+DssnC2lhgVvqlA9sRr6LfDD2ZuPtP501t14Fc6KZu75ES1SBOXtEmuemPNGCnOx9YLa4kJ17v2bnWzFwXM9RD2YrAJdGzlyZKxfvx5ubm5KYXqyljUYtcqmw7xGPtg2p84qWtccqdGjpqtRADjfNsY89cbDlzB901Gb6hNPGDsa+tcrjvyK0LTbT1xFl5m/RTTR5p7R32FBLP4klaxXkawgA6QxQoc+c/MxzNt+Eu8//X16T5UwNkY1KYM0idXSU7yGv7+/xhb35MkTY5ZH3VFBkWKjmueNXYQl9W3JwbPaY7BqmN7b21vjBCZOvVRevfuIIUt2YduJUN0xITWL2cczH+9dOg+alXdSIl75cYEfPgXgyKV7aDd1o9nXbugE1Vyyo7WnkxKoB1+YpbvNxaNXRuUcDV2qPu43tQD5ESa2LI+sqcS8X/+wGNuNR6/ch+V7zmmFr/xg6F2rKMrmz6gcmucEXl5eWLVqlbF353gQJO3h0F45/72hbMnBc13MjYwIPMmL+UVjxoyJR48eKWHT82HcePgi+i3caexDpOsLLcCT/OJuVZExeXyh5q+H3/rjOaoNWWZ13PpwYcKgZQUnZQ5t0sG6dJxpF10CJrt5+oWsYoEcqRJiVqfK4Ee3MfL09Xu0n7IR5249QtYU8bGgW1WjnPvixYvRpk0bPH9uFA8MCSzoV/r8DpXztuzgMwXWZExnakjlIZs9Zw68GzRQUcWlO080zOTL94wOAynN/zsrRQofFst71TSqP/ZH+918+EI7TZy6/sBqefnUCWOjS7UicMqUXOn2sg1w7cGLxmBtK82rK/2eFmhfyRm13XIhrJFO/sjFOxi+Yp+GmJfMQYxf9j/jP336FDVq1ICvr68xN4S59n0AmgfxnhhzLUN1+ZUUJegPW4VYfPDjlxPXxQ8PovWw4O+NOT4+bO0ET9Abgg94B4br+XeR5MmTB0eOHAEBcKTy5v0nLX+7eOfpUEFLKt2/tceTZW1ow1LKrWQ/Wz9TL6v2+WPl3nNgjt6SiIX8YZV2TK9R5bIlSSrvP35GrWErwA8VXXQLWMICLAgd1bSMVhujwvv+/RpvP3pp1Ac7EetYWDd8+HCw/90IYb6dVLDjzRSap58iew/5n6MHOXIWimcGkCMQxI2V34kBkGnre3/Lqlmu7U5gFoItMqROfxrk9PnfiJNvdFuQrTl43kf2KBLJQAwwz4fy6NGjyJs3r/h5YL5z2/GrGOWzD09fvRfr6wrGWSBsmDBwTJ8E7SsXRIZk4gzNLycnfv2u0zew9/wtDeLWUhI5QjjUKZ4LLTyclKbcfvwqhi3fg+dvfotuHiUb6UqmtwBP3EO9Sxqdjzd2ZTyoEW/++HGmzpWFp2TiqzCsS+dprNBfMpeYMwgohyyodOa5g/6wiIGnS37RS33rtxM9nTo3TRK2mwD2ACB9pFLVv3QRxhrIEH2+3bk5GlEsTZs2xbRp08R6VLj/9LVGx3nAX0e2UzKgkUoRwoVFwSwp0NqzAFInimPk1f6p/uLtB/ievI71B/1x7hZhqM0r7DEe07Qs0iaRY88z0tB77g5sOXbFolEH81pEv7o9WIDRJp7gO3kVQoI4PJBaXhiaJwT5jBkzEBBg1CGWym5BIXrpRlitzdxa/iBfRGMw1M4fNFPJSYJozlWcuSFr4QmfHyVHg7haJgTWqP2ftceQKyh8ZRh4WaOG8aOD1fSdA1saxCXxhKzds2cPEikwzLHneMamY1joe+p/bR5G7URXFluAqG9Fs6fWUK8SxBZDIgQ7H+Ftbz9+gQPn72CR3yk8fGE+quDsqRJiXmcvJQCRP56/QZ95vjh25Z7YfrqCbgFjLcDWuZquOeBdJi/4d0sKqWD9/PxQtWpVY0PzXDYL68j1HhwkLdHR6LAZ9iU4P8Pt9DvMndOp06Gzx4//zVzOPDgT8+TOD5ULAA4E5uy7B+XrDbottniC58J5ej8U9IVk0Ea+DYoePToGDx6M1q1bi/S+Db54+zF6zt2OG3ruU8l+plBiJa9r9lToX7+EyWE0ub6Ar3/i5dsPWOJ3Giv2nMO7oJ5dU6yd1yAqmEf+TOhXj4cHufADc+qGI/pHptx0uoaJLBAtcgR0rlIY7k6ZlD5SVZdBfnfimZAS1kghBSyRUXnqptMmP26KoBA7/xtD6XTa/ILhH/43/v+3Ai5b9I109FcCXzEDAnP8ROQLUWxxE1w018WvlQIh7uCHAczDE5d+3bp1CB9e/vXJU3y7KZuw3/+2Xr0sNb6JxztlTIbRzcoiqhEIWCEt6ePnL5i//QSW7DqrAeR8/BxgdJEl0btW9KqhhA7Gls2Jaw9h/o6TIS1d/3fdAma1QKoEsbUi0SwpE5gEp8KQxQ4YMAB9+/Y1ZOjvPIbAGATtGQvgdXD5eVt18Lx5ZJgz6CvlxzudPn16TJ48GcWLF1d6CPacuYEec3eAfci6WNcC+TMkQ89aRZWcpWTldPQHzt/6L3vXAV9F8XWPQBISCJDQO4Tee28CAoJSpElRpEoLxUIRAUEQRPmjKEUBlSJKRwQsdJDee5Hee01IQkLwe2d88UMMvJ3ZfS2Zq++XkDd3ypndvTsz954rVvS3w6Nw6dY93I+MVvJsSRvoj9WfdpZp/p+yJy/dxMdzN2DHMb09rwSgVrIUgdolQzCgVQ1kSGPtcVl8nTxy5AhKlChh9tzd0vF7cGVczTPijJ+nns17soFnACXdnqW96QMCAkTymSFDhiit4hky13ncIhy7YIXjpQdfIl7QNYbulM6bBe+0qIpCFpLhPG3o9LrnGfjK3Sdw+vJt3IuMEhwJMuf1NYrlwvieDZXQZd73oTNWeRTdrtJAtFKCQIAGok2tEsLxNbmv/I6oURBIZNOsWTOsW7fOqIouB9ARj2kmh9vD6v6DiScbeHaW2xDvqMwkV+9ffvklChYsqKKOeesOYNQcfbEpgWexUs6MafB+6+dRXpHPXbU73C5nLP2eE5dw9todPHz4CFduh+HI2es4fe0WHkSTp+LfwtSYM/u3QDEF2s+Yh7EiZv+TeeTl0KIR8AwE+JLduUFZdH2pvOnsj08b0f/+9z8MHjwYjH/XIoUAnfB+t23Vv21fEP9L2dMNPD0bN9o9GqVGnSZNGrFN36ZNGym9uMJ37kehydBZ4E8t7kMglb8fPupUF5UL5wRpbd0lDF2jF/69iChcuRWOW2ERggqXPhv8O7//69FfwnukfvkCSvSc3Dn4cOZqbDl63l3D1O1qBOJFgE53A1pWQ8NK5G+xVjZu3Ihu3brh8OHD2u9JDVoa+Z/tbH2XH6/CfU9MYwNhnvjpABoZK/7/pehs16VLF4wcORLp06sRp0z9ZTsm/qzTyMpib1V5eqNPCG2ECgWzOW3lYKavfwnqib/+Pqd/jIZCNbf2wTNXRVZDruS1aAQ8CQEainxZ02JYu9oonDOjZV27d++eSAM7c+ZMPHz4rGg2y5pMqBWREWsygHcffxp5uoHnoU87W5jDNJVZyZkzJxYsWKDEbMf2uKJ66f0ZmmxEBXyTOlysf9K5Pl4ok9dkTd6hzveD3ccvotP/FnlHh3UvEx0CNBYkwRn6em2kSUkSN/Py7bffCn8pk3S05juSMGo4ZaO/fcu+mhcj8nQDzz4yT/wsAEVU5oB8xt27d4evL8Mc5eRBzEOMnb8B8zccklPUpU0hQHKN7g0roNXzxeGTTD6vgKnG3aTM8/7vftuFZduOitj/LGkDERwYIDLJXb0dJpz8Yh/9BToB3o2IEhEef+8gaNEIOBcB7oamSxWAFP6+IIFTp3plkDMTN1fVhdTge/bsQY8ePUT+EC2WIBC3VU8jT5pbrzDwvJIYGNlbpb8lS5bEihUrlLbpeRFuPXIe/af+hrBIJv3R4mwEUib3RfNqRdC+XlnLVgnO7rMV9fPOjIyKFi80pAt9MtkHz/jp5EfKXXLrbz92AeGRD3Dk3DWERepwTivmQNfxbwR47p4nS1qkTx2ANrVKokjODCLHuxUSGRkpnKAHDBhgRXUeVQfv3bRp0yJjxozC7vj7+4NEAv/KNGPjW+GuxenTp3H9+nWQwc8iYVa6gbbkN98wU503rODZx5YAPgdAMn8pIdiLFi1CkyZNpPTiCl+7cx+fzt2AlXtOKOlrJeMI+Pv6oF7ZfHjzpXLIkjaVccVEWJLOfXfCo8Cwuj8v3MDOPy/i4k1yXmjRCJhDgMRSZfJlQdn82VCzZG5kSZvacgfXiIgILFy4ENOnT8emTZvw4IH3LqDInlq6dGmQfyVFihRitzgkJASFChVC3rx5kTp1aiRJkuQfI8+FY2xsLC5evCjGfvToUZw5cwa///476JNggWwA0AnACW8w8BxvHntAf32VwdeoUUM5vpJbpEu3HMGnC/5ARJSpxAcqXU80OqSnrV4sN3q/UtlUmslEA5h9oNymD4uIwoEzV7Hrz4tY8MdB3Ivw3odlYps/Txtv4Rzp0er5EiidL4t4yVZ1GDUyLho5ktts3rwZ8+fPF89oT3e042q8WLFiqFKlCujjxX/TgBcuXPiffydLlkwq3S5xuHLlCjZs2CBeevgxKQz9ehPAj95i4LkvNMiegEaaUsnPzw8bNvyB8uWZS0BeTl2+hU/mbsBWHb4kD55BjVJ5smBkhzrIms78yp0ZqPg2zFUByTMSg9DQM4f88Us3uQbsUAAAIABJREFU8fnCTdh76l/RMokBAj1Gkwj0bVIZ1UvkFi/YTN/sKqFRP3fuHM6ePStC5RjeTMPvbsmQIYMw5NWrVweTmCVPnhwkUQsODga/S5kyJZImTfr36twC4cqeq3rSrPfu3dvstv1sm594V28x8ISvvP1coagKls2bNxdviSrC7dCvlm3Dd7/vFk5PWqxFIHNQSsx5vzVSW+SZu3LlSjRt2lR0snLlyhg3bhyKFFHy0bR2oC6ojWf5NPTr9p0WSZO0aAQcIZAqwA+jOtRBhUI53OrUSgNHYx8eHi4+ly5dwvLly/Hjjz/ixAnnHJHSYJMel7u8VatWFVvq3GKnMefCkL/zJw05j3uf9I1xhK3K9/RP+O6774SR5+peUe4AyO9NBp7u1OSm52G69CsT37b27dsnzkZUhOecw2etxqGzzs8lrtI/b9ThxZclXSosHNoWTNBiVuioQs/csmXJj/T/wpuSzpY//fST2E6Le/M2254n6/NhueHAGQyZvlI44fHfWjQCjyPA7fdC2dKj/6vVUTwks8sSyqjMAg0/d+Sio6PB8/sLFy7g5MmTuHr1KkhzS4e1x40hz8K50ibhWaZMmZAjRw7xk4Y7mY8PfJIlEzTmstvpKn1X0bl//z7GjBmDUaNGmTHy7bzJwBOnxraUf98BkI7R4EQyXG78+PFKb2FcuX88Zz2WbD4s0o1qMYcAKV1DMgXj0671xU+zwpubDisvvfSSePt/mhQvXhwDBw4UDjC5c+cWBj+hCo36xoNn8cVPm8FjJobZadEIEAFGajDkLbRxRZTKm0XpmaiRdC4CO3bsEGnPTYQRzvU2A8+n8UoASofpdITg+Qa3YVTk0JmreOfrX6QSj6i0kxh08mZJi/4tqwlPXbOOPDTua9asQdeuXUXYiSPhij5btmxo3bq1cI7h+Vq5cuWUEhM5assTvv/jwBl8sXgzTly+pVfynjAhbu4DX64LZEuPd5pXRdkC2bwiVtrNkLmleT7Xhg8fLo4YuaJXkPPeZuA5xm52Sj7p8aZKlQrvvfeeWMGpCClER85egyVbjqqoax07AtnTp0Zo40qCFcvXxxyRDbfl165dK+guDxw4II0xd3aKFi2KmjVrii29MmXKiHP7hLayp5EfNmsVbt4jo6WWxIwAiaRGdaiLGiVy65W7h18Iq1evFgsXHkcoyF/eaODTAjioGhNfr149TJ48Gbly5VLACzh2/jpajZqrV0JK6AFBgf7o2qA8GlcuJBjbzAi3oLmN1bNnT+zatcv0nPB8Lnv27P9s3TOutU6dOqhYsaJwtPFm4eb8lsNn0eML5qTQkpgReL91TTStVtilnvKJGW8zY79x44Y4dty+fbtSNd5o4DnQwQBGqIyYzEKffvop3njjDRV1cY45cvZqLN7k/jAOpQG4UcknWRK0e6EUOtcvZ9q4cxgMq2nZsiV27txpNqTkP6hwGz8uxpVEFvSmpeMOjT5X+DT69Myno463CP3sNh08g9CJS72ly7qfFiPQpHIhDGpTE76JhALaYvhcXh0XMQ0aNBBhvyqOst5q4DMAuEhfERXE27Vrh4/HjEHmTNLEeKI5coPXe49J7rTIIPBi2fwY3ameJd663JpnWMuWLVtkuuCUsoyDZRjNzz//DO4QuSKURnUgUdEP8cm8DVi0UedXUMXQW/V8kyXB/CFtNZGUl01gw4YN8csvvygtYrzVwHPZ9CmAPipzxXCJb775BvXr11d+GI+Zsw4/rpM/81Xpr7frMI97xUI58GVoQ6U86U+O//bt2+jcubOgIPYU4dY+eRYqVKjgKV16aj+Onr+O3hOXgjTMWhIHAkmeew7vtqiGFtWLWhrrzlUlKZOZ/IjZN/niePryLQxs/TwK58hg2scmcczO00dJfBs1apToDDxfTKoB+EklZI5whoaGYsSIESJOUkWY5KPXxKW4cTdCRT3R6NC4Vy6SAyPb10XqFOZTTDIxAz1LyXblKcIYW2YtbNy4sWWsVrfuReDqnXARzpQpOBCB/tb5ADx69BeWbj2C0XPWgyt6LQkfAYaikimycE5ufpoT+nNcux2Os1dv427EA/y6/ZigSQ6PigFJwSjktejVpBIqFMiOkCzBlrzYm+u1d2oz5Ldu3brKO5XeuoLnbGUEMA5AG5Wpy5w5s9hSfZIUxWhdZAub8st2TF+xx6hKoivHVUPlwjnQr2V1S7YFSWjxxRdfiLCRsDAmTXK/MGPUBx98gE6dOimlJH5yBNfv3Me2o+ew6/glHD13XayAiubKiBwZ0qBAtnQokiujJSuwM1duC/rlzUfOuR9E3QOnI9Clfjl0fLGMKd8XQaV64x62HT2PXccvikybXL0z02F8kixJEhQPySQcassXzI7MwYFOH2dCa4DEXa+99pqg8FURbzbwPH9vBeAL1VU8SQS48lLhEubFvvfkZYycvRYnL99SwT5B6/DCIoHG282rilUDjb0ZYRzo119/jY8//likV/QEoWd9hw4dMXr0KOWdoMfHceHGXYxftBk7/7yAO/ej/sn3TuR8fZIhV8Y0KJo7I1o/XwJ5sgQrHy+xTT6SF6w/gIk/bxVtaUm4CGRNm0qw1TGZk+ptyJX57zuOY9m2o9h36goiHpAd0TFmbI87dyVCMqNiweyoX6EA0liwk+e4ZfeW4M6YFeycU6ZMweDBg5Wfeeaeuu7FkK3nt6eRVcoyx1hnxk7z/FRFeO709bLtmLVqj3hgavl/BPJkDkK/ljVQLn9WJE0qzSz8LyiZPGbOnDl49913ce2a51AFM37+t99+Q9asWU1P/fU74eg7eTl4Pv4sxjkeeeTOFCSMfLPqSmkZ/unr7bBIDJz2G7Ydu2C6/7oCz0XghVJ5MLBVDaRLnUK5kxN+2oyftxzF9Xv3DRn2Jxui42mqAF/kyhCEXJmC0aVBWWRLnzBYJMmPwh03hqGevXoH2dOlxmsvlELGYOm8aP+CjbuUffr0wcyZM1Xpaq96u4EnS0o/AEMB+KtcvW3btsX333+voip09p+6IihsD5/zHMOjPBiLFPnGPvDV6qhbNr/pPNLcKSHZwyuvvPJMClqLum64GnrNMxkGs0qZlfsPotFoyCzw3N3oiyJXB61rFEOfZlVNNT/qx7VYvOkwYh5q+mVTQHqoMl8Imf6VrHWqjJFfL92Kab/vBg2ZFcJMdSn9fZE5OCXqlcmHJlWKCH4Mb5Co6BjsO3kFq/ecxOGzV4UPAhd6D2IeIjomFiVCMqFP0yookjOjMt5xODBpFhPOMF+8oqz0dgPPcXMZ8zUThymCIFiCVJPQkKP+fws2YsGGA5qj3s5x3e3l8iLW3azQuO/fv1/4SXhSnmjGw7NfqtfM47jcvR+F1h/NwaVb8j4FjGXu1aQi2tYqpfwwCY+MRutRc3D++l2z06X1PRCBbOlSidV71aJqxF57jl/E21/9gttOPMbxSUqD74cKBbKiceXCKJQzgzh+4guJT9KkwtGUu4BWGys+X7hbxuMHPsf5e1ysOV9mzl67g+1Hz2PL4fMiQiAyOhqRDx7Gu8PGMRDjfi2qiQRaZuXu3bvCmfizzz4zU9XHVmNmpjOqulzFf2Jz7OxB502VSriKZ3o+VdISJvIY9O0KwXJndAWm0k9P1/HzSYamVQqL8z6zseC80Xbv3o3atWuDF7unCElveNO1b99exL6bkUs372Ho9JXYdeKyEokF2+Y254g3XhD+Dqryxpj52Hf6iqq61vNgBLiiHNu1AdIrbM/TkXjw9JVYt/80GHnhKuGLq79fMqRLlUI4mBbKkUH4nPD5wjP9v9O2As/xv+cgGPme3J2gf0Bs7CM84hNZ/E/jDXGf8ScdA+/df4DzN+7g/LU7OH35Ns5dv4OIB1yJP0T0w1jDyZmCA/1Rp0w+9GpcUbyomBVy0DPuvVu3bmKXUFG4JdckIRh4jr8UACZ7z6MCBj2hFyxYIIhTVIQXzdRfdmDarzvFhZEYhTdlo0qFxGqBb9xmZevWrcKIHjt2zGxVlumTzY59+uijj5AuXTpT9XJF8OXizVi556SprU/ewJUL58SgNs8jq+LK4efNhzF05mpT49HKnocAjR/5J8Z3f0k4acrKmr0n8em8P8Tq1ROEzxWxmk/y3D9Gnc67/r4+/2Hm46qc2+kxsX+vymnQ+Te+qMSt2s1mV+S9VzJPZjSsWBCNKhe25LlHnM+cOYMuXbpg1apVZmBn1q3yCcXAk/jmSxu7XReVXPFcubdp00bEVnP7VUVu3L2PvpOW4+DZqyrqXq3D7bOXKxRA7yaVkTZVgOmx7N27VzjUrVu3TtW5xHQfnqyAqwYSI3H1TrpaM3LvfhRmrdqLH9fuQ3hUtJmqhC6Th/RtWhktqhdT2jnhiqVC76+UdxFMD0BX4BQE+NL9ao1ieKcFKUPkhAaRGQhnr9ln6gVUrlXvKU1eirpl8uLV54sjX7Z0lh0fkKGTuTW++uors2DQHg5IKAaeYPAsfofqNj3PUxkyR1pAVdlw4IxgCEtMwlUCs8LRsSRH+jTKYThxmPHtdciQIWJHJSrKc8K3yD/PJEXFiqkZ0bjx8axvzd5T+GTuety4Zx1JUtl8WfFe6xrIk4W5mOSlXM+J2odEHjaP1qAR+uD1WnihtHx67Is37mL0j+ux8dBZjx6jOzpXMHt6tHq+OKoXy4WgVAGWGXeOZfTo0YKALTLSVNZHPjibA/g1IRl4Hoh+TpI6lUnneSrJSsaMGaMc08yH98gf1uCnRJSIpkTujBjQqgYK5jAf604KWuJPMhuTF7jKJfBUnbx58wpSpIIFCyqtkB+vmGd9b362WIQbWSl08uFZa43iuZWq7f/1r1ix54SSrlbyTAR4Njyl7yvIm1X+pY/phcfMXY8LN+555uDc0CvuiDQoX0AQBpG0x8fihD3k+ejfvz/u3TON+Qp7WvXTCcnAc8rJbncZ9L9QEMYzT5o0SXD/qgodp5p8MAvRiSDsKGOalHi/dQ1ULxGiCtc/etHR0Zg2bZrYnvIkYQrZU6dOgcyHZiUm9hFqvDMFEVExZquKV58Pns4vlkNAcvkMd+eu3UGjobOc0i9dqXsQYNz7D++1RIY08vHYy7YewZi5GxAWaf4IyT2jt7ZVHoNNfesVQdpl1oE4vp7NmzcPJF6zgOeDDxc+RL8FEKtkCK2FzvLamITmXdVaO3ToILZJ6HinIlzFz99wAOMWbkrQZ1cpk/uC4XAkdDArPHdiopbWrVt7zDkwfTFy5cqFTZs2gYRIZoXn7m+OW4yjF2+Yreqp+oEBvpg98FVBaysrPHMt3X2CrJou78EIZEiTAouGtkXKADnPbvrLz1u/H2Pn/ZGoj224YucuCP0YWtUsYYrm92mXyYMHD7B06VIMGjQIx48fN3s1cerWAugNQKSLTIgGnmfx3KJQWnIx+cz06dPx8ssvK4dBkXL0o9nrsCWB8nyTZOX12qXQo1EF02+zNO4/LVmCV1u29IhY92TJkomt+GbNmgkWqaCgILM3HSIfxGDiz1vww9r9Tg03SvIcsPCD1wTTnazQwJfrMRGxRvhHZSvX5d2CQMaglFj64evSHvQPYmIx/fddmLxsm1v67e5G6aVPet9KhXOgebWiyJM1rWmq7fjGxGPIn376SUTlHDpkSfrm2zYn8w8B8E1dZJFKiAaebvDvAxioOr46deqIFaXqyo2r+LV7T+F/CzfiioeEmFh10/CttnXN4uj9SmURqmJGGL7ClK8dO3a04tzJTFfEy1zhwoVFPnce0VSqVAk09maFoTlLtxzF+MWbcTvclOOMw67wZl40zISB7znRcOyvw87oAm5HIEeG1Fgy/HXpl3CSL036eRvmrt/v9jG4ugM8dqxVKo9IklW+YDYRe+8MIXHX1KlTRVSOBSt3dpEGfbl99f5PBqmEaOA5pooAptpi44uoTA7jnSdMmCBiEVXl75tkKxZtOpRgaED5ZtuyRjH0aFgRgZLbfvHhSB73t956ywwVo+r0/KPH87RXX30V1apVQ/HixVGuXDkwiYwVwsXw+v2nBNOhq5jiFn7QBnkyyztViRW8NvBWTLvH1FE0VwZ8P/BV6f4wFexnizbh1x1/Sut6q0KmNCnRsFIhFAvJiLL5s4nteGcZR+bWYAZKkqtduWIZwRTjs9+w717/w0rkrDG4e56Zl3AQ4wBVV/FZsmTBkSNHkCqVOu0gme2Gz1qTIHjqeaG8WC6/yPGcOW0q0xf/zp07Raz7xo0bXR7rTqNOQ86dA8a0FyhQQHDKW7Fif/zCP3Dqisi5foQMhy7a+tYG3t2PHs9pv1z+LJj6djPpDjEl7Nj5G7B2H7lSErZkCkqJplWLiO34PJmDEZDc16kDpkGnIzEXNxER1oXJ2vOxkNH1weMDSKgGnmMkNz2D/UurzhjD5ujZrSpcFf22/RjGzPsDXNF7szCvc/+W1VHEAi/SCxcuoP+AAZg3d65LjXuNGjXwzjvvoEiRIkibNi0CAgKEUXeGVyyJjz6ZtwGrdp98ar5sq6+Hv7fo2yJ3pmDpqvUKXhoyj1eoUiQnJvaSjwjibhND5DYeTLgx8NnTp0LfplVQPCSzSGfLkDdnG8MdO3aI5DH8STpaC4WOdS8D+M8bg7PHZOEYpKviq1gcR7183BCAlClT4vfffwdJTlSFfMj9pv4qyE28VbIEB6LPK5VRr5w5BjeO/86dOyKnO+PdnSE8XvH39xdn6lyVt2jRAi1btkTu3LmVWQpl+0m64hkrdotc666UZEmSYMHQNsil6mSnt+hdOV1Ob6tmsdz4rCef+3LCkElmyNx8+J+jXLkKPKw0jbefT1IE+PqgSZXCwnGOIYSq2fVkhxfnKT9w4ECR2MxiOWOnar8TX70J2cBzvIzh+oaUwSpb9UmSJMGLL76IWbNmIThYflUUB/i1O/fRedwi8MbxNuHbbZf65dC2dknTLHWRUVGY8OWXGDBggCVb1pwfRj1kypRJGG9SDjOfQLNmzZEvX14wMYzV2+6O5o8Olr9uPya43V21LR/XpzL5suLjTvWQPo083bL2onc0s973fYUC2fH1W02kO04uD4bIrdnnnYsS8tMHpfQX9wHj18kXz+PFnBnTiIgCVxo9cmgwHfmnn37qjHTXFwC8BmD90ybZlWOVvtAsUKCb9zB7znilTHM07KRODQ0NNWUsdh+/hAHTfsP1u9YymFmA0VOrYGIHkqd0fam8aY95hsORX5lbVGa2p7Jlyya83bnFTqNeokQJVK9eHTlz5hT/drVBfxw8pphcvu0YRs5ei4ePXJtfPUVyX5FV7vmSIUohPTTwZXtMdNlxgjOvW1333wioOtndi3iA2av3YvaavWA6YU8XHrGlTx2AXBmDRNx6Cn9fFM+dSZyrc4HiLE/4Z+FCL3mes5Odbvny5c542T9vW7QOBzDbFjH21PPfhG7gOQc5AJAgvrjqhVqhQgWRiKZMmTKqVYgH5/er9uKLnzaL3MOeLnwLblurBEIbV4Kfr7lQEa5k6THat29fhIXJZaaiwSb+FStWFDHpdIpjfnhuv5NlzmzKVqvmITomFos3HcKEn7ciLOJffi5WNfHUepgP4MWy+cWZImOfVUQbeBXUPFunWO4MmDVA3oue/qDkot986CwOnr2GDftP446H+BDxuUQjToe4XJmDkTrAT3i8M+99/mzpkD5NSiT3Seay7ff4rgCGvf3444/CuJtI9/qsi4uu9+PskWLP3BZODAaeY2T4wHeqtyMNCT0fyTZkZqv+VlgkJizZgkUbLSE1UB2OIb0G5fOj/6s1kCaF0sbHv9ogjztX7mfPGnfa4aqcZ+ekiM2XL59glaNTnKcY9McHyFXOgg0HMGv1Xty0MIGMoYmyvb1ya36QiUQzbEcbeKNoe0+52iXz4H/dGih3mBwOt8OjcOLiDdy4G4Ert8Ow7eh5HD57DfedRLcc11lybHBVHpI5GCGZg5AjQ5DIEc/UsFyV8ww9bWAASLqVLFkSpV0rZWCeosizdj7raNi3bNlitZd8XKsksxkPYKIt74pDWszEYOAJjD+AZQBqqU5q+vTpxVl83bp1lb2uuZI9feU2xi3c6NEeqjyzGtK2FvJkUfc7iMOZqV+7desmPEe5Tf8s4csTqYLpGMeteGLOc3VneLmrXgdP6t0Oi8T0FbuwcOMht2xnZkkbiCFtaqFi4eymcNIG3qorwnPq6VC3FPo0rWpJh5g7nUdQ4ZEPRIpj5lNgvvWIBzG4dOOe8C+6cjtcvAiQ0CniQbRgcKRQl88+fz9fJPdNilQBfkidwh/pUvkjY1AgsqZLLfjy/f2SwidpUnFOzl1Df99kYnudRpwEW3SK4wreE58HDH8bPHiwMPA3b950+KxTnBSel4y1O4/fNVJHYjHwxIIUtqRmUh4z2c3IcMekNGZk29Fz+GTuHzh5+ZaZapyiS4rGYe1qoVyB7Kbrv3jxIrp37y64lh0JiYVee+01ZfZAR/U74/sbd+6j54SfceyCwxdpZzQPn2RJ0LleWXRtWMF0/X8b+Al49A9FhukqdQVuRmBo21poWk2J68vNPfeu5hlpRbKsu3cN2VwzgyMNLc/dDZ/xKhs7M710ky7D5kbYE9Eoc6wOGz4cQwYPBj24VeXRo7+wcONBfLVsu1u2dOPrNy+EdKkD0LtJZbxc0XxaVGZFGjZsmMihHp9wZc5zdB599AwNRapAchN5vtD+3boXgRMXb6LftF9x775rz9vjEOK5e60SIRjb9SXT0Q2sUxj47hOMPzk8f6oSfQ+n9GmC8oXMv6gneiCfAIC7EQz3PXbsmPAr2rbN6Zz9XAmOtp+7Gzbu7HZiMvAcbzEAc2zJkgqrXrQ8j1+9erWp2Hi2/TA2FlN+2SHipZncwd2SOoUfOr5YFm1rlQS9580I8xnHxbrHty1PD/gXXnhB0NTSYc4Tz9XjG/+d8Ej8efEGpv+2G9uPncdDNy13edOSxOTzHi+bnqu4cdLAl+k+AXoBb+bK9yzd+UNaI1/WdJ7VKS/vDZ2Ed+/ejdmzZ2Pu3LmuyKFxwm7c6S0vvZpIbAY+AMCb9m0OZQ7aokWLYuHChcKj24zwDItJHb5fvdet4Uk+SZPg9Tql0Ll+ORE3akb4dssECjyPYrakJ4Ux6/3690fbNm2UU/Ka6Z+KLp3oeKyy/dgFrNt7Ctfu3oeLmGf/012u3F8olRfvt3keaVLStcQa0elircHRk2pZPrKdON/WYg0Cq1atwooVK8Sz//Tp084IfXu8o1z17bEb919ttOtKmaoSm4EngHkBfGan9lOeeeYuJ40tPbvNCJ1VvluxC9/8utNtRr5NzeJ486XylhgM+ihw2/369ev/gYXZ+RgL36RJExHi5unCcLefNh3G0fPXsevERVy/c9+t2dZo3OuWzover1RBlnTm8wE8jr828J5+Ncr3b82nnRAcaO75JN9qwtLggoWGnVkv169fL7blHTkLW4AAnemY8px0n9tteVWUyQgSo4FPCuAVO3ghqpPBJDQkwGHCFLNCQzJr1R5Mc4ORf7VGMXRvWBFpUpo3uNu2b0fLFi1w7tx/KS7p+bps2TIRheBOMhpHc8Ub+uCZq/h5yxEcO39DRD3cj4p228tXXH95o9YsGYK3m1VFVhp3WnsLRRt4C8H0kKq2fdndLSQvHjJ8U90gUc2atWsxdcoUsSXPEF8zBF2SneEClDndSUMrdeb+ZDvWPiUkR+HG4tzbpPdXWwBKLC58wHKLntvR9evXNz0Uhp+QPWrqrztdRoTTqkYxdLPIuNOoM4/6vn374sViypQpYPIeM86JpkF+RgU8X//u953YePCcYBtk+I+nEBLxJi2bPytGd6qHtKlTOMVxRht4Z15drq87KGVyrB2rnu7a9T32jBa5Oifz3PAPP8Sfx46JWHYXGnZuy79uo1b/SXVLXhv4/0egIIDFNqc7/lQWGvfPPv8c+fPlM72qehDzENN/3y0oIsMiHzjtnJeJF1pWL4ZO9ctZsnKnx/wbb7whEvPEx7/OPOvr1q0TTHTuFpJ30Knx4cNYEbe7ZPMhrNt3Clduu3f7/Wm4MPaXtJuTejc27R/xLOxjYmJRrtckd0+Pbt8iBMrnz4Ypb3OjUsuzEOBKnUacIW7jx4/HN998IzzkXSwkDDgGoBOAHYB1vq6JdQXP+ePYO9u3QpSTAHMl36dPHwwdOtQSA8ZV4/KtR4Xj3fFLNy29zriryyQMNO5MHhMY4Ge6fp6106Hu22+/BW+WJ4XZ3RgHX6dOHdMvQCqdJTnHnfAo3AqPRHTMQ5y6fAurdp/AobPXQM5tT1mlxzc2rsLKF8yOke3riHSWzpTwyChUfWuqM5vQdbsQAdJM92tZ3YUtek9T0dHR4hjxxo0b2L9/P6ZPny624clE52Jh0ApJNObZQ+BOW2nc44yci8fkUc3Rws0C0MJMr5hWdtSoUejatSto0MwKV8F7T17GjJW7senQOcEgZYUUyp4er1QpLFImki3KrDBk5MsvvxSpXxkaF5+UL18eM2bMQMGCpjZKDHeVWJ27dhfMiMWzc1LH7j99BftPXcbtsChExfz3JcRw5S4sWCB7OjFXLaoXR9Ikzn8PZ/76FwZ868IR6qacicAHr9XCK1U1yQ0x5vP01q1bOHToEEi+dfnyZSxZskQY9fDwcGdOw7Pq5tn6bnu2U4bAySXpMNhr5z85DHbEjcVy2bfqmVJWWbJkyYJPPvkEbdvyWN8aoXFa+MdBrN17CkfO/9cr3Wgr5HBuUrkI6pbJixIhmS1JxMBzKXrM9+vXDxcuMGvhf4W7Gx988IEoYzba4GljZRTCnxeu4/jFm4Ii8+79KPH7mau3RdIXbsfzfNlbhBwEFQpmR4d6pVEyTxbL4twdjf/ijXt4afAMR8X0916CwNS+r6BcwWxe0lvru8lVOmmySZFNg85n1M6dO0V4G7fk3SzsALfL5gNxsw5EAAAgAElEQVQgS47TVh3awP890zys4luUqcDiHDlyiDAwK5zu4i5Ansv/eeEG1uw5ieXbj4G55Y0KjUWNYrlRt2xeVC6c05It+bi2ebO0adMGzJz0NCFbHfHo2LGj0S47LMe38VNXbmPtnpM4f+Mubt2LxJVbYSI2ndzX0RbtdjjsiBMKBKVIjpbPF0P98gWQI30aS17EjHbz1OWbaDr8B6PFdTkPR2DO+61QMHt66V7y/uJRG+9dbxGxQr99Gxs3bsSWzZtx/vx5saNIo86teP4e3/Ghm8a31m7cGdvu9MN+beD/nmWS3rwPoL/ZSc+TJw/mzJ2LsiZSyz7ZB17ANF6XboVh74nLIm6eK66nCZMz1CmdF40rFUbuzEEivt3KbV5uc5GXnzfSs4RHFzTwZnc1uP6+eP2u2M3YdeKSiEfnSl2szh89ss4jxezkm9DPkSE1Rnesi9yZ0zrVme5pXeQOUeuPSPKoJSEgsGxEO2RLL09yw3v7xRdfRPbs2dGgQQM0b95cEFJZHZapijF3DhmyRqfdtWvXimfQ7du3cf/+fZGKmh+u3l3o+W50KDTmX9rSl/McjFueTlu1P94hbeD/H418AL4A8KLRGXtauZIlSwpihNy5c5utKl59GnxmMaPBP3buGi7fChM5kPNmS4e8WdIiOFWA04wEPUzpFe/IuLPjccQ2rVq1UsaBnO9DZ6zCiUs3vXp1/jQA+OI1on0dvFguv1tTXh44fQWvj+GOoZaEgMDasZ2FQ62s7D9wACWKF/+XWmBgoEjbXLlyZREKy5/MI+Eso8+XdkbmbN++HZs2bRIfvnjw2UMD7oHG+1kwc33Cs/buAHaZjWuXnU9t4P8fMRKwN7Z7M/JcXll44dNr/IsvvhC5zD019ltmgHyp4E3Wrl078fYcXzjck/Xx3J25kZklTlXC7SRAizcfFrmprXI4VO2PFXr0iA8O9EfNErnR7oXSyJyWxDVW1Kxex56Tl9Hh0wXqFWhNj0EgZXJfrPqkk0izKiv0q2nZsqVDNeaP4P3t7+8vfnK3ji8BXO3zxZ7/5iduqz8mJkZQV/PD1Tajb5hWlZ7sdHSL+46e7NxON/J8cdhJ9xYgtezlx3jklahmzQ7BzY8Vs923XJ+vvAMAvGXftldugEa+adOmGDlypCDE8WYjL869T53CoEGD8NNPP4ktMCNCxrpJkyahc+fOpt72Gcp29Nw1LNlyBFxpnrx0CzGxpgiejHTf8jKMaS+cI4M4G21atQjyZ0vnMic6R4PZdewiOn22yFEx/b0XIFAsV0ZMe6cZyHchKx9++KFwjNWijABj7Y7aqWaZu/2ack0WKGoD/18Q6XrK1HyvAjDlaUKjTiPPtKlFinhnyAqNOz1PedMvWLAAUVFRUpfd22+/LSh906RJI6UXX2HGsdNDfu2+U8IHYcexC7hxz+0esQ7HlTZVgGCiy5o2FV6qUBA5MqQRudw9SbYeOYdu45d4Upd0XxQRaFypIAa3raXEncAcG3PmaF8MBei54qDH8XK7dzy340lg41bRBj5++JlOljFDZc3ODlfyNWvWFOlTy5UrZ7Y6l+tfunQJvXv3FvSNssadneWLzY8//ohixZip1xrhip5OdvtPXcHZq7dx/OINbD1yHjfD3LILFu+g/HySCaNeJn8W5MwQhOIhmUBDn8SJe/FXrlxBcHCwEhfDxoNnEDphqTUTpGtxKwJ9XqmMdnVKIWkS+ZfIihUruiK/uVvxcULjJKsh9fkGe9gbg+s9IjZXG/j4Z5u4lAewGkAKKy6IQoUKCd76evXqWVGdS+ogOQQzv23duhU8Q1MRbtOT6IbnelYnmWF4O8/k70VEifDBW2ERuHE3AtuPnhepXV29uk+TIjmqFs2JKkVzIV2qAJEUhkbdN1lSU0cURnAniceIESMwevRoJedO0vX2nczFhxZvR+CjDnVEqKXKy2TevHlx8uRJb4fAVf0n1ej/ADD07RAAjzHscQBoA//0S4HYNLIT/1tywdAJ5f333xfpVD1deJNz54GxpGYdXvjQ4EtC2rRpnTps9pOkNoyFfxD9EPciH+BueJTICLfz6HlsOXIe1y3c0s+TKQiVi+RAhUI5kCVtKhGOSFIh32TJxMPViYv1f+FITgIehWzZskVQb/JlUlZI3/vuFIbmavF2BD7v8ZLgv1DxcucOEMPOtDwTAbKOTbSzoF4E4HKOW6Pzow38s5Ei7ywd7obbzuXNE7cDwrP0rbfeEg9kepuq3IRGJ1elHLfhf/31V4SGhoLb81YJx0umP3rfulO44memOPIKREY/BLP4Ma7+2p1wwYTH2PqYmIciUYF/ch+kSO4nPN4zBQf+E34Y4Me/+yqdcVo5doYLkdyDPAOMcKAcPnxYycD/vuNPDPjmdyu7p+tyEwJksStbIJv0CyZfkLnL5oJ8525CRrlZnq+TYYxvPnSc+97+u3KFrlLUBt4x0qSDGgKAdGyWbNfTyHHLmklqypYt63ajRwh4U9OgM6xt8uTJIoTFSuGLzNy5c4XTobuNvJXjclddDC9iuCKz+D1Ovalq4JdtPYrB01e6azi6XYsQIK/CjP4tUDRXRukauVtHghstAgGeoZNNjKQ0PLMgRwppZd1GXq8yL9rAG0MtP4AP7XHyyY2pOC5FBzSu5skYxe17dwnP15nq9fvvv8fixYsNh8HJ9pee9N9Nn46GL7+sjbwseI+VJ/HH7NmzBUvgk8cnqgZ+yabD+GAWXU60eDMCGdKkwFd9miAkc7D0MJYtW4aGDRtK6yUwBTob7QVwwva832NztF5m/13NCcnN4GgDb2wCiFMZ267tGADMwSjPIPGUdvz8/NCsWTPhzMabK3lyy94fDI2MZ7Y0FiS4YDicM4Wr+Jw5cwpuAFJgcuxajCPAnNU///wzxo0bJ87a49tKVTXwizcewvDv1xjvjC7pkQiUzpsFIzvUET4hssL7kiGtiVAYa7vTzjTHs64/bGHSRzzRaU52brSBN44YY04YNjfJbuyNazooyXj5bNmy4fnnn0eHDh1QtWpVyz3On+zCuXPn8c0308TKfdeuXS5LxkAjz7GG9uqFTh07Ot3xzrJJcnNFNNz0kF+zZo3IjvU0x0dt4N08UW5uvmHFgni7WVUEBcrT1LZo0UJwXSQS4Vb7KgDrAZwF8CcAJtfg372PRespk6YNvNzVTCPPxOY8rMwip+q4NB1c0qdPjxIlSghvexp6q4Xn7BMmTBD5kM+cOYuICOPZ6azsS6pUqQSd78SJEwW9pZanI8D54qqdZ6SOwhW1gU/cV1KXBuXQoW4ZBCSX5+gixzwjMRKokH5zB4B5AA4yfxWAW/Zzdm6/Jxij/vj8aQOvdjVnsMc9plNTN6bFc/nu3bsLj/agoCBjSk8ptXv3bvTt21ckcCDfs6cIz+WnffMNmtkY/7T8GwFuw7/88suGEvvEaWoDn7ivor5Nq6B1zeIg0ZKskFL7WemfZetzc3ka7HUAmAN5k92ge1ycurMx0gZeHeES9ouHDnjyd5NEu76+vsK7lSvexo0bCyITeqLzwy3vuFA7EQf+6JHItsSsS3TGotMcjTvPbz1ZODauUrl974nhg67AjvPHeSPv/5gxY0RGQqO8/9rAu2KGPL+Nga1qoHm1oko5DrwkBp6rbVJW8kPe7Fg7JSy32bnlTmPO38ku5zkrGTddOtrAqwPP7Xpyz46yJRaoDMBl3nE07IynT5EihaAl5b9pHJiFiXHscdmZzBLUqEOjpsnVPFPL0umwdOnSYtfC03gC1EbmWOvq1aviRYw+EdOnT1d+IdMreMdYJ+QSw9vVRsOKhcDERjLCbG408JJ01HHnewE2rhC5BuPvHI036+RKmz8ZpkZDzr/zw232q3YHODLH0SuYedbD7MZeZsiJoqwVk5IogHrKIGnkS9suroEAGpAbJTGDYdXYeTTxyiuvoGTJkqhTty5y5cxpVdUeVQ9fwI4ePSp2WjZv3iwy9ZllEdMG3qOm2KWdYXrYke3r4IXSeaXbJdUxX6old4xI+MLzbMbkkRSMB/9ksqJd4bMxPjJ8xpdz+zzuwxU4Pw8B0JudK++4D405z8m5UueHK3KvDFeTnhCLFLSBNw8kMSQ3aC87GQ4vdC0WIMCt+kqVKqFw4cKoUaMGatWqJXYuvF1ITLN27VqsWrUKe/fuFSv3e/e4WDEv2sCbx9Bba8iePhWGvlYb5QowIaac0Hu+TZs2Dp04n6i1te3ZN9f+Nx5T8kOjHmfg+fNxG0PjHvehgefvcQY+zuDLdVyXfiYC2sBbc4EQR7qCtwTwuUXbVdb0zLm18I2boSWkv+I2nVOExxCZMmVCrly5kCdPHsGGR+czbxM6MI0fPx4HDhzA2bNnRbib5IrJ4ZC1gXcIUYItUCZvFvAMPl82ed/f4cOHi2RF9N+RkBftec89InOaRL8TTVFt4K2daq7eGdvGt1r5u8zavji7Nm6XDbDnPn7PdjbW3b4957R2eR5PfwOSAQUEBCAkJERwB7zerh0KFSzocef19InYtm2boP5l+BG33+kfwb87yz9CG3inXX4eX/GLZfPh7eZVkSGN/C5X+/btMWvWLFke+op2+laPxyaxdlAbeOtnnpgWt3MX8wZIaFv2fMXn2Rgz7e2yw5fang+5hbMjCp42Xf7+/oLul/msmzZthnLlygonRJII8aWAHAM+Pj7id/7NrMQ5NTIunZ+46IVjx46Js3TSfp4/fx7377uWZ0DdwB/G8O81Va3Z68Kd+s2qFQVzwacKkGeIbNSokbhmJV486QjHlNpkfNPioQhoA++ciSGuPAhjJrpW9u1781bFOX01Wiu34ZgmkbGl/Wz+BueeUOSOBVn+mtidbYzW65RyXO1zlc8UtdzaZwrVggULIl++fMI7P87w8+eTn8c7xC1LGu+4D//NDw33n3/+Kc7Q+WE2NybosXrLXRYcVQO/bMsRDJ7BKCMt3opAm1ol0KtJJfj7ypPckFSLjp4SBp7OdXzJdy6/tbdOhof0Wxt4504Ez6Wb2Y18fS8+m2d4yn7bS8s0OxPU0xJGcyX/sY32sQ0AeTJs587FP7XToJMHn2f7/HBlz59c5fPn47wCDB/iljpX6TTeDCMiUZDkWaWLRqaeLvbX7cfw3rcrXNZP3ZD1CHSoWxo9G1eSjoHn9c2slvv27ZPpFJOwdAFwRUZJl3UtAtrAOx9vYhxiSzn4un11S4IcbxKGrHwL4Cd7QgZHYSrkA+hpc77rZI8u8Kaxen1fVVfwK3b+if7TdD54b70AkiVNgq4vlUfn+mWlfVG4+1S7dm3weElC+LJPHxyGsWnxUAS0gXfdxPBgrJR9Rf8agEyua1qpJZ61zwDA7BMkqCahhFGhka9pI6x4F0Ato0q6nHkEVA38mj0n8fbXv5jvgK7BLQgEpfQX5+9NqhSWbn/Dhg14/fXXce7ck6duz6xqvO3bYZLPBem+aQVzCGgDbw4/WW3iHWijuCW9Lb3OXwWQQrYSJ5enYeeTnufp2wFwO14lDIYxsWSoIQlQW00C5ORZs1evauDX7z+FPpOWu6aTuhXLEciVMQgDXq2GSoXlSaG+++479O/fHzducLPOsDB19kd2FjnDSrqgaxHQBt61eD/eGrGPM4Bd3deNf1om0cRWGx3kIPuKnefuVgidCxk6uAhAWisq1HU8HQFVA7/p4Bn0nLBUQ+ulCJQIyYShr9VCnizytxhj4MeOHStCOCVkpO2lnUZeSkmifl3UAgS0gbcARAuqYOpZplPraPe4J/Wjs7nteZYex+PMnMif2lbax+2UkRYM6T9V0OmOq/l2tt0BZuOTd/V1Rq8SWJ2qBn7rkfPoNp5uFlq8EYFKhXLgwzdeQPo08huCb7/9NiZNmiSbZZLb82PtnPHeCFmi6LM28J4zzZwLMlQUA/CK7ey7qI0VL43tHDw3gPRP4XWW7T2TMvCgjXHszLj0sz37EsPfXCHkqS5rP56oZB+bNvQWIq9q4Hf+eRGdx3GTRYs3IlCtWC581KGuUgx8586dMWPGDBEtIiGDAXxm54+XUNNFXYmANvCuRNt4W5wXrngzA6AhpOcMQ9D4ISUuV/z8ydd1Gs0nhewqPDtnCMsF+0qdZOc07jttlLqH7d9L3dHGu++wJPvNbXsm6KkHoIBDDV3AEAKqBn7viUtoP3ahoTZ0Ic9DoFbJEIzuWA9+vnKZq8nv0LZtW8ydO1cmBp4AcDfuC3u2N88DRPdIIKANvHdcCLxrmamODnoklOGKnodtjLMnU16ckec5Op3kaOCZAP6m3chz5c6/eVp+ZL7EcEXPtLs09tW9Yzpc0kseoSy2OzEx5NCQqBr4Q2euou3H8wy1oQt5FgJJnnsO9cvnx4j2dcDfZYT0yfSgX75c2sGSETITdZpWGbRdX1buanB9/3SLjhGIy97Eko9na3Ks6Tkl6G+Qw07x29DOkMXjicQoPD75EcBv9lSc3L0xzECjauCPX7qJFh/+kBjx9voxM03sa7VKIrQJN/vkhNdLly5dBIudpPS1hfp+5YGLBslhJOzi2sAn7Pn1ttFxJ4LGnkcTVWwOfzznk09u7W2j/ru/DEmkV/IOez5s5r/mCxvzGhimGFM18Bdu3MXLg2d6J3KJvNdBKZPjrWZV0agSs1bLycqVK9G7d28cPXpUTvFvMiuS3VgVbSPbvi5vAAFt4A2ApIu4DYE4Tn9u3ZMWkw6IPK4gaZB8Rg23DeNfDfMYhcabxyXk8Z5sX6E/jWWELzuXjHZd1cDfuHMfLwwkYaEWb0Mgc3AgRnesi5J56ZojJ9OnT8fAgQNx9So3jqSE9+N0J0bdSHVGF44fAW3g9ZXhLQhwdU+/A67oyY5H5zz6IPDDsMIgDw29oyMjwxGv2T2O+SSdD2Ct3T/C0QqIkRX0oTAkqgb+3v0HqP7OFENt6EKehUDODGkwqXdjZE0nn/5hwoQJeP/993HvHn1wpeQNALPtPj9Sirqw6xDQBt51WOuWrEWAK3k6HGa1UwCT45//psHn+T3/Tjpg+cBg9X5ydU5ubq64L9pJQOjouBcADzn5d34vwwxI58oIo11SNfDRMbEo34vkhVq8DYHcmYLw7TvNEBTIS0VOPv74YwwbNkw2Bp6NtLblmpgreS3LdU6XNo2ANvCmIdQVeAgCdDakcadBp6HPZXfc46qfT7641T6NPqMQ4sIO+ZM6Ru4FerYzOoFGmh+uxvmhAWaUAlfaNOLkGDhjL8u/mwlHpE9CpFGMVQ38o0d/oXSPCUab0eU8CIG8WdJi1oAW8PeTo5Rgalga9xEjRsiGyPF6Js22Jk7woOsgvq4Yeah5+BB09zQCT0WA1ze39vnkYzghf3Ifk9veNPo0nnE/48IN+aLAz+MRCQw95FY6DTyNLQ06PzTo3Nvkd3EfruKtFNcY+L/+Qunu2sBbOXGuqqt4SCZM79dcOkQuLCwMgwYNArfpJYXXPVfw0rF1ku3o4iYR0AbeJIBaPcEgQKNOie+ecGf4IZ0J6ZRnSJRX8NrAG8LX0wox7r1RxUIY9kZt6a6dPXsWpKldtEh6IX7ZTjm9SrpRreBSBLSBdyncujGNgDQC2sBLQ5Z4FJImSYK3m1VG29rMRC0nu3btQo8ePbB9OyM0peSEPW/GH1JaurDLEdAG3uWQ6wY1AlII8OjAMAOhmRV82e4TYPX5gtRIdWFpBJIlTYKJoY1QoVB2ad1Vq1aBPPRcyUsKeRnetHM3SKrq4q5EQBt4V6Kt29IIyCPgOgPfYwIeyfj3y49Fa1iMgE+ypFgwpDVyZmSUqJwsW7YM7du3x82bDPSQkg02MqZQAAektHRhlyOgDbzLIdcNagSkEGA4IJ37DImpFbw28IYw9qRCvsmS4peP3kC61PLRoAsWLBA89FFRhl084oa+1BYh8haAk56Ehe7LfxHQBl5fFRoBz0bAhQZ+Ih7ZQqe0eA8Cvj5JsX5sF6UQudmzZ6Ndu3ayIXIEhwQ3/WUYFr0H0YTVU23gE9Z86tEkPAQY5mc4jt7cCl4beG+7fNKnCsCKMR3xnGQWOa7av/zyS/TvTzstLeSgHwTgurSmVnApAtrAuxRu3ZhGQBoBhu8xDt+QaANvCKYEU6h60Vz4IpQJGOWE5+6MgZ8yRYmemJSHTAR1W65VXdrVCGgD72rEdXsaATkEXGbgy/WYiFi9RS83O24u3bNRBXRpUF66F+fOnUPHjh2xevVqaV0bC+RnNiKoD2RyJKg0onXMI6ANvHkMdQ0aAWciwHvUcPTa7t27UaqUfEw0z961gXfmNDqn7km9GqFykZzSlf/5559o2LAh+FNBmNZ4uAyFskIbWsUCBLSBtwBEXYVGwMkIcIs+jmnvmU1t2LAB1apVk+6ONvDSkHmEwqIP2iIkM5MpysmhQ4dQu3ZtlTSxbGiE/WM4ukOud7q0VQhoA28VkroejYDzECDffaCR6pcvX44GDRoYKfqvMsLA95yIWB0IL42dOxVWjemoFCK3b98+VKxYUSVEji+bQ2x5HD7WmeTcOfPG2tYG3hhOupRGwJ0InANgiKrshx9+QOvWzAMiJ9rAy+HlCaXpOL/1i+7w82EkpXFhFrnNmzeLnR7+LilMNDMAwGRJPV3cDQhoA+8G0HWTGgFJBEgNWtyIDjODkV9cNmxKG3gj6HpWmSzBgfhlVHvpTsXGxmLGjBno1KmTtC6AizbnunfsueBV9LWOCxHQBt6FYOumNAKKCDBrl6F0YcOHD8eQIUOUDHz50El4GGvYn09xKFrNKgReKBmCsd1ekq4uJiZGxL9//vnn0rq2PPBHAPQGoDPJqaDnYh1t4F0MuG5OI6CAwI8AWhnR69OnDz777DMlA1/r3am4c99wXhsj3dFlnIhAnyaV0OHFstItkOSGfhpr166V1gWwDUAPALtVlLWOaxHQBt61eOvWNAIqCHwBoJcRRXKLc/tVdoueZ7GvfPA9zly7Y6QZXcYDEPis20uoWTJEuieRkZEoWbKkaogcA+eZSe6UdMNaweUIaAPvcsh1gxoBaQTIGsbQJIfClRmzhKkY+Dc+WYD9p684bEMX8AwEvn2nKUrnyyrdmYiICOTIkUMlixzb+hVAZ81DLw27WxS0gXcL7LpRjYAUAlwxfW1Eo0KFCsJDOkkSQ2Hz/1TJFXzvCUvxxyHp3OBGuqXLOAGBeYNbI3+2dNI1h4eHIygoCA8fGk5x8HgbSwB0tJ3D35JuWCu4HAFt4F0OuW5QIyCNQBMAi41ohYSE4Pjx40oGfsj0lVi27ZiRZnQZNyOQ3CcpFn7wGrKmSyXdkyNHjqBw4cLSenaF+QDouh+hWoHWcx0C2sC7DmvdkkZAFYHKADYZUQ4MDMSdO3cUDDwwdv56zF6z30gzuoybEciXJR0m922MdKkCpHsya9YskSZWQRg0PwtABxn6ZIV2tIpFCGgDbxGQuhqNgBMRKALgoJH6efbOrVfpLXoA3/26E18s2WKkGV3GzQjUL5cPg1rXRGCAn3RPevbsiUmTmBBOWiIBMLaOqWK1eAEC2sB7wSTpLiZ6BLifesgoCiQykTXwrHvJpsP4YJZSdjGjXdPlLEKg+8sV8Ebd0kjuK8dix+arVKki/DQU5CaA9436gyjUr1UsRkAbeIsB1dVpBJyAQCEAh43Wq2rg/zhwBr0mLjXajC7nRgQGt6mJJlUKI1lSOWdKdjlPnjw4dUopyo2UyXT4/N2NQ9dNSyCgDbwEWLqoRsBNCBS0M4gZal7VwB8+cxVtPp5nqA1dyL0IjO5YF3XL5kfSJPKP8FSpUiEsjJTy0sLcsi0AaEcNaejcoyB/dbinn7pVjUBiRqCAjcnuqFEAVA38qcu30HT4bKPN6HJuQiDJc8/h8+4voVqx3GDCGRmJiIxEYMqUePRIiZKYx0TkxtWxlDKgu7Gs5OXhxp7qpjUCiReB/AAMx6+pGvjTV26j6bDvIZ1fLPHOi1tGnj51CnzapT5K5s0s3f6OHTtQvnx5aT27ApMeMScCz+K1eAEC2sB7wSTpLiZ6BPIB4PaoITFl4IfPVkkhaqhfupA1CJTJlxmD29ZC7kzB0hVOnDgRoaGh0np2hV228/dKNke7GNUKtJ5rEdAG3rV469Y0AioI5AFwHICh+9WMgW82fDaYOlaL5yLQuFIh9H6lMtIqxMC/8cYbmDlzpsrguKe/wOYL8qqKstZxDwKGHhju6ZpuVSOgEbAjkBvAAQApjCDCOPikSZMaKfqvMtyi1wZeGjaXK3SoVxpd6pdDQHJf6bZr166NNWvWSOvZYt+jbUrDAIxWUdY67kFAG3j34K5b1QjIIJANAHN75jWidPPmTQQHy2/fagNvBF33l+nRsALa1ysD32TyL3HFihXDwYOGOJOeHChJbloCWOZ+BHQPjCKgDbxRpHQ5jYD7EMgAYA6Amka6sHPnTpQpU8ZI0f+s4JsPn41YvUUvjZ2rFPjAfqtZVbxWuySSSIbIRUdHI1++fDh3juHs0nIfACmTdYicNHTuU9AG3n3Y65Y1AkYRCALwGYA3jCj88MMPaN26tZGi/ypz5spttBjxA2JilUKopNvTCvIIBPr7of+r1dGwIqkR5OTYsWOoUaMGrl69Kqf4d+lwAAzXvKSirHXcg4A28O7BXbeqEZBBgGfvAwEwL7xD+fDDDzFkyBCH5Z4scP76XXT8dAGu39OJwqTBc5FCnszBGPBqdZQvmF26xQULFqBLly4iGZGC3APAnaQHCrpaxU0IaAPvJuB1sxoBCQR87Bm8DOWEf/3115U8pa/cCkPfyctx9Px1ia7poq5EoGLB7HivdQ3kzMhNHTkZOnQoxo4di8hIHqdLy3YAFaS1tIJbEdAG3q3w68Y1AoYQ4H36CoCFRkqTyGTbtm1Giv6rzM17ERg+czU2HDwjrasVXINAnTJ5Maj18whK6S/d4Jtvvonp06cjJkYpjH2UPdGMdIuX4p8AABzzSURBVLtawX0IaAPvPux1yxoBowjwPm0MYLERhTRp0uD27dtGiv6rzL2IKHy+cDMWbTKcuE66Da1gDoGXKxYUBj7Aj5s6ctK8eXMsXrxYlaaWFLW/yLWoS7sbAW3g3T0Dun2NgGMEeJ82AvCT46J/l/hLwRM+MjoGM1fsweRl8qt/o/3S5dQR4EXQrFpRvNeqBpJKZpEjN0KDBg2wcuVK1Q7Qq88wXbJqI1rPWgS0gbcWT12bRsAZCPA+fRnAz0YrVzHwsY8eYdnWY/hg5iqjzehyLkTA388HHeqWwZsvlZNu9cKFC2jRogW2bt0qrcv3RVsUR2oASinoVBrUOtYgoA28NTjqWjQCzkaABt5wsnYVA88BrN5zEu98rXdinT2ZKvVnCk6Jfs2roXZpQ3xH/2pi7dq16N69OxgqpyDMg8AVvOYwVgDPnSrawLsTfd22RsA4Ai/aDXwyIyqqBn7t3lN4++tflLb4jfRLl1FHoEC2dBjdqR5CMsuzFE6ePBn0or9x44ZKB6ba4t/fVFHUOu5FQBt49+KvW9cIGEWAWbyYrJ289A7FjIHnCl4nnHEIscsLFM+dSeSBD1ZIMjNixAiMGTMG9++TkE5a2gGYJa2lFdyOgDbwbp8C3QGNgCEECgGYbOOkr2GkdFRUFPz8/IwU/VeZtftO4Z2vtIGXBs4FCqXzZsHEXo3As3hZeffddzF+/HjQ2U5BSFG7RUFPq7gZAW3g3TwBunmNgEEEMgP4GABXUw7lzz//FLzjsqINvCxirimf5LnnUL1YLozr/hL4u4zwZa9Xr16YNm2ajFpcWTrWFbMRLZ1VUdY67kVA7kpxb1916xqBxIxAgC1l5yCjZCM///wzGjZsKI3XxoNnMWDar7gfpUSGIt2eVjCGgJ9PUrxRpxR6NOJJjZycPn0aoaGh+OUXJefJ9XaSJXliBblu6tJOQEAbeCeAqqvUCDgBAeYGfde+indY/ejRozFwIOnr5WT/qSsYNnMVTl3Rz3M55JxbOtDfFyM71EGN4iHSDa1fv16s4A8cOCCtC+Aj+0eJ31alQa1jHQLawFuHpa5JI+BMBJIAeBvAp0YaadasGZhcRFbOXr2DT+aux6bDSilFZZvT5Q0iQGraGf2bI0eGNAY1/r/Y/PnzhYFXzCLXCcBMW6IjpcN76c5qBUsR0AbeUjh1ZRoBpyHAe5UGfqyRFgoUKICjR48aKfqvMnfCozBhyRYs+OOgtK5WcB4CaVMFYOHQNkijwEH/3XffCQOv4EEfC4DnPL/pGHjnza0za9YG3pno6ro1AtYi0AvAOAAOY+Hz58+vRGpCNrtpv+7E5KWartbaqTNXW/b0qbF42GtIJklRy3DJCRMmoG/fvioc9NzTfw3AfnO919ruQkAbeHchr9vVCMgj0BzAeABZHKmqGnjW+93vu/DF4s2atswRyC78vknlwhjWrrZ0i2FhYRg1ahQ+/pgBGNLyrd2x86q0plbwCAS0gfeIadCd0AgYQqAsgAlG8nKbMfDTf9+F8T9thkK+GkOD0IXkERjXrQFqlcwjrXjq1CmxPa/oQT8EwP8AaAc7aeQ9Q0EbeM+YB90LjYARBNLZyW64kn+mMAb+0KFD8PGRJ0WZvmI3xnMFry28I5hd9v3SD19HdgUHux07dqB169Y4efKkbF8Z/97bxpw4Q5+/y0LnOeW1gfecudA90Qg4QoBn718D6OioYI4cObBixQrQ2U5W5qzbj88XbUJUtHaclsXOWeU3f94VAcl9patniNzLL7+M8PBwWd1dAEIBKKWfk21Ml3cOAtrAOwdXXatGwBkIMFSOBr6zo8rTpk2LL774Am3atHFU9D/f/3HgND6Z9wfOX78rrasVrEegQNZ0mDuktXTF3IHh1jwNvILMs6/g9fm7AnieoqINvKfMhO6HRsAxArxfyUfPzF7PvHfJQ9+tWzd8/vnnjmt9osTpK7fw0ex12Hn8orSuVrAegX4tqqFt7ZLSFUdERGDU6NH4aORIWd1HACbZiZUeyCrr8p6DgDbwnjMXuicaASMIfACgn43wJoWjwo0aNcKSJUscFfvP91HRMRg2czV+23lcWlcrWI/Aj4NaoVCO9NIV37x5E82bN8e6detkda/Yvee/k1XU5T0LAW3gPWs+dG80Ao4QaABgIoBcjgqqGnjWO2zGKizZckSHyjkC2cnfp0jug6Uj2iE4kKkI5OTy5csoXbo0rlyhvZYSnr8zqdFhKS1d2OMQ0Abe46ZEd0gj8EwEMgFYCoAhc88UUwZ+5mos2XJYh8o5AtnJ39cqGYLRnerBz8cht9F/enLkyBEUL15cNkXsXwBW2shtmtp2ipSSxzsZEl29BALawEuApYtqBDwAAT7p1wKo6qgv9erVE3z0KVOmdFT0P9+PW7gRc9buR/RDspVqcRcCw16vjYaVCiFpEvlHNRnsGAMvKRH2fAfDdXicJHIeWFz+qvHAQeguaQQSEQK8Z5nCs5qjMXP19tVXX6FSJfkUoyt2Hcen8/7A9bt6EecIZ2d9z7Tv095uitL5sj7bo/IpHahatSo2bdok2z16zZN/foesoi7veQhoA+95c6J7pBFwhAApRF93xEmfOnVqDB8+HH369HFU33++v3o7HL0mLMWfF29I62oFaxAomy8rPmz/ArKkTSVd4aNHj8BQyTt37sjqngJAl30S3WjxcgS0gffyCdTdT5QI1Acwx5Z4xuGTv1+/fvjkk0+kQeJBbPtP5mOfLT+8FvcgENq4El6rXRLJfeXP35n7nTs4CsJkRu8o6GkVD0RAG3gPnBTdJY2AAwQYIseVVgZHSKkaeNb75meLsePYBe1J7whkJ3wf6O+HwW1rok6ZvEjCvXpJ6d69uzieUZBSAPYq6GkVD0RA/srxwEHoLmkEEhkCZLS7ZCO9yeho3D179sTYsWORPHlyR0X/8/2EJZsxY8UexMSS90SLKxGoUjgH+r9aHTkzBik1GxISgtOnT8vqngFQWCeXkYXNc8trA++5c6N7phF4FgKrAdRyBFHNmjXx5ZdfokiRIo6K/uf789fvoNVHc3E/KlpaVyuoI8AVO7fmQxtXhK9CeByTDJUvXx5kspOUgQDGSOro4h6MgDbwHjw5umsagWcgQMKb5Y4QCggIwNSpU5U46cllXqvfN7gdrrOFOsLZyu9zZUiDfi2roUpRh1xG8Tb77rvvYvz48bLx76yrIIBjVo5F1+VeBLSBdy/+unWNgCoCzANraGk9bdo0dOrUSamdId+txNJtR5V0tZIaAtWK5cLHneohhUL2OLbI8LjNm6XT/f4B4AWj15TayLSWqxHQBt7ViOv2NALWIMBzeIYyOeQwHTduHEJDQ5Vyw4dHRuP5d6bg4SP61WtxNgKBAX4IbVgRr9ZU8oDHli1b0LZtW9nzd04uwy5/BKAdLpw9yS6sXxt4F4Ktm9IIWIzAl/ac3c+s9vnnnwdX8Xny5FFqvuPYhdh9gj59WpyNQJGcGTAhtBGCAv2VmhowYIDwuYiMlDpWOQ+ARz4HlRrVSh6LgDbwHjs1umMaAYcI8Mz0iKNSyZIlw4YNG5QY7Vj3nhOX0PF/i8AzeS3OQ4DOdUwN26pmCShExomkMp07dxY54CXn6gsbLS2zFEqz4jgPDV2zFQhoA28FiroOjYB7EAgGwNWXw236H374AS1btkTSpEmle3ov4gF6jF+Cg2fJYqrFWQiEZArG9H7NkSqFn1IT8+bNAx3szp/nJWFYeMzT1RYeNw+ATjxgGDbvKKgNvHfMk+6lRiA+BBjcztVXF0fwlChRAuvXrwfpa2Ul9tFfIDf9oG9+16Q3suBJlJ8Y2ghViuaU0Pj/olFRUfjwww8Fa2FsrJSd/sW2cu8L4LhSw1rJoxHQBt6jp0d3TiPwTAR4/9awZ5d7dsHnnsPVq1eRPn16JUiPnb+Od6f8ivPX7yrpa6VnI/BCyRB88mYDJFHIGseat27diq5du2L//v0yUD8EMArAR9p7XgY27ymrDbz3zJXuqUYgPgSYGGQFAIeWm/SlkyZNUkIx9tEjzF9/EJ/M24BH+ixeCcOnKaX098V37zZHvqxplerlin3GjBno0qULmGRGQpgxrgeAnRI6uqgXIaANvBdNlu6qRiAeBJhwZpCNXnSAEXTCw8ORIgWp7OVl57ELGD1nPU5eviWvrDXiRcDfzwe9m1RCs6pF4esj7x/BSs+ePStC4yRTw3L1PtMehSHlcq+n0nsQ0Abee+ZK91Qj8DQEXgPwjW271dcRRIyJf+uttxwVi/f7h7GPMHnpNsxatQfRD6XOeZXaS+hKSZM8h9ol86BP0yrIms5hYsB44eCKff78+Xj99dcRExMjA9kF5hMC8KuMki7rXQhoA+9d86V7qxGID4Fyti36iTbqWv58pmTNmhUnT52Cn6/Dd4F46zl05io+/H4Njl3QeeIdYe3o+8I50uPdltVRMk9mpYxxrP/BgweoVq0aduzgbrth4T7+UgB8MQw3rKULeh0C2sB73ZTpDmsE/oMAWVGY9D3UETb+/v745NNPEdqzp6Oi8a8Y//oLE37agtlr9uFBDHd5taggkCkoEO80r4rnS4bAJylJCdVkypQp6NGjh6zn/APbufvLNlbbVWqtai1vQUAbeG+ZKd1PjcCzERgMgJ9nBlE/99xzILPdqlWrkCSJmmG5Ex6J18bMxwXtUa90Tfr7+uCtZlXQpEph+CZTO3dnw2Sry5kzJ65fvy7bj99s/EWNtee8LGzeV14beO+bM91jjUB8CBQC8C2Aio7gyZAhA0aPHo2OHTs6KvrU7zfsO43ek5cp6ydmxV5NKqJDvbLK2/Jx2DEq4quvvlKBkteKziCkgpyX6WgD72UTprurEXgKAryX5wNoCsDhfd2mTRtwe1fVo5596DZ+MbYduaDJbwxekkwk06FuKbSvW1Y53j2uKZ65N2zYUHAbSAqvkVdt1LSad1gSOG8s7vBB4I2D0n3WCCRSBN6z+V3xE+ho/Dly5MBnn3+Opq+84qjoU78Pi3iADmMX4MQlHTbnCMQsaQPR7oVSaFqtqKltebZz7do1EfO+fPly2bP3y/akMnsd9Vd/nzAQ0AY+YcyjHoVGgAhkAbABgKG0cdyiHzVqFDJmzKiEHvlu1u07hZGz1+JmWIRSHQldiQlkSGDTrk4p1CqZB4x7NyP0mp88eTI++ugj3LghFclAz3my1o0GoCfLzCR4ka428F40WbqrGgEHCPB+XgmgthGk0qVLh++//x5169YFne9UJOJBDGau3I1vftuFGB0b/y8I6UBXuUgOtK1VEiVCMisT2Txe6R9//IHQ0FBZSlpWscXOWrdPb8+rXOneqaN2V3vnWHWvNQKJAYHnAawxcg5PMGjcZ86cqbyKZx0370Xgy582Y8mWo7JpShPsfHDl3vWl8mhYqSAYEqfKMf84QGSse/vtt7FkyRLZrXky1Q2xcyVEJVjQ9cD+g4A28Pqi0AgkLAQYdxUNwFAMHNPHMld85cqVTaFw8cY9fPTDWmw5fC7Re28VyZkRg197HnkypzV93h43KcwW979x4zB82DBZxjpWQVKbXmS1NTXJWtnrENAG3uumTHdYI+AQgXEADPPRpkqVSnhjJ0/O7LPqcvryLQyZvhKHzl1DYstHkyxpEgSn9Eer54vj1ZrFkSK5GlNgfOj/9ddf+OWXX9CoUSPZZDKs7pyNre5de4SF+uRqTa9EQBt4r5w23WmNwDMRoKW+44j05vEahg4dimHDhimfxcfVdfziDQyfuQaHzl5NFCt58slnS5caZfNnReuaJRCSJdh0fPvj80Ljvm3bNnGUEhYWJnvZcyeHOQr4skf2Oi2JDAFt4BPZhOvhJhoE5tjjnQ0NmE52v/32mzAkZuXMldv434KN2Hz4LGIfJcxwazrQ0Tu+UPb0eKlCARTNnQk+JljpnoY5nerat2+PU6dOqUzLdgAt9da8CnQJQ0cb+IQxj3oUGoEnEahg86HbbPQsnsply5XDvLlzkTt3btNoXr55D9NX7MGvO47hXkTCWTymCvBDsVwZUTp/VpQvkA0Fs6d3imHnBNC49+vXTySSkczzTnU61pHQhufvWhIpAtrAJ9KJ18NO8AhksG/PMqmIIeEZfLdu3TBmzBj4Kmabe7yhO+FRWLX7OH5Ysw+nrtw21AdPLZQ+dQrULhmCsgWyIV/WdMicNtAyB7r4xrxx40a8//772LJli4pTHavkufsXAKRyyHoq/rpfaghoA6+Gm9bSCHg6AvSi5wruB5mOBgcHY+TIkSDPuRUSHRMLnstP+2Un/jh0Bswp7y2S3DcpKhXKgRdK5UWJPJmRJmVy+Pv5gufuzpTt27ejT58+2LlzJx4+VMrYx5wEfQFIH9o7c1y6btcj4Nwr1fXj0S1qBDQC/49AYXvsM2PjDUuRIkUEWxrzjFspq/ecxIjZa8CVvacKz9aL586IlysWQvXiuRAUGOCY2N/CwRw4cEBwzDPmXVFIZMMXu2OK+lotASGgDXwCmkw9FI3AEwjw/mb8M3PFPzON7JPINW3aFGPHjkWuXLlMe9Y/Xnf0w1gs+uMQlmw5jMs3wxAWGY3YR65f1SdNkgQBfj7w90uGAD9flMidCdWK5UTxPJmRPnVKKBL7KV+AERER2LRpE1q1aoVbt5S5/ck1HwpgiY3YJla5M1oxwSCgDXyCmUo9EI1AvAgUt6/iq8ri07dvXwwfPhyMk7da7oZHYcuRc9h48AzOXL2Dy7fCcCss0mlMeH4+SZE6RXIEpfQXPzMFpUTRXJlQKEd6EdpmZdy6LFbnz5/H7NmzMXjwYFmGusebIjE9eeaZP1ZzzctOQgItrw18Ap1YPSyNwGMI0OFqMIDUsqgMGDAAI0aMgI+PuSQpT2v3QcxDnL92F4fPXsPxSzdx9VYYrt0Nx9Xb9wUFLlf8MsIHGtOyBgcGICjwb4PO3zMGpUS2dKmQPX0a4SAXHOhv6c6ETB/jyvJ8nefsPA6ZP38+IiPp+K4kPGufBGCsbQUvlYFGqTWt5DUIaAPvNVOlO6oRUEYgK4DFAMrJ1pAkSRK88847InuZs4z8PwYv9hFuhUXg1r0I3AyLFGf1d+///TMy+iGiomMQ8/CRfUv/L3CbnbHnfj7cZvdBSn9fpPT3A0PZuErnz1Qpkovf/X2Tud2gP4793bt3MW/ePEydOhX79u1DdDQ5aZSE5xsz7S9wF5Vq0EoJFgFt4BPs1OqBaQT+hUAjALNtq7yUsrgEBASga9eu+Pjjjy0Jn5Npn173XMXHxv5t2B89+usfhjyekzOpC19CSBXrk/Tvn6qZ8WT6ZaYst+Q/+OADkc/9+vXrZo8lfgXQzU5Ja6ZbWjcBIqANfAKcVD0kjUA8CDAJDYlvyqug4+/vj549e4rterOc9SrtJxSdr7/+WsS3cwWvGAL3OBRMDdyaCf0SCj56HNYioA28tXjq2jQCnowAV+9XAKRQ6SRXyr169RIGirnkPX2lrDJGq3XIJc+z9V27dmPQoPewefNmFVa6J7tFxwSmBG4P4JLVfdb1JRwEtIFPOHOpR6IRMIIAjcIUAMpecx06dBDn8oyX1/J0BO7cuYODBw/i+++/F+ftt29bwuZHEoHVNiraATae+cNAosjpoy8zRQS0gVcETqtpBLwUAa7epwNobqb/NWrUwHvvvYfatWsjWbJkZqpKcLpMvbtnzx6sXLkSixYtwpkzZ6wa431byoBlAD4GQEKbhJnJxyq0dD0uJWnScGsENALuR4Av9WS44yq+spnuMClNx44dRbazbNmymanK63W5FU/nuTVr1mDt2rVYv369GTa6+PDgyv07O788Weq0cff6q8b5A9AreOdjrFvQCHgaAr52OtMxADKb6VyKFCnw4osvIjQ0VFDbJk1KX77EI8zyxm34BQsWYMOGDTh27BiuXbtmxTn74yDSmI+0k9joM/fEc3mZHqk28KYh1BVoBLwSgQDbKvADAL1tW77JzYyAW/QZMmTAG2+8Ic7m06ZNa6Y6r9AlteyyZcswZ84cQVZz8+ZN8G9OEPLWkn6WaV/DnVC/rjIBI6ANfAKeXD00jYADBLiSnw+gIWDNcV327NkxavRotG3TJsF52cfGxuLwkSOYNnWqcJwzwRlv9MLkOXsnALv1lrxRyHS5xxHQBl5fDxqBxI1AFgALAVS0EoZKlSqJlKfctueK3s9PKteNlV1RqismJgbh4eEICwvDxYsXsWTJEixduhSHD9Nx3anC7Xg605HAZpjtKOWINu5OxTtBV64NfIKeXj04jYAhBIoBmGHLQlbKUGmDhXx9fVGuXDm0bNkSZcuWRb58+ZA+fXqD2q4vxjC2K1euiM/x48exbds2Ebd+9OhRV3WGxp2N/Qhgqp2zwFVt63YSIALawCfASdVD0ggoIECe+gmqTHfPao+EODTuDK0rVaoUihYtisKFC7v1rJ7OcWSTYwgbc6+fPn0aJ0+exJEjR8SHRp6e8S4Uesn/YnN6/BrAWgAxLmxbN5VAEdAGPoFOrB6WRkABgRq2s/jhNgPDn04Ret3nzZsXefLkQf78+VG8eHGUKFFC/I0rfmfJgwcPcO7cOZw4cUIY8lOnTomwNm6/X7p0Sfy0gDpWtfs8ayc3wSLNKa8KodaLDwFt4PV1oRHQCMQhQMaaCgBGAKjpbFjIaR8cHIygoCCRc55x9VzZh4SEIEeOHOJD73yj5/c04nR84+r76rVrOHP6tFiZ05jzb1yx80w97mMig5tV0JBDngmAZtmIhw4C4Cpei0bAMgS0gbcMSl2RRiBBIJDEfhY/HkAVV46IMfQMueOHv/MjMsUlSya289OkSSOMfRxzHrfZ4xzhaLTJ+U5Pd/6dH67I+e+4jyvH4qAtcslvs4cpMgEQE8G79DzAg7DQXXEiAtrAOxFcXbVGwIsRYA75bwDUMsNb78Xjt7rrNOBcoZOohvwDc2053B9a3YiuTyPwOALawOvrQSOgEXgaAiTD4UqecfIZNUxKCDwCwCwzJwDMsb80hSnVpJU0ApIIaAMvCZgurhFIZAjwGdERQBcA9LTnFr4WYwhcALDTdtTBvO0/2zC8qLfijQGnS1mDgDbw1uCoa9EIJGQE/q+9s9eFIArD8NuoJIQoRND5i4SEzh2oNOIaJCqFu3AV7kKiUYhCNBSCIDTip6Gjcp7sJxSK2d2x8/dOcrKb3dmZM8+Z7Jsz5/veD4P55ZSXvSlpLRU8Ga7zxXZ5bayvn0s6SoGKh5KOLexdEvXPOyZgge8YnX9oAo0iwH/FaAoOWw3/esxxPJv/uQXeQtQp53oi6TZxwkfemwkURsACXxh6n9gEKkmAZHWEfitZqu7k5WFfSRKtTuNdS8DcviQKv7Pe/lnh63HXa0TAAl+jwfSlmECPCUxK2k053OsNE3oi4fHv30sBiKdeV+/xXefTZSZggc+MyjuagAn8QaBP0oqk7bC5pVbs/1nS9XYIsIul8AtlWp8kHUQRGALn+NybCZSagAW+1MPjzplAZQhQU56KdBspYnxJ0nRKsRuqTO9bHSVXnUfsz9FIbWOGjinNmf3hKzaa7m4+NaDN0QRMwAR+EZgPg5zF5K++kKqjzUgaKCEhctQJhHuIdhf56leSLiU92oymhKPmLmUm4Bl8ZlTe0QRMoA0C/LcMJq/1qRSENhf2twg+0fcjbRwnz10RdHLRbyQh4pRmvQ93OcSctXVXccuTuI9VKAELfKH4fXITaAQB8uiZwfPInhx6ZvQ8xp+NRrAehW7y3BBqZuZEtl9HtPuFpFdJOMm9R/vI86Q+lgmUiYAFvkyj4b6YQDMIIPgE5yHqvCL+iP1EtHFJY/F5vyQsc2nsj3Dj6U7j/UsEwLFuTiAcM3TWznnczvcYz+D5/t1c1KUZ95ivMhH4AgQOCDGErQghAAAAAElFTkSuQmCC;" vertex="1" parent="229">
                    <mxGeometry x="31.84" width="68.33" height="70.5" as="geometry"/>
                </mxCell>
                <mxCell id="227" value="&lt;font color=&quot;#000000&quot;&gt;PostgreSQL&lt;/font&gt;" style="text;html=1;strokeColor=none;fillColor=none;align=center;verticalAlign=middle;whiteSpace=wrap;rounded=0;" vertex="1" parent="229">
                    <mxGeometry y="70.5" width="132" height="30" as="geometry"/>
                </mxCell>
                <mxCell id="230" value="Lambda" style="text;html=1;strokeColor=none;fillColor=none;align=center;verticalAlign=middle;whiteSpace=wrap;rounded=0;fontColor=#000000;" vertex="1" parent="1">
                    <mxGeometry x="168.5" y="320.5" width="132" height="30" as="geometry"/>
                </mxCell>
                <mxCell id="233" value="" style="outlineConnect=0;dashed=0;verticalLabelPosition=bottom;verticalAlign=top;align=center;html=1;shape=mxgraph.aws3.cloud_2;fillColor=#F58534;gradientColor=none;" vertex="1" parent="1">
                    <mxGeometry x="11" y="161" width="75" height="75" as="geometry"/>
                </mxCell>
                <mxCell id="238" value="Data Layer" style="text;html=1;strokeColor=none;fillColor=none;align=center;verticalAlign=middle;whiteSpace=wrap;rounded=0;fontColor=#000000;" vertex="1" parent="1">
                    <mxGeometry x="24" y="580" width="132" height="30" as="geometry"/>
                </mxCell>
                <mxCell id="239" value="Application Layer" style="text;html=1;strokeColor=none;fillColor=none;align=center;verticalAlign=middle;whiteSpace=wrap;rounded=0;fontColor=#000000;" vertex="1" parent="1">
                    <mxGeometry x="330" y="580" width="132" height="30" as="geometry"/>
                </mxCell>
                <mxCell id="240" value="Persentation Layer" style="text;html=1;strokeColor=none;fillColor=none;align=center;verticalAlign=middle;whiteSpace=wrap;rounded=0;fontColor=#000000;" vertex="1" parent="1">
                    <mxGeometry x="645" y="580" width="132" height="30" as="geometry"/>
                </mxCell>
                <mxCell id="242" value="Web Crawler" style="text;html=1;strokeColor=none;fillColor=none;align=center;verticalAlign=middle;whiteSpace=wrap;rounded=0;fontColor=#000000;" vertex="1" parent="1">
                    <mxGeometry x="28.159999999999997" y="521" width="132" height="30" as="geometry"/>
                </mxCell>
                <mxCell id="252" value="" style="shape=image;verticalLabelPosition=bottom;labelBackgroundColor=default;verticalAlign=top;aspect=fixed;imageAspect=0;image=data:image/png,iVBORw0KGgoAAAANSUhEUgAAAWgAAAFoCAQAAADQ7KleAAAABGdBTUEAALGPC/xhBQAAACBjSFJNAAB6JgAAgIQAAPoAAACA6AAAdTAAAOpgAAA6mAAAF3CculE8AAAAAmJLR0QA/4ePzL8AAAAJcEhZcwAACxIAAAsSAdLdfvwAAAAHdElNRQfnAwELFib6SUPkAAAk30lEQVR42u2dB1hTVxvH3wAhECSEAAIiQxkiQxEcoCi4JyoKuGqdqLhnHdWCm6p1Va1i3Vq12lZbqx3WUauiVatoP+poEa2KVXFUZSic70ar5V4SSGKgQP6/97l9+sgdJ/f+cvLec885lwgAAAAAAAAAAAAAAAAAAAAAAAAAAAAAAAAAAAAAAAAAAAAAAAAAAAAAAAAAAAAAAAAAAAAAAAAAAAAAAAAAAAAAAAAAAAAAAAAAAAAAAAAAAAAAAAAAAAAAAAAAAAAAOpBJTLTYcVTkoKH94xCIomPQ0FGRix2ZKLOs6nyAGPXv6ndBnmPJEIjiQ57jd6F/V0YHy6bQHWl4uPMtzmoEQuNwuTU8vGNZ1DmVmGnjrUa4RAitwog13spMU8ue0PNolaJGCi4QQtuokZKkmFf2hO5HIxRVITRC66iaMkLRr+wJ3R9CI3QWuj+ERkDoUhbaiDk8qJruhEAUCOdrttnlVGgz9tbCaVVGuCAQr2KY80bPTsnlVGhz1jdegsenoAA5XD0XdQhCgwpCNoQGEBpCA415cfduxjRb04xbV5P1TJiEQWhQ2irPpX2W0TF11vh91fDDWe2Y8S9q1swiZjwpsOGc2nv813SLSbZcSUzNHolWOPSfUntrzc87zE+qz+gahAalxV5KsYzeKM8xelGlVn8wdiAT5anRdG4vnwyTF5W5TW735dclW1TucT597NbkkEWeiFtTwgLTZjTsJ1AfQoMSw5uGxBRsE/ZPXeW0UMV6K2iLQ51TotfrOf49vk0vFeud55bW8eav1zNmwduZ5AyEBqVFq2UmBa6X9dOoxl1UrNWcYlrIs/5dz5S9NV/V3mbSMTO/AwUNqHZ1tnMihAalRdgK4wLXS57VIay9irWcqGkHs5x/1xOzriqFfod2mXnzZHVJn+wyDUKD0mLYGFmB6+V+9cMaH6hYayol1HXL/Hc9q6wu7RqpWO8XLsVut1r8ej0Ra/TjdauzEBqUDltpj3OL068EtM7vPpuJVA2GSubu8Losk+W9XE/CWnz3hWyZyj2Op/dDAm6+GuTh9mRCbw+6AKFB6fCMW1b6ttrs/lfVLLeLvWYdkG9Vs+Yi2izvNsvjIrfeX603f+IrVtNsd1c5SLpj+GHX+06Pfc6MjWOmpwVrQGhQomygC2br/ec3WeCUaXS1iPXuUI7RSqcPmqzwP2X2YRHrKS/8AcuVdec3XGXLRM8L/R1CgwoFhAYQGkIDCF0CQpuxEQtZldsuCMSryHBmnt2Ty+0QLL8HjdIbIhAFIvRa9WwMkkVgkCyERkDoN6AtRSrsIDRC67BLiVS0LXtC+1GgwhJCI7QOy5RAhX/ZE7ojdVNUhtAIrcM+pYeic9kTegCNRA6N0CmHHqkYUF5uCkUIhCDKbSuHMfP+X40dXjsRiH/D9wuPO+X20Xe/BFI+X0EgXoWISaMOoy8HQF8OCA0gNIQGEBpCAwgNIDSEBhAaQgMIDaEBhIbQAEIreU55xn/J/1Agym+kKe5ZKrtpGLzQZ+mBZGDzBkkNfwlJQZTjOF/vpzZLk8KZ6JYhC32KmPGo+Kp/45X3FSFMWa2MmVFETwxX6P40Lsj1FlSoKCFiwSmfVdloqEI/5pZO0yQQoQKFTc74zjGGKnQG95Xu8SnSjYoUMjY4roWhCv2IWzpPNoMGFSgUWSPbdzXcHHosLQypfhMaVJwcuv7Pn1Vea7hC7+fOwbCx7n8bQ4YK0crh+/uklkT5htwOnUZ5pjPbtUwKPlznUCCi/MbhkP2tZi0IYHQDTwrziRnfNbuMKMdxxeyRGZ4UAvTlgNAAQkNoAKEhNIDQEBpAaAChITSA0BAaQGgIDSA0hAYQGkBoCA0gNIQGELqkhFauONelz9B6033ifRHlNnzimyQM7rHXYZVhC32FW8a09DtvkSdmJohyHWKmeB78TZxba2KGK/Qy+sQn8JIIoz0qSJiwkB2nLTYbqtDZVI26xFWCCBUobO8PCTHYaQyuExNFrsc0BhXqNcds4OBmhir0RWJG0TshdEWKSqxHXCMIjag4QveMC4XQCAhdQYWW5wanNkxBlJcITpXnQugihHa7vtb/vvyaAlEe4r58rb/bdQhdhNCu6e+6vIcnxOWE9+hdF9d0CF2k0FMgdDkSegqEhtAQGkIDCA2hAYSG0ABCQ2gIDaEhNISG0ABCQ2gAoSE0gNAQGkJDaAgNoSE0gNAQGkDo/0Loa9Ndift3RHkIoumurtcgdBFCy5547K22E1FewmOv7AmELkJo5fuiEeUpMKawGKERGCQLoRFlSGiDnZfjTy6/6LYNQlesmZP6xIUZqtC53NJ5pBQaVKCwyZ0S3dNQhSYaT7M9fC9j9tGKEkbM78dlihmGK/RlbrXZfWr+bpaPRt3yH5VYrbODg5XSGqzQRLe4PHqyR/uRXbZ1/qzzTkS5jc/afdwpdo07FTnduYG8Y+WfXytE+Y4XmWNx4KVBoEIBoQGEhtAAQkNoAKEhNIDQAEJDaAChITSA0BAaQGgIDSA0gNAQGkBoCA0gdCkK/TOlmi8Nmth12H8ekzvN8bhpch7WQWhdhWbUhdZ6tVzvmmmbr8j7r8P2udu1yPmr5Zi5CULrKPT7tEnWbJ9ZWRq1nNdmMRPvg3kQWnuhGYVSZCer7LI1Ls7p7vSGQ2EehNZe6L+4pcsKkzI3s0SvIY1hHoTWXuhLxIxiytxEM2YsLM4H5kHoijJzEoSG0BAaQGjVQhszSyYr1bDkjgmhIXQJCe2UOXDK4CGD4kothgyf4p5ZFoV+zi1rHGZEjItaHpRu/iuELp9Cu6ZPdUkoxVLvpK0uPullT2ju3Jj26u59xv6ZTX61zM7rv/BYVOplYDSZfrZa4Dfef3cVJroDocvDO1a20xaXmmVO6KvcMqZ71QevyiRlzbYmW2wv1TKcIyYa3y7kh2r3nO77Xug0eq1FIoSG0Lqxi05ZBH5fcBJL++x3Or1dqrWzM03t6J7xqgyy3LazmMkeCA2hdWEIxTo78kplymrFuZRiCXZTqmXjQwWvjdOdoYH9IDSE1oWmFO4iT+dPVFspzqwUS7CeNtXl3yybs+6j5RAaQutCd4pxsRMI3XwJ0d1SK8F8WhDmnFWwBBLWOcEUQkNoXZhDM1yqCYRut5MZ7S+1EkygiWEOWfzz0iNBAqEhtC4cpUNVa/3Bf9ldzV3M5OdSK0F76hAm5wktZUPfNYPQEFoXUummxHUv/7L7/3bE8XiplcCOWkVJnvFSjpxG7apAaAitC5u5MxP2Kf/M2N8cWSOu1EpgSu3iJfzXAWX1DnsLQkNoXcjglvDJYv5Lo5/3iAorpeMf4K5MwHr+y5xcMlfWXQ6hIbRuhNPb0Za8n3wT1mJJcW8w0RcbaYet1y987WqcX2OzEEJDaN2YTvF+Lnf5Fz4g5ZD97lI5+kia1dLxCf+mNOhTZnIVQkNo3fiRLsuDjvMvvF3WmA4xpXDs77ml7WT+0GUJ6zlHH/uG0AYq9C1uaT6Tn0WbsPabmfGPpSB0sqLuSb501o9jW3SF0BBadyKoTxPFI/6ld7k2zXdUiR+5KY2LsHvCP7LPbxsdN0BoCK07q2iX3PcYCX74W81jot9K9LjcvaBFuy+Nhb8N65hRBoSG0LqjbM/oMUMqGPFY/fby8DEletSBNLeDy2NB9p47qVuUXlpYILTBCk00hWb5uKbzL76YtfzsT9l+DeVkRtzHMeP+q/Ext9FFy/CvjAVfo6DTe2036uUzQWgDFvoSV5ywhaYCuWxzBw9XJgbquEkPxUscB4cPGB8U77mow4EOBzwX1Y2PHT88PMnxqbjogVRZ3DJmuG2ucOqdQQlEjyE0hH5TxtL8EJebwokW3NPiQ4hyC62t9HCP84g+TbdW/83miTRf/PL129x/xUyab/vE87c224bFfGHHRHlqj7c6MOCq8Hg+l1d7LNDTJ4LQBi30Rq5Ard8XTmZpzEJPL3OdxluTS3pFSc5REwJ+VeSpn+nEmMmz650bPOErp/oqMuK59IW88efiQlOj9eTq578hNITWB3Moyds7VSimKav/6Tr7f8/TNDom692n9gWLPE2m0rHKr3NiaHSa9ATvSEfpocXbKysV2kNg6g73DXr7PBDawIVW1qNDhlZ+LtTMnIV/utx+Cve/f3PLHO+2u621mMVVxByeRm5Y6zbmdT39IXctWg2zK7QP22f9BhA9gtAQWl8cpHRZ+CbTwlOW5Qfv3l67LTHxuI7+qSY6THlW7+SC5i+TiYl0VdxskOKBcB0xa/XlRavv9PhpILTBC030Li31rpsqKqSkhAVfmNPmnYnuD0U6zeJnzDzTurdhRnvouLzPYvmjwmvUur6sgX5bvSE0hKan3DI7yvV2YeGMWLVHDk+LTi6Klt31zpxxn9YIXSd/Xvhvtg9GxzJRNoSG0PpG+SCl/yDnHM1rX1Nm89gttd6RKiudVtY7Ui3V5rGpmjXd/66dJlF165jXbT4zXqbnTwKhIfSrcyUdkWifq4nM0nyvy63mj2iRWPmOpbKKvms5v/KoFq3n17gszdf0CyHJC1l1wGql3j8HhIbQ/3CA7kljEx1yi8uLna93ik9yZ6JrvK1vcNnHWvcu8S7XjTXQ2Zy1/2GZ3ZQS+BQQGkK/5jg9kI6a5fCgqPfDBO+fUI/RQZXbH+FWmVIv5Pvi6mlz1uXYAd/3S2S4F4SG0AU4TMykVzfvDNXPAmU5EasPuBb9EGQi7XIIWygvIhuv9Dx4zReuISU0ehFCQ2gef3Kpw8LWXpcKi2iZ2znxqLT4rHcNnZBGJSrUpC52Wb1WfCYvubmoITSE5sEojhaEeBTqsGTCQvd/Y7Vao33soIvmHRMr5RZu4vO8MWjwLbOSnHAMQkNoHt9Ruqz9PpNCOtf7ZU245q8LnUf7LDpsNS/0XLBtEhNfLNHyQ2gIXYAMcqf+3YQ9LoxZrcPTq798K4um9fxY2uQWcFjY4uF2e3rDMSU69weEhtAF2EdHnUNOC1MFr3vvN9P+Zc4DaHYTz4xCics6Jt4MoSF06eTPRMMmyAs1unk9DPswusd4311yZpyj0X6Y6IDVgtqj+ze+JHwwrrjbtlFDCA2hS6es3zjXu6D6cUqlZ5Uz/M4Eb4yY0rPr8KBRzslV0yRMdF90zeaazUMRM3omumZ+3Hms87Tgvl2ajwxe7Zfsckf23FhF7xDPtQ9MPoDQELrk62c3GjLcushHIkbMNN8qT36vanrAH057vXZ67fQ7zcXOoJ3Vd7h8W+eqc7rtfet8cX5RTwvt7o1o1BVCQ2hduMWdgY9Doqe6T+88YaZv0TNfbKAfZLW+16ajqOj1mMLi+tzx2zracXn0+SJK8oBb5jj0HOg7vVFCQlSK9DiEhtBK1nCH6xZd86Y5lzKY57tf7zl7kYO6+UUZdadRneyyiZV8eGUs85+v9ndiAx2wGh5X83SlZyac/E5ZnRJ/kCZBaAi9jjtY2+jKBdoZzJ/7nRk1ZJ/lMBVSc6uJm6w3ZqUhtJT1nqa8OoW5QPfNEzo02Gvz7N8aX57bITFZ+jGENmyhE7lDNY+2zRAmCYqc4D2z2t8xFc67MZvm1ax+Q7vO+7pH4PGD8s8FJbjL3Xsuq9N6tctjYU8SeW5E4jHpBghtuELHczY2jlZkqG6xcHnU5qOkOgWb4BhJKGIwv5ecEQu9Uv9r1xvWeeI3ENuISZjdY/tM/h5sHw1o3LNAeZ9xy6dVeyf4ZqgeJqBU+oh0NYQ2TKF/537V35lmc6eo8Sa+t3pO+cKpxj/Jxwn627KJQAPrnGHduTrTe2iPjksaHnFLs8uS5plofLtoyixy7TO9zofs6Dh+XOOY/pY5/BvD0BmvsnlGgXRS9na3Omcsiuh2qlT6hAaJB4SucEJf4XSeluhW7NgTy/yAE/1izsjmv0hQFtStlsn/u1/Kripb/3lMklZphduI8AGjQhPDv63+k+fNKpnmj0T5fIUrMVmOLNMt0+m87+Gg9S3fi46aGLjK5qlpJi2lVU7CuT88j30iX8rt/SQ9EY9r3Pwbm+zifgWUSh+XboTQhiX0Je60TEl0zdWsHrXNbvrV+Ib5Yk+KiOUnHKas+UyinwUtEEz0VLLJ4jOv8T6efU15LSLi3HaLJncN80/0X2//tRkzKTj09Vduu45JYkHSMaJJL+5/FtWIXuN0T7ObUU0SDwhdoYQ+x9XOExKdczXPcbmM+l70qg01G3/GryHtHo1q0lvtcTzJK8yM99pM06yqYVXVrh9D73apnMufIiF65v8qD4n3uiLRIiMvPvGA0BVI6HOUJx2TWFWFzvLHTrfEajNUSb53WpX7/H/zPrZHvrYIoT21EnoH7XXyEyQd9dOCT8jy1N9M2t+3uyPSOvGA0BVG6JOUZT4isYoKnW2edHrnvYB2W+wfGWn8NK/j4qJe8aat0E+5pKPZKmOBsqIiauJmR6e0i27rmCbSMvGA0BVE6MN0Xzok0VG1zhPTxZvpd0lsi5ADVhqlI9Y5IyJbF3E0bYUmCqFePWQaTfVonh90uf+gA4oQbqvOLdUpfVK6BkJXXKF/4nQeqHJWjVc6K+tbT9qnGDQ88Ip5sbNnuF9d4bpCr0LPpvm+LhnF/zJ4/tVp5hb3lzNMb1Iq3Uqd0snSTRC6Ygq9j66Z902srErnp50m3hF/+nrN59xP/wb3yLme90yKbP0I/ppJ/tSr0Cl0zTLgx6IfwTg8Dt+wKIQZ33y9lbKVJVKt0j+puD00QKHfLVWhPy1xob+g36W9Eu3U1s7rBOv/RcxkQcOwTY5PRWofu3SIf/kmQ/0JfZRbmi5R3zwnywn6YUrUr5Jtgsx9i5aJh8EJ7XZ9uf//5KcUpRVn5bv9fa6XnNC7KFXaLdGmyGSjMMe4rSZF1zlg9UxlFpsV2T6wyKNqLzRRY+oVW0nNtGDev8aO3mjVRuV22iUeBie0VW5Qat2U0ox6qfw5KvQp9Hd0wzxa5RwYwmRDCKPOtF0RO87rV7NCGbXtvWj/bnoXug+NbGD3sPD0CK63IxfMdGaiTLVbFpV4dEr8XbrbkIX+70N/QjOqQdExdlmaJhtClC8LnO3abVkVwYS5Hr9sL+Yla7oIvZZWu7heFn7t2n81pxEz+l8xJVWfeNjnThpTsIERQpdjoedSpth/l0irZEPIIUqxrS8YRxi6i4l/1rvQcyjZzP8Q/zaw7rZcNc1vmiYeItZg/3XJhxC6IghdgxqZWR5SlWz8Jd6u4T7G0hT7Kv/jN501mkHFzJ2hi9CpnH21k/hCBn7LzG9oWFJ1iYfZIU8zR8MQWjlPW5f1ZU1oKWsTF6CXMzKUNph5HChcO18Vr9V4Hx/S8hCXv/nlGzLespitdBGaSExN400FPfp2KFZpXFZlLd2pUOLhdmCR2duGIXQOuVNUXKUyJnTl51N7vq2XM/Krss5KsBDonCbepMU+elKvMBuemrLsiObhJSK0BfUbzZ8eTPFrD7suWpRWOWqlE6+WlrIOCcrH/gYhNNEq2uFT75KoDOlswuof2GO3UU/nZD3tdmtzyCJP9CIjdXwSOfGWxsnGS5ypbisJryNo1ax5TRJLROhACmlqwdvK6cGSBgu1Km/yi8SjWpr4n/StxbEdbkmG0spBdJ1bJresc94yz5TLDf/rMGXyvKCjH4QM0dvsbsr9bHIYMC38aPD54O1xXVNN92q5BwnFTuLXmrZ/xLtNKRGhh9OIMHveVpWzhoYN0bLE33MbvlevxYfBp+sfbTUzyT2CdzYruNAvOqXThy5Dh4ZNr5tQ7z+Nuglh00cP+9gxUc/nRXmrf9/yd0WW6VMdtjaliHh+j2TnlLGKQSUi9Cr6ONT1MW/y86yQsGAdSp3P/SCly28p3/BiSE8KQfGYUEA8v19H7ZRvFZ+UiNC9qZ+j7CKvRSW7ZitrvX4eCG3gGJFDPL8dKDwlR5FWIkK3pS4KuxR+i8qISWYQGkLrL10hqr6If9Psv4eZ5ZaI0ENposJFcAUHJ96XfacoKs5b55pkQ2hwmC6bjG7UdX7QRwEr6qiJgBXBq/hdp0TMZkXx+9ZN6Nm0TOGVwn9W6HU74FxAivqonVLvXJsN0xsxoxwIbcgsoyPi9u84ZZoy42JCJHiU7FRiQi+idYqaKbo0dfpkLIhlRvcgtKGygA6Jm020eqLLTEfOJSb0Utqk8EnRrf3e/8GSQcwoE0IbIolc7aybzsoI+I5JL5WI0AvoY4V3iq6PpALur+Bq6VwIbXjJxhlxc5115urClN2KdSUidAItVHjoLLSI+dzq1aQG7YfQSDa0Cb8jVyx/KBGhh9B4QSuHtko7XugULKIkCI1kQ4uf9v1M+qhEhG5JEQrblDcpm4hVvdC9gYRSK6rQ/SG0HpONl9Ew5YbidIkI/Rb1FTwp1OWm1fVC35B7pifNTqiM42ZMHvVjORVazAIPek+rEY94GV7veSVZPS4sgeOdRodDD6mOJgd9rvKfFNZM2aBYUiJCr6SkUBde+Yzz/M42PqiubI0Pul02UqG0Y7r/oVpqwv9Q4I/uD8qp0MoPZ4IoEKoGM1TN6BPDJMxMTZj0nmXG76+d0l3RqUSEHkmjBL3tzLNCW3LFVlc2077+LslvPkCjHAmNKPZiZrwdzegbtWe1Eo0YL+Vt4XTno4BlJSJ0XWok6A+tyOoeFqN2fUZe1MXX+7wxhEYU1PlYEWe1NjVubsHr4O+QNT5sbIkIXYliBSNWnLMWhi0oYotLnNIfdwnJMHpjofuVPaEH0miFM4TWSuc+nM4nizyrY2hcmAM/DcgObVWjRIQWUyvBmEKH9A883i9yG2XK/XF0vYw3GXXkljJVMarsCb2NDlgHnoWm+ko2XrKIlvpVyeCPSu8+SVICQt8kJqqfxK9r3VPeV7xbzLGUK34UHaiz0iJW97sb0q/KntBPlJMSLDODqhqFQ0bvYpKNl0ygGYpqKfw5/UMWEWXpXeiPKN0sSNBCHHjkkeXZYsuofN/Q4mi/DN3OhG3ukMFltJ11IW30Cz1vCl2LDbsH7foQ/aDBOU2hXIs6BwUt0QeY2ed6F/pL2uXieZnfRuW7srgZQF5ym1trarSX1rW0iNnm9Nt40fKHsin038qHB77Nl7ucM00xSREbfJick99QNS2uU0anHkx8UqNzqtSp3kf8dgTX8xvs1+td6ME0uLZ9Jv85Qtd5ml57ZafthGgfFUqLWMCDJudDUwpH45T623pFn7XcqLdBySXAdfrL5B3rygprBSDL3uNkanLno1qc07YT+G+osr8/vM4QvQsdRn16VnrOGyKb36FbXY1LqTxcfHSNQkobsZ5fMps7isLx0DrP9DkeIJcfOEWGWOrQssGnF8V2sc7ji9ajT3CRtZr2Qp/hltB4/hen8uOEpuO0KGkat9GkaI8M4Xu8Wq0gOg0dyj/DKT7M6ZH2LRt8Euj92k5/8UeItOcUOaVXoa8QkwR+za9dPa4udV6uVVmVL9IaE12dp7RVdvtOIWU5qQCacoIeWURslb7OJZ2LfYyiir20T+5xnF/rBR1Pk5/Xq9CLabFrtauCfn3fMvM/tCztNW7DYdFurxMPKWu/7zPZEshQMVhMX3l0WF81U5Zv96z2mWGRTHRS631s574L4Zv57cMuf82rPVOvQveg2HbW2fzfgUjud+A3rct7livvyEifM4pnsnznzM7rv/Iaifq5ItXSv5knBMVEjY3Y7FBUE9gLg8y4hFPFX6TUbRS/P0el/Oi3ffQotPKoLWbwM2hZ/qA+LXRSUbnNhw5DI6KjZgRdNT8HCQyNvXRYOqhr8w0tDzdeEdNnRu2frPhTaA2nqaEOj/gtB43WM+MrehP6e0qV1zvGTzhc775fa7ZgvZ/osunGGqOjusVHJ0yK+lwWi4sHhOyhy+btEitnGb1oEbB47nQn6ESzeT07zXNPf/HYVflauMP2tQS9ZDyvrHVboTehp1JCA2dBL+Xah/+w3P/q14PyxZ9UHd2yw5SAXZ43FLnKvqO22c13r3Ybi3QCFEQ559DQPsL3sJgwWa7r9frfRc7sGb68yn0xUfgy/iMa+fPYHk30JLRSych3zASvjms568Ur5ox32g6t33NCs13eV2yzJLxZQsxY9A5mcQoXEfzLCtrmUu+CugfDpkz+uNpvITt6jBmxVC5o3Q3bxMSn9CL0YUqTNxK0o9hmJfRaXLf/0Kbrvc/aPTDPV91BtMrjURFtKB2XEbzkMWdt+ynS/OJ6PJjnVc6WCP7VKyPJf7EehGY0kCaE8XN0YtZP6lxweVApz7iYkoUeOWP/PS4keMlYmh7oflO3Dk4WbOA0ostvLHS68k03K3XtUmad12coIY8GSo5RvrTlJyY699mrfWKvzeY3FnoZrfHwuqx7z0Hf1C3eS3ExgbJWG93V/rHuKsmfx00iuvtGQitL0X+y5Ru9Nazz+4w+wwU1dDbSNw6NTgnnFnV4ZpWjeZ3tc2lt9eVvJHQ8LbbxOqrNvBsWTFg+l5tzQvsg7TBslHMfRY60zBO8xfDvMWPf6hyxKuCUY6Y0r/ihp7K8gQNVZbCaCn2WW9r2rZSrSVd8Sb7ikceFJltGzvS7xP+bmDXffk+yHRfVkJlJC3y804RihG+7LdlLzPiQ9cTAt0e02Ol90eaJKRMVoVnwT18pknQWeh3tcq9VzMBmMZPnuF0N/rrr1L6N1lfONSEaMFQh+CLaPhrexQJ1tOFympikfZKwZaH67SXhI17ntsrnK1sdhzZtPiHkO9drMjWJiOzZgLFEmToJrWw/jopX9+JTY2bxzOl24E+RS4ZEzne9bcr+EfYgpdiHHRGmSg2O7tTk1QKgYt4OVqeJbao+FDbDxcxjosK923rR79IP3GM6tl1aO9nxrvS5sL72vjLXe6BOQg+m6fVdr6to9c63f+B7tvX6Lj0SfJMLvZrtDrWjsRFVBDezlrkxw5W9qoEB8jmdVDT7UZgh+/6ywW222m2Ub/47KJvg3+s9B8Fkj6as2frr0p1aC72RjliFfyms9xVP63/aPm5sg69tmfF9tc2NTNJ4tVhY/stLPOORdhgeD7il2wDrZ4IHFNmDuGr2z2K2/ZmYNGKXSaGJAIZxacc5rYT+lcsphky3eibsQ9JsPTM/UqyWY2lmkOct/rZmrOcqJr6OC2xoLKUkd/9UYb7a8MsDFsuK3ZZRe4pvUO2WME3wzJjZKpa+0FhoZWIzvUu1e8L9eNyaGjRag8/wB/d7EZFgLnhk73b33UaDcIENC85kk84fCKfjcb2f2O5tjbZP4VSKmWNRqHXY9+QC38jXNWvRQjNqSJN8fc4Lk55KrNccZpSqUTkW0iqXgF8LDYf98oEsGRfZkG4Hu1B84+qCmtGcdVrOjH/ScB8Laa1jwBGjQo1rTZK3+A76R+mihGbUlVb41ks2LvSlCDyyxXGZhqVQphZ9Y62y+fuwz46LqY882nDYT3/K2u4TqlQjdYX3NC32Up9Gtq5aKF2QsLDjC30HvhiEq17oPfQWzfANPi4u1EznfG9s6xAtSrGKvpU1+l74xaqbvL8qHrEYCNepBvXtZpctbEnuO0a7eSsucb/ufeZaq3gEUvvsvI5MlKxW6B+JiWZ19D1buE3bmvWby4x/1+rXxpcmRtgLxrlY5fcYT4S0wyDYQrudg04Lf+jr7v/EKlHLPe2is5Wb7TBV0dOi+p1+Cd/Yk0qhifba90lwu1P4kbopa7bjXOXdWpZiK3c/0GqtsBSel1f6zcTFNgRcKaqvsPeG0+P3ojrq1Fayzrtxiqru95bPQ09PHdQ+Rih0y5ipgxqdtnyu6plg45R1OnUBfYeW1q9+XXhHEDkPPaQNhBbLTQR5b5v1zFSXER9KYeY2qHnBSGUPD5tcj5ti3lfHJM/9pk2uSGX/uZoX5jTQTUHlw/Mu8cI2l+DkuzKMNDQIWs/n34y5p31QR9dx09dISoMbVL/wZq+D4JKUC7ENzHQeF7iOdrvXEXRvCkxOkx3Bxa74tKd+7QqO75bl9ZpK9J3O+/uaqtDQYN8Luo95MWE+FwYHO9CXOpfhIllTn76K3IK3psrJGW/hcld89tJ5y7afvOrdZpEfse9ru5VvtEdGPrQkOPyMJF8XnU3zm5xZGOz1hvnuNjoqa7nVIv9VuuN7a35oBC62IcBoAW1w6Dmnzokq5+uc7TX7E4c3v3lSbr/OtcMmRZbWw1uz2m5a7ars9vSm1KJP7HvNrnPWMcX/fOujs99iRjm42IYjNRMdlA1S7JYzY31d9pl03KJvbM0rEs3rZlbjSu/YIxbv6akEOcSMv5T3U3yleFaouykAWpPNfU0W12y/zPOhuFiZxczjYZtlH9RkomycOFB2uU7PJEtCW8yv/pvVM2M1Y1Dkz33Sm85fGJojuYoTBso+mcSMEp1G9A9f7XPK9a7lQ3m+BbNg8nzLh653fU41WT1y4HYvZpSJEwXKE0+5yvgH60TfyAaTY6PiouImxXZuMNd3vzUzfoKTAwAAAAAAAAAAAAAAAAAAAAAAAAAAAAAAAAAAAAAAAAAAAAAAAAAAAAAAAAAAAAAAAAAAAAAAAAAAAAAAAAAAAAAAAAAAAAAAAAAAAAAAAAAAAAAAAAAAAAAAAAAAAFQg/g+z3ZtJbb5MlAAAACV0RVh0ZGF0ZTpjcmVhdGUAMjAyMy0wMy0wMVQxMToyMjozOCswMDowMJm6xAEAAAAldEVYdGRhdGU6bW9kaWZ5ADIwMjMtMDMtMDFUMTE6MjI6MzgrMDA6MDDo53y9AAAAAElFTkSuQmCC;" vertex="1" parent="1">
                    <mxGeometry x="39.66" y="427" width="111" height="111" as="geometry"/>
                </mxCell>
            </root>
        </mxGraphModel>
    </diagram>
</mxfile>